<svg width="26" height="26" viewBox="0 0 26 26" fill="none" xmlns="http://www.w3.org/2000/svg">
<path d="M22.8348 15.8826L21.1391 14.187C21.0826 14.0739 21.0261 13.9043 21.0261 13.7913V9.38261C21.0261 7.17826 20.1783 5.14348 18.5957 3.61739C17.4652 2.54348 16.1087 1.86522 14.6391 1.52609C14.5826 0.678261 13.8478 0 13 0C12.1522 0 11.4174 0.678261 11.3609 1.52609C7.74349 2.37391 4.97392 5.7087 4.97392 9.66522V13.7348C4.97392 13.9043 4.9174 14.0739 4.80436 14.187L3.1087 15.8826C2.37392 16.6174 2.03479 17.5217 2.03479 18.5391V19.5C2.03479 20.7435 3.05218 21.7609 4.29566 21.7609H5.93479H6.55653H8.08262H9.6087H10.0609C9.94783 22.1 9.83479 22.4391 9.83479 22.8348C9.83479 24.5304 11.2478 25.9435 12.9435 25.9435C14.6391 25.9435 16.0522 24.5304 16.0522 22.8348C16.0522 22.4391 15.9957 22.1 15.8261 21.7609H16.3913H17.9174H19.4435H21.7044C22.9478 21.7609 23.9652 20.7435 23.9652 19.5V18.5391C23.9652 17.5783 23.5696 16.6174 22.8348 15.8826ZM22.4957 19.5565C22.4957 19.9522 22.1565 20.2913 21.7609 20.2913H17.9739H16.4478H14.6957H11.3044H9.55218H8.02609H4.29566C3.90001 20.2913 3.56088 19.9522 3.56088 19.5565V18.5957C3.56088 17.9739 3.78696 17.4087 4.23914 17.013L5.99131 15.2609C6.33044 14.8652 6.55653 14.3 6.55653 13.7913V9.72174C6.55653 6.44348 8.8174 3.67391 11.7565 3.05217C11.8696 3.05217 11.9826 2.99565 12.0391 2.99565C12.3217 2.93913 12.5478 2.93913 12.8304 2.88261C12.887 2.88261 12.9435 2.88261 13.0565 2.88261C13.3957 2.88261 13.7348 2.93913 14.0739 2.99565C14.187 2.99565 14.3 2.99565 14.3565 3.05217C15.5435 3.27826 16.6739 3.9 17.5783 4.74783C18.8783 5.9913 19.5565 7.63043 19.5565 9.43913V13.8478C19.5565 14.3 19.7261 14.8087 20.0087 15.2043L21.8174 17.013C22.2696 17.4087 22.4957 18.0304 22.4957 18.5957V19.5565Z" fill="#8E8E93"/>
</svg>
