<svg width="26" height="26" viewBox="0 0 26 26" fill="none" xmlns="http://www.w3.org/2000/svg">
<path d="M11.4 15.2L12.4 17.2C12.6 17.7 13.3 17.7 13.5 17.2L14.5 15.2C14.6 15 14.8 14.9 15 14.9L17.2 14.6C17.7 14.5 17.9 13.9 17.5 13.5L16 11.9C15.9 11.8 15.8 11.6 15.8 11.3L16.2 9.10002C16.3 8.60002 15.8 8.20002 15.3 8.40002L13.3 9.40002C13.1 9.50002 12.9 9.50002 12.7 9.40002L10.7 8.40002C10.2 8.20002 9.70005 8.50002 9.80005 9.10002L10.2 11.3C10.2 11.5 10.2 11.7 10 11.9L8.40004 13.5C8.00004 13.9 8.20005 14.5 8.70005 14.6L10.9 14.9C11.2 14.9 11.4 15 11.4 15.2Z" fill="#8E8E93"/>
<path d="M13 0C5.8 0 0 5.8 0 13C0 20.2 5.8 26 13 26C20.2 26 26 20.2 26 13C26 5.8 20.2 0 13 0ZM24.7 12.3H22.4C22.3 10.2 21.4 8.3 20.1 6.8L21.7 5.2C23.4 7.1 24.5 9.6 24.7 12.3ZM13.7 1.3C16.4 1.5 18.9 2.5 20.8 4.3L19.2 5.9C17.7 4.6 15.8 3.7 13.7 3.6V1.3ZM12.3 1.3V3.6C10.2 3.7 8.3 4.6 6.8 5.9L5.2 4.3C7.1 2.6 9.6 1.5 12.3 1.3ZM4.3 5.2L5.9 6.8C4.6 8.3 3.7 10.2 3.6 12.3H1.3C1.5 9.6 2.6 7.1 4.3 5.2ZM1.3 13.7H3.6C3.7 15.8 4.6 17.7 5.9 19.2L4.3 20.8C2.6 18.9 1.5 16.4 1.3 13.7ZM12.3 24.7C9.6 24.5 7.1 23.5 5.2 21.7L6.8 20.1C8.3 21.4 10.2 22.3 12.3 22.4V24.7ZM4.9 13C4.8 8.5 8.6 4.9 13 4.9C17.5 4.9 21.1 8.5 21.1 13C21.1 17.5 17.5 21.1 13 21.1C8.6 21.1 4.8 17.5 4.9 13ZM13.7 24.7V22.4C15.8 22.3 17.7 21.4 19.2 20.1L20.8 21.7C18.9 23.4 16.4 24.5 13.7 24.7ZM21.7 20.8L20.1 19.2C21.4 17.7 22.3 15.8 22.4 13.7H24.7C24.5 16.4 23.4 18.9 21.7 20.8Z" fill="#8E8E93"/>
</svg>
