<svg width="26" height="26" viewBox="0 0 26 26" fill="none" xmlns="http://www.w3.org/2000/svg">
<path d="M7.87693 1.63395L9.00579 1.04178C9.26411 0.904314 9.56844 1.12638 9.5189 1.41189L9.30304 2.66319C9.28181 2.77598 9.32073 2.89583 9.40566 2.9769L10.3187 3.86162C10.5274 4.06606 10.4142 4.42207 10.124 4.46437L8.86424 4.64766C8.74746 4.66528 8.64837 4.73578 8.59883 4.84152L8.03617 5.98003C7.90524 6.24087 7.53014 6.24087 7.40274 5.98003L6.84008 4.84152C6.787 4.73578 6.68792 4.66528 6.57468 4.64766L5.30427 4.46437C5.0141 4.42207 4.89732 4.06959 5.1061 3.86515L6.0191 2.9769C6.10403 2.89583 6.13941 2.77951 6.12172 2.66319L5.90586 1.41189C5.85632 1.12638 6.16065 0.907839 6.41897 1.04531L7.54783 1.63395C7.65045 1.69035 7.77431 1.69035 7.87693 1.63395Z" fill="#017AFF"/>
<path d="M21.363 13.8334C20.9561 12.8747 20.3757 12.0146 19.6361 11.2779C18.8965 10.5412 18.0331 9.95964 17.0706 9.55429C16.0762 9.13484 15.0181 8.92335 13.9282 8.92335C12.8382 8.92335 11.7837 9.13484 10.7858 9.55429C10.5451 9.65651 10.3116 9.76578 10.0851 9.88915C9.89756 8.45455 8.66608 7.34424 7.17627 7.34424H6.45083C6.12527 7.34424 5.8634 7.60507 5.8634 7.92936V9.76225V14.6547V16.8048C5.8634 16.8577 5.85986 16.9106 5.85986 16.9634C5.85986 17.0163 5.85986 17.0692 5.8634 17.122C5.88463 18.1513 6.09696 19.1488 6.49683 20.0935C6.90379 21.0522 7.48414 21.9123 8.22374 22.6489C8.63069 23.0543 9.07303 23.4103 9.55076 23.717C9.94356 23.9707 10.3541 24.1893 10.7893 24.369C11.7837 24.7885 12.8418 25 13.9317 25C15.0216 25 16.0762 24.7885 17.0741 24.369C18.0366 23.9637 18.8965 23.3856 19.6397 22.6454C20.3793 21.9087 20.9632 21.0487 21.3666 20.0899C21.7877 19.0959 22 18.0455 22 16.9599C22 15.8743 21.7842 14.8239 21.363 13.8334ZM13.9282 20.8266C11.7979 20.8266 10.071 19.1065 10.071 16.9846C10.071 14.8626 11.7979 13.1425 13.9282 13.1425C16.0585 13.1425 17.7854 14.8626 17.7854 16.9846C17.7854 19.1065 16.0585 20.8266 13.9282 20.8266Z" fill="url(#paint0_linear)"/>
<path d="M10.117 19.9102V22.145V22.9803C10.117 23.3293 9.87989 23.6254 9.55786 23.717C9.55786 23.717 9.55786 23.717 9.5614 23.717C9.88696 23.6289 10.1241 23.3328 10.1241 22.9803V22.145V19.9102V17.6015C10.1205 17.5874 10.1205 17.5698 10.117 17.5557V19.9102Z" fill="url(#paint1_linear)"/>
<path d="M17.6446 18.0158C17.1916 19.6372 15.7018 20.8251 13.9289 20.8251C12.0109 20.8251 10.4185 19.4293 10.1212 17.5999V19.9086V22.1434V22.9787C10.1212 23.3312 9.88413 23.6273 9.55857 23.7154C9.55857 23.7154 9.55857 23.7154 9.55503 23.7154C9.87706 23.6238 10.1142 23.3312 10.1142 22.9787V22.1434V19.9086V17.5541C10.0858 17.3673 10.0717 17.1804 10.0717 16.9866C10.0717 16.7927 10.0858 16.6024 10.1142 16.4191V14.0187V14.0116V12.5841V11.7769V10.2648C10.1142 10.1379 10.1071 10.011 10.0894 9.8841C10.0858 9.8841 10.0858 9.88762 10.0823 9.88762C9.89475 8.45303 8.66327 7.34271 7.17347 7.34271H6.44449C6.38433 7.34271 6.32771 7.35329 6.27109 7.36739C6.03399 7.44141 5.86413 7.66347 5.86413 7.92431V7.92783V9.7572V9.76073V9.90172C5.86413 9.89467 5.86413 9.89115 5.8606 9.8841L5.86413 10.4163V14.6496V14.6532V16.7998C5.86413 16.8526 5.8606 16.9055 5.8606 16.9584C5.8606 17.0112 5.8606 17.0641 5.86413 17.117C5.88537 18.1462 6.09769 19.1438 6.49757 20.0884C6.90452 21.0471 7.48487 21.9072 8.22801 22.6439C8.63496 23.0492 9.0773 23.4052 9.55503 23.7119C9.94783 23.9657 10.3583 24.1842 10.7936 24.364C11.7915 24.7834 12.8461 24.9949 13.936 24.9949C15.0259 24.9949 16.084 24.7834 17.0784 24.364C18.0409 23.9586 18.9044 23.3806 19.644 22.6404C20.3835 21.9002 20.9674 21.0436 21.3744 20.0849L17.6446 18.0158Z" fill="url(#paint2_linear)"/>
<defs>
<linearGradient id="paint0_linear" x1="5.77388" y1="18.0411" x2="20.906" y2="12.4448" gradientUnits="userSpaceOnUse">
<stop offset="0.3232" stop-color="#001AFF"/>
<stop offset="0.7076" stop-color="#007AFF"/>
</linearGradient>
<linearGradient id="paint1_linear" x1="9.59507" y1="20.7325" x2="10.9526" y2="20.2021" gradientUnits="userSpaceOnUse">
<stop stop-color="#FF2D55"/>
<stop offset="0.9351" stop-color="#FF3B30" stop-opacity="0.5"/>
</linearGradient>
<linearGradient id="paint2_linear" x1="6.25968" y1="18.1147" x2="20.5629" y2="12.1366" gradientUnits="userSpaceOnUse">
<stop stop-color="#21AFFF"/>
<stop offset="0.572307" stop-color="#007AFF"/>
</linearGradient>
</defs>
</svg>
