<svg width="26" height="26" viewBox="0 0 26 26" fill="none" xmlns="http://www.w3.org/2000/svg">
<path d="M11.2479 25.0956H7.96964C7.63051 25.0956 7.3479 24.813 7.3479 24.4739V18.2C7.3479 17.8609 7.63051 17.5782 7.96964 17.5782H11.2479C11.587 17.5782 11.8696 17.8609 11.8696 18.2V24.4739C11.8696 24.813 11.587 25.0956 11.2479 25.0956Z" fill="#8E8E93"/>
<path d="M24.9826 13.5087C24.8131 13.5087 24.587 13.4521 24.4739 13.2826L13 1.80866L1.5261 13.2826C1.2435 13.5652 0.7348 13.5652 0.452191 13.2826C0.169582 13 0.169582 12.4913 0.452191 12.2087L12.4913 0.226056C12.7739 -0.0565531 13.2826 -0.0565531 13.5652 0.226056L25.5478 12.2087C25.8305 12.4913 25.8305 13 25.5478 13.2826C25.3783 13.4521 25.2087 13.5087 24.9826 13.5087Z" fill="#8E8E93"/>
<path d="M23.0045 26H2.99577C2.60012 26 2.26099 25.6609 2.26099 25.2652V10.7956C2.26099 10.4 2.60012 10.0609 2.99577 10.0609C3.39142 10.0609 3.73055 10.4 3.73055 10.7956V24.4739H22.2132V10.7956C22.2132 10.4 22.5523 10.0609 22.9479 10.0609C23.3436 10.0609 23.6827 10.4 23.6827 10.7956V25.2087C23.7393 25.6609 23.4001 26 23.0045 26Z" fill="#8E8E93"/>
</svg>
