<svg width="14" height="13" viewBox="0 0 14 13" fill="none" xmlns="http://www.w3.org/2000/svg">
<g clip-path="url(#clip0_715:2846)">
<path d="M1.31252 11.7813C1.2552 11.7816 1.19845 11.7698 1.146 11.7467C1.09355 11.7235 1.0466 11.6895 1.00823 11.6469C0.969859 11.6043 0.940936 11.5541 0.923364 11.4995C0.905792 11.445 0.899968 11.3873 0.906275 11.3303L1.21909 8.48657C1.23022 8.39568 1.27174 8.31121 1.3369 8.24688L7.98315 1.60063C8.1039 1.47964 8.24732 1.38365 8.40522 1.31815C8.56311 1.25266 8.73237 1.21895 8.90331 1.21895C9.07424 1.21895 9.2435 1.25266 9.40139 1.31815C9.55929 1.38365 9.70271 1.47964 9.82346 1.60063L11.0869 2.86407C11.2079 2.98482 11.3039 3.12824 11.3694 3.28613C11.4349 3.44403 11.4686 3.61329 11.4686 3.78422C11.4686 3.95516 11.4349 4.12442 11.3694 4.28231C11.3039 4.4402 11.2079 4.58363 11.0869 4.70438L4.44471 11.3466C4.38038 11.4117 4.29591 11.4532 4.20502 11.4644L1.36127 11.7772L1.31252 11.7813ZM2.01534 8.71407L1.77159 10.9159L3.97346 10.6722L10.5141 4.13157C10.5595 4.08628 10.5956 4.03246 10.6202 3.9732C10.6448 3.91395 10.6575 3.85041 10.6575 3.78625C10.6575 3.72209 10.6448 3.65856 10.6202 3.5993C10.5956 3.54005 10.5595 3.48623 10.5141 3.44094L9.24659 2.17344C9.2013 2.12799 9.14748 2.09193 9.08822 2.06733C9.02897 2.04272 8.96544 2.03006 8.90127 2.03006C8.83711 2.03006 8.77358 2.04272 8.71433 2.06733C8.65507 2.09193 8.60125 2.12799 8.55596 2.17344L2.01534 8.71407Z" fill="#3A3A3C"/>
<path d="M9.84381 5.77282C9.79035 5.77313 9.73734 5.76288 9.68785 5.74266C9.63835 5.72245 9.59333 5.69266 9.55537 5.65501L7.03256 3.12407C6.99468 3.08619 6.96464 3.04122 6.94414 2.99173C6.92364 2.94224 6.91309 2.8892 6.91309 2.83563C6.91309 2.78206 6.92364 2.72902 6.94414 2.67953C6.96464 2.63004 6.99468 2.58507 7.03256 2.54719C7.07044 2.50932 7.11541 2.47927 7.1649 2.45877C7.21439 2.43827 7.26743 2.42772 7.321 2.42772C7.37457 2.42772 7.42761 2.43827 7.4771 2.45877C7.52659 2.47927 7.57156 2.50932 7.60944 2.54719L10.1404 5.07813C10.1785 5.1159 10.2087 5.16083 10.2293 5.21033C10.2499 5.25984 10.2605 5.31294 10.2605 5.36657C10.2605 5.4202 10.2499 5.4733 10.2293 5.5228C10.2087 5.57231 10.1785 5.61724 10.1404 5.65501C10.1015 5.69364 10.0551 5.724 10.0041 5.74425C9.95318 5.7645 9.89864 5.77422 9.84381 5.77282Z" fill="#3A3A3C"/>
<path d="M7.03483 5.07961L3.87207 8.24237L4.44659 8.81689L7.60935 5.65414L7.03483 5.07961Z" fill="#3A3A3C"/>
<path d="M12.6875 11.7812H6.1875C6.07976 11.7812 5.97642 11.7384 5.90024 11.6623C5.82405 11.5861 5.78125 11.4827 5.78125 11.375C5.78125 11.2673 5.82405 11.1639 5.90024 11.0877C5.97642 11.0116 6.07976 10.9688 6.1875 10.9688H12.6875C12.7952 10.9688 12.8986 11.0116 12.9748 11.0877C13.0509 11.1639 13.0938 11.2673 13.0938 11.375C13.0938 11.4827 13.0509 11.5861 12.9748 11.6623C12.8986 11.7384 12.7952 11.7812 12.6875 11.7812Z" fill="#3A3A3C"/>
</g>
<defs>
<clipPath id="clip0_715:2846">
<rect width="13" height="13" fill="white" transform="translate(0.5)"/>
</clipPath>
</defs>
</svg>
