<svg width="321" height="333" viewBox="0 0 321 333" fill="none" xmlns="http://www.w3.org/2000/svg">
<rect width="50" height="30" transform="translate(35 274.994) rotate(-90)" fill="#C7C7CC"/>
<rect width="70" height="30" transform="translate(67 274.994) rotate(-90)" fill="#C7C7CC"/>
<rect x="67" y="274.994" width="70" height="30" transform="rotate(-90 67 274.994)" fill="#C7C7CC"/>
<rect width="90" height="30" transform="translate(99 274.994) rotate(-90)" fill="#C7C7CC"/>
<rect x="99" y="274.994" width="90" height="30" transform="rotate(-90 99 274.994)" fill="#C7C7CC"/>
<path d="M117.344 264.604H115.974L113.954 267.304C113.494 267.924 113.074 268.714 113.074 269.504C113.074 271.074 114.044 272.074 115.574 272.074C117.004 272.074 118.154 271.064 118.154 269.624C118.154 268.344 117.304 267.414 115.964 267.414C115.574 267.414 115.184 267.514 114.844 267.704L117.344 264.604ZM115.554 271.164C114.634 271.164 114.134 270.544 114.134 269.684C114.134 268.864 114.754 268.254 115.594 268.254C116.474 268.254 117.054 268.824 117.054 269.704C117.054 270.574 116.384 271.164 115.554 271.164ZM126.641 266.414H125.361V263.724H124.331V270.344H125.361V267.264H126.641V266.414ZM122.851 268.774V264.504H118.621V268.774H122.851ZM121.841 265.334V267.944H119.641V265.334H121.841ZM120.681 271.754V269.704H119.641V272.594H125.721V271.754H120.681Z" fill="#F2F2F2"/>
<rect width="110" height="30" transform="translate(131 274.994) rotate(-90)" fill="#C7C7CC"/>
<path d="M139.967 267.034L141.167 266.024C141.157 266.194 141.157 266.364 141.157 266.524L141.157 271.034H139.617V271.994H143.647V271.034H142.257L142.257 264.584H141.357L139.357 266.294L139.967 267.034ZM149.064 271.994V271.014H146.504C146.184 271.014 145.854 271.074 145.544 271.154L147.424 269.254C148.164 268.514 148.934 267.724 148.934 266.604C148.934 265.264 147.914 264.524 146.674 264.524C145.304 264.524 144.384 265.314 144.194 266.634L145.294 266.834C145.234 266.044 145.824 265.464 146.614 265.464C148.034 265.464 147.974 266.864 147.474 267.764C147.214 268.174 146.894 268.514 146.554 268.854L144.064 271.354V271.994H149.064ZM157.641 266.414H156.361L156.361 263.724H155.331L155.331 270.344H156.361L156.361 267.264H157.641V266.414ZM153.851 268.774L153.851 264.504L149.621 264.504L149.621 268.774L153.851 268.774ZM152.841 265.334V267.944L150.641 267.944V265.334L152.841 265.334ZM151.681 271.754V269.704H150.641V272.594L156.721 272.594V271.754L151.681 271.754Z" fill="#F2F2F2"/>
<rect x="195" y="274.994" width="150" height="30" transform="rotate(-90 195 274.994)" fill="#C7C7CC"/>
<path d="M208.857 271.994V271.014L206.297 271.014C205.977 271.014 205.647 271.074 205.337 271.154L207.217 269.254C207.957 268.514 208.727 267.724 208.727 266.604C208.727 265.264 207.707 264.524 206.467 264.524C205.097 264.524 204.177 265.314 203.987 266.634L205.087 266.834C205.027 266.044 205.617 265.464 206.407 265.464C207.827 265.464 207.767 266.864 207.267 267.764C207.007 268.174 206.687 268.514 206.347 268.854L203.857 271.354V271.994L208.857 271.994ZM210.174 267.034L211.374 266.024C211.364 266.194 211.364 266.364 211.364 266.524L211.364 271.034L209.824 271.034V271.994L213.854 271.994V271.034H212.464L212.464 264.584H211.564L209.564 266.294L210.174 267.034ZM222.641 266.414H221.361L221.361 263.724H220.331L220.331 270.344H221.361L221.361 267.264H222.641V266.414ZM218.851 268.774L218.851 264.504L214.621 264.504L214.621 268.774L218.851 268.774ZM217.841 265.334L217.841 267.944H215.641L215.641 265.334H217.841ZM216.681 271.754L216.681 269.704H215.641L215.641 272.594L221.721 272.594L221.721 271.754L216.681 271.754Z" fill="#F2F2F2"/>
<rect x="227" y="274.994" width="170" height="30" transform="rotate(-90 227 274.994)" fill="#C7C7CC"/>
<path d="M240.857 271.994L240.857 271.014L238.297 271.014C237.977 271.014 237.647 271.074 237.337 271.154L239.217 269.254C239.957 268.514 240.727 267.724 240.727 266.604C240.727 265.264 239.707 264.524 238.467 264.524C237.097 264.524 236.177 265.314 235.987 266.634L237.087 266.834C237.027 266.044 237.617 265.464 238.407 265.464C239.827 265.464 239.767 266.864 239.267 267.764C239.007 268.174 238.687 268.514 238.347 268.854L235.857 271.354L235.857 271.994L240.857 271.994ZM245.344 264.604H243.974L241.954 267.304C241.494 267.924 241.074 268.714 241.074 269.504C241.074 271.074 242.044 272.074 243.574 272.074C245.004 272.074 246.154 271.064 246.154 269.624C246.154 268.344 245.304 267.414 243.964 267.414C243.574 267.414 243.184 267.514 242.844 267.704L245.344 264.604ZM243.554 271.164C242.634 271.164 242.134 270.544 242.134 269.684C242.134 268.864 242.754 268.254 243.594 268.254C244.474 268.254 245.054 268.824 245.054 269.704C245.054 270.574 244.384 271.164 243.554 271.164ZM254.641 266.414H253.361L253.361 263.724L252.331 263.724L252.331 270.344L253.361 270.344L253.361 267.264H254.641L254.641 266.414ZM250.851 268.774L250.851 264.504L246.621 264.504L246.621 268.774L250.851 268.774ZM249.841 265.334L249.841 267.944L247.641 267.944L247.641 265.334L249.841 265.334ZM248.681 271.754L248.681 269.704H247.641L247.641 272.594L253.721 272.594V271.754L248.681 271.754Z" fill="#F2F2F2"/>
<rect width="190" height="30" transform="translate(259 274.994) rotate(-90)" fill="#FF3B30"/>
<rect x="259" y="274.994" width="190" height="30" transform="rotate(-90 259 274.994)" fill="#FF3B30"/>
<rect x="291" y="274.994" width="210" height="30" transform="rotate(-90 291 274.994)" fill="#C7C7CC"/>
<rect width="130" height="30" transform="translate(163 274.994) rotate(-90)" fill="#C7C7CC"/>
<path d="M42.5619 270.45L41.9919 271.25C42.1119 271.36 42.2419 271.46 42.4019 271.56C42.8719 271.91 43.5319 272.08 44.1019 272.08C45.6819 272.08 46.8119 271.03 46.8119 269.47C46.8119 268.01 45.7919 267.23 44.4419 267.23C44.1219 267.23 43.7819 267.27 43.4619 267.34L43.7619 265.62H46.5719V264.61H42.9919L42.3919 268.14L43.0719 268.33C43.4419 268.22 43.8219 268.14 44.2119 268.14C45.1319 268.14 45.7119 268.62 45.7119 269.53C45.7119 270.44 45.1419 271.14 44.1719 271.14C43.5819 271.14 42.9819 270.85 42.5619 270.45ZM52.2989 268.31C52.2989 266.61 51.6889 264.53 49.5989 264.53C47.5389 264.53 46.9089 266.55 46.9089 268.31C46.9089 270.07 47.5389 272.08 49.5989 272.08C51.6589 272.08 52.2989 270.07 52.2989 268.31ZM51.1589 268.31C51.1589 269.34 50.9789 271.16 49.5989 271.16C48.2289 271.16 48.0389 269.34 48.0389 268.31C48.0389 267.28 48.2189 265.46 49.5989 265.46C50.9789 265.46 51.1589 267.28 51.1589 268.31ZM57.5059 268.31C57.5059 266.61 56.8959 264.53 54.8059 264.53C52.7459 264.53 52.1159 266.55 52.1159 268.31C52.1159 270.07 52.7459 272.08 54.8059 272.08C56.8659 272.08 57.5059 270.07 57.5059 268.31ZM56.3659 268.31C56.3659 269.34 56.1859 271.16 54.8059 271.16C53.4359 271.16 53.2459 269.34 53.2459 268.31C53.2459 267.28 53.4259 265.46 54.8059 265.46C56.1859 265.46 56.3659 267.28 56.3659 268.31ZM62.713 268.31C62.713 266.61 62.103 264.53 60.013 264.53C57.953 264.53 57.323 266.55 57.323 268.31C57.323 270.07 57.953 272.08 60.013 272.08C62.073 272.08 62.713 270.07 62.713 268.31ZM61.573 268.31C61.573 269.34 61.393 271.16 60.013 271.16C58.643 271.16 58.453 269.34 58.453 268.31C58.453 267.28 58.633 265.46 60.013 265.46C61.393 265.46 61.573 267.28 61.573 268.31Z" fill="white"/>
<path d="M82.0238 269.74L81.0538 270.14C81.4538 271.48 82.2438 272.09 83.5938 272.09C84.9638 272.09 86.0938 271.26 86.0938 269.85C86.0938 268.92 85.5938 268.36 84.7138 268.11C85.5638 267.84 85.9338 267.28 85.9338 266.43C85.9338 265.18 84.8638 264.53 83.7438 264.53C82.3738 264.53 81.4638 265.34 81.2738 266.65L82.3638 266.84C82.3038 266.05 82.9238 265.47 83.6838 265.47C84.4138 265.47 84.8638 265.91 84.8638 266.62C84.8638 267.6 84.0338 267.82 83.2038 267.82V268.62C84.1038 268.62 84.9938 268.75 84.9938 269.88C84.9938 270.65 84.3338 271.15 83.5838 271.15C82.8238 271.15 82.1138 270.5 82.0238 269.74ZM94.6408 266.42H93.3608V263.73H92.3308V270.35H93.3608V267.27H94.6408V266.42ZM90.8508 268.78V264.51H86.6208V268.78H90.8508ZM89.8408 265.34V267.95H87.6408V265.34H89.8408ZM88.6808 271.76V269.71H87.6408V272.6H93.7208V271.76H88.6808Z" fill="#F2F2F2"/>
<path d="M172.58 267.04L173.78 266.03C173.77 266.2 173.77 266.37 173.77 266.53V271.04H172.23V272H176.26V271.04H174.87V264.59H173.97L171.97 266.3L172.58 267.04ZM180.707 264.61H179.337L177.317 267.31C176.857 267.93 176.437 268.72 176.437 269.51C176.437 271.08 177.407 272.08 178.937 272.08C180.367 272.08 181.517 271.07 181.517 269.63C181.517 268.35 180.667 267.42 179.327 267.42C178.937 267.42 178.547 267.52 178.207 267.71L180.707 264.61ZM178.917 271.17C177.997 271.17 177.497 270.55 177.497 269.69C177.497 268.87 178.117 268.26 178.957 268.26C179.837 268.26 180.417 268.83 180.417 269.71C180.417 270.58 179.747 271.17 178.917 271.17ZM189.754 266.42H188.474V263.73H187.444V270.35H188.474V267.27H189.754V266.42ZM185.964 268.78V264.51H181.734V268.78H185.964ZM184.954 265.34V267.95H182.754V265.34H184.954ZM183.794 271.76V269.71H182.754V272.6H188.834V271.76H183.794Z" fill="#F2F2F2"/>
<path d="M270.43 269.74L269.46 270.14C269.86 271.48 270.65 272.09 272 272.09C273.37 272.09 274.5 271.26 274.5 269.85C274.5 268.92 274 268.36 273.12 268.11C273.97 267.84 274.34 267.28 274.34 266.43C274.34 265.18 273.27 264.53 272.15 264.53C270.78 264.53 269.87 265.34 269.68 266.65L270.77 266.84C270.71 266.05 271.33 265.47 272.09 265.47C272.82 265.47 273.27 265.91 273.27 266.62C273.27 267.6 272.44 267.82 271.61 267.82V268.62C272.51 268.62 273.4 268.75 273.4 269.88C273.4 270.65 272.74 271.15 271.99 271.15C271.23 271.15 270.52 270.5 270.43 269.74ZM279.877 268.31C279.877 266.61 279.267 264.53 277.177 264.53C275.117 264.53 274.487 266.55 274.487 268.31C274.487 270.07 275.117 272.08 277.177 272.08C279.237 272.08 279.877 270.07 279.877 268.31ZM278.737 268.31C278.737 269.34 278.557 271.16 277.177 271.16C275.807 271.16 275.617 269.34 275.617 268.31C275.617 267.28 275.797 265.46 277.177 265.46C278.557 265.46 278.737 267.28 278.737 268.31ZM288.254 266.42H286.974V263.73H285.944V270.35H286.974V267.27H288.254V266.42ZM284.464 268.78V264.51H280.234V268.78H284.464ZM283.454 265.34V267.95H281.254V265.34H283.454ZM282.294 271.76V269.71H281.254V272.6H287.334V271.76H282.294Z" fill="#F2F2F2"/>
<path d="M292.859 51.663H295.62V56.58H292.859V51.663ZM291.979 57.306H296.5V50.937H291.979V57.306ZM300.801 53.885H299.173V49.958H298.271V59.814H299.173V54.644H300.801V53.885ZM309.455 54.908C307.728 54.578 305.858 53.082 305.858 51.399V50.64H304.912V51.399C304.912 53.082 303.053 54.567 301.326 54.908L301.733 55.656C303.218 55.304 304.758 54.248 305.385 52.807C306.012 54.259 307.552 55.315 309.048 55.656L309.455 54.908ZM300.952 57.746V58.494H309.895V57.746H300.952ZM311.674 54.347H314.908V53.621H311.674V51.586H315.337V50.838H310.772V57.449H311.531C313.412 57.449 314.611 57.394 316.041 57.141L315.942 56.404C314.6 56.646 313.456 56.712 311.674 56.712V54.347ZM317.548 49.936V53.665H315.513V54.413H317.548V59.825H318.45V49.936H317.548Z" fill="#8E8E93"/>
<path d="M226.944 98.1567H230.65V99H225.908V91.1797H226.944V98.1567ZM232.119 97.6519L233.558 93.1885H234.573L232.489 99H231.732L229.626 93.1885H230.642L232.119 97.6519ZM234.221 98.479C234.221 98.3071 234.271 98.1639 234.371 98.0493C234.475 97.9347 234.629 97.8774 234.833 97.8774C235.037 97.8774 235.191 97.9347 235.295 98.0493C235.402 98.1639 235.456 98.3071 235.456 98.479C235.456 98.6437 235.402 98.7816 235.295 98.8926C235.191 99.0036 235.037 99.0591 234.833 99.0591C234.629 99.0591 234.475 99.0036 234.371 98.8926C234.271 98.7816 234.221 98.6437 234.221 98.479ZM241.296 91.7383L238.058 99H237.016L240.244 91.9961H236.011V91.1797H241.296V91.7383Z" fill="#8E8E93"/>
<path d="M260.944 78.1567H264.65V79H259.908V71.1797H260.944V78.1567ZM266.119 77.6519L267.558 73.1885H268.573L266.489 79H265.732L263.626 73.1885H264.642L266.119 77.6519ZM268.221 78.479C268.221 78.3071 268.271 78.1639 268.371 78.0493C268.475 77.9347 268.629 77.8774 268.833 77.8774C269.037 77.8774 269.191 77.9347 269.295 78.0493C269.402 78.1639 269.456 78.3071 269.456 78.479C269.456 78.6437 269.402 78.7816 269.295 78.8926C269.191 79.0036 269.037 79.0591 268.833 79.0591C268.629 79.0591 268.475 79.0036 268.371 78.8926C268.271 78.7816 268.221 78.6437 268.221 78.479ZM274.99 73.2207C274.99 73.611 274.886 73.9583 274.679 74.2627C274.475 74.5671 274.197 74.8052 273.846 74.9771C274.254 75.1525 274.577 75.4085 274.813 75.7451C275.053 76.0817 275.173 76.4631 275.173 76.8892C275.173 77.5659 274.944 78.1048 274.485 78.5059C274.031 78.9069 273.431 79.1074 272.686 79.1074C271.934 79.1074 271.331 78.9069 270.876 78.5059C270.425 78.1012 270.199 77.5623 270.199 76.8892C270.199 76.4666 270.314 76.0853 270.543 75.7451C270.776 75.4049 271.096 75.1471 271.504 74.9717C271.157 74.7998 270.883 74.5617 270.683 74.2573C270.482 73.953 270.382 73.6074 270.382 73.2207C270.382 72.5618 270.593 72.0391 271.016 71.6523C271.438 71.2656 271.995 71.0723 272.686 71.0723C273.374 71.0723 273.929 71.2656 274.351 71.6523C274.777 72.0391 274.99 72.5618 274.99 73.2207ZM274.179 76.8677C274.179 76.4308 274.04 76.0745 273.76 75.7988C273.485 75.5231 273.123 75.3853 272.675 75.3853C272.228 75.3853 271.868 75.5213 271.596 75.7935C271.327 76.0656 271.193 76.4237 271.193 76.8677C271.193 77.3117 271.324 77.6608 271.585 77.915C271.85 78.1693 272.217 78.2964 272.686 78.2964C273.152 78.2964 273.517 78.1693 273.782 77.915C274.047 77.6572 274.179 77.3081 274.179 76.8677ZM272.686 71.8887C272.296 71.8887 271.979 72.0104 271.735 72.2539C271.495 72.4938 271.375 72.8215 271.375 73.2368C271.375 73.6343 271.494 73.9565 271.73 74.2036C271.97 74.4471 272.289 74.5688 272.686 74.5688C273.083 74.5688 273.4 74.4471 273.637 74.2036C273.877 73.9565 273.997 73.6343 273.997 73.2368C273.997 72.8394 273.873 72.5153 273.626 72.2646C273.379 72.014 273.066 71.8887 272.686 71.8887Z" fill="#8E8E93"/>
<path d="M196.944 118.157H200.65V119H195.908V111.18H196.944V118.157ZM202.119 117.652L203.558 113.188H204.573L202.489 119H201.732L199.626 113.188H200.642L202.119 117.652ZM204.221 118.479C204.221 118.307 204.271 118.164 204.371 118.049C204.475 117.935 204.629 117.877 204.833 117.877C205.037 117.877 205.191 117.935 205.295 118.049C205.402 118.164 205.456 118.307 205.456 118.479C205.456 118.644 205.402 118.782 205.295 118.893C205.191 119.004 205.037 119.059 204.833 119.059C204.629 119.059 204.475 119.004 204.371 118.893C204.271 118.782 204.221 118.644 204.221 118.479ZM210.147 111.174V112.018H209.964C209.191 112.032 208.575 112.261 208.117 112.705C207.658 113.149 207.393 113.774 207.322 114.58C207.734 114.107 208.296 113.871 209.008 113.871C209.689 113.871 210.231 114.111 210.636 114.59C211.044 115.07 211.248 115.69 211.248 116.449C211.248 117.254 211.028 117.899 210.587 118.382C210.151 118.866 209.563 119.107 208.826 119.107C208.077 119.107 207.47 118.821 207.005 118.248C206.539 117.672 206.307 116.93 206.307 116.024V115.643C206.307 114.204 206.613 113.104 207.225 112.345C207.841 111.583 208.756 111.192 209.97 111.174H210.147ZM208.842 114.698C208.502 114.698 208.188 114.8 207.902 115.004C207.615 115.208 207.417 115.464 207.306 115.772V116.137C207.306 116.782 207.451 117.301 207.741 117.695C208.031 118.089 208.392 118.286 208.826 118.286C209.273 118.286 209.624 118.121 209.878 117.792C210.136 117.462 210.265 117.031 210.265 116.497C210.265 115.96 210.134 115.527 209.873 115.197C209.615 114.864 209.271 114.698 208.842 114.698Z" fill="#8E8E93"/>
<path d="M164.944 140.157H168.65V141H163.908V133.18H164.944V140.157ZM170.119 139.652L171.558 135.188H172.573L170.489 141H169.732L167.626 135.188H168.642L170.119 139.652ZM172.221 140.479C172.221 140.307 172.271 140.164 172.371 140.049C172.475 139.935 172.629 139.877 172.833 139.877C173.037 139.877 173.191 139.935 173.295 140.049C173.402 140.164 173.456 140.307 173.456 140.479C173.456 140.644 173.402 140.782 173.295 140.893C173.191 141.004 173.037 141.059 172.833 141.059C172.629 141.059 172.475 141.004 172.371 140.893C172.271 140.782 172.221 140.644 172.221 140.479ZM174.704 137.079L175.102 133.18H179.108V134.098H175.945L175.708 136.23C176.092 136.005 176.527 135.892 177.014 135.892C177.726 135.892 178.292 136.128 178.711 136.601C179.13 137.07 179.339 137.706 179.339 138.508C179.339 139.313 179.121 139.949 178.684 140.415C178.251 140.876 177.644 141.107 176.863 141.107C176.172 141.107 175.608 140.916 175.171 140.533C174.735 140.15 174.486 139.62 174.425 138.943H175.365C175.426 139.39 175.585 139.729 175.843 139.958C176.101 140.184 176.441 140.296 176.863 140.296C177.325 140.296 177.687 140.139 177.948 139.824C178.213 139.509 178.346 139.074 178.346 138.519C178.346 137.996 178.202 137.577 177.916 137.262C177.633 136.943 177.255 136.784 176.783 136.784C176.349 136.784 176.009 136.879 175.762 137.068L175.499 137.283L174.704 137.079Z" fill="#8E8E93"/>
<path d="M132.944 157.157H136.65V158H131.908V150.18H132.944V157.157ZM138.119 156.652L139.558 152.188H140.573L138.489 158H137.732L135.626 152.188H136.642L138.119 156.652ZM140.221 157.479C140.221 157.307 140.271 157.164 140.371 157.049C140.475 156.935 140.629 156.877 140.833 156.877C141.037 156.877 141.191 156.935 141.295 157.049C141.402 157.164 141.456 157.307 141.456 157.479C141.456 157.644 141.402 157.782 141.295 157.893C141.191 158.004 141.037 158.059 140.833 158.059C140.629 158.059 140.475 158.004 140.371 157.893C140.271 157.782 140.221 157.644 140.221 157.479ZM146.442 155.374H147.527V156.185H146.442V158H145.443V156.185H141.882V155.599L145.384 150.18H146.442V155.374ZM143.01 155.374H145.443V151.539L145.325 151.753L143.01 155.374Z" fill="#8E8E93"/>
<path d="M100.944 177.157H104.65V178H99.9077V170.18H100.944V177.157ZM106.119 176.652L107.558 172.188H108.573L106.489 178H105.732L103.626 172.188H104.642L106.119 176.652ZM108.221 177.479C108.221 177.307 108.271 177.164 108.371 177.049C108.475 176.935 108.629 176.877 108.833 176.877C109.037 176.877 109.191 176.935 109.295 177.049C109.402 177.164 109.456 177.307 109.456 177.479C109.456 177.644 109.402 177.782 109.295 177.893C109.191 178.004 109.037 178.059 108.833 178.059C108.629 178.059 108.475 178.004 108.371 177.893C108.271 177.782 108.221 177.644 108.221 177.479ZM111.692 173.606H112.439C112.908 173.599 113.277 173.476 113.545 173.236C113.814 172.996 113.948 172.672 113.948 172.264C113.948 171.347 113.492 170.889 112.579 170.889C112.149 170.889 111.805 171.012 111.547 171.259C111.293 171.503 111.166 171.827 111.166 172.231H110.172C110.172 171.612 110.398 171.098 110.849 170.69C111.304 170.278 111.88 170.072 112.579 170.072C113.316 170.072 113.895 170.267 114.313 170.658C114.732 171.048 114.942 171.59 114.942 172.285C114.942 172.625 114.831 172.955 114.609 173.273C114.39 173.592 114.091 173.83 113.712 173.988C114.142 174.124 114.473 174.349 114.706 174.665C114.942 174.98 115.06 175.365 115.06 175.819C115.06 176.521 114.831 177.078 114.373 177.49C113.914 177.902 113.318 178.107 112.584 178.107C111.85 178.107 111.252 177.909 110.79 177.511C110.332 177.114 110.103 176.589 110.103 175.938H111.102C111.102 176.349 111.236 176.679 111.504 176.926C111.773 177.173 112.133 177.296 112.584 177.296C113.064 177.296 113.431 177.171 113.685 176.92C113.939 176.67 114.066 176.31 114.066 175.841C114.066 175.386 113.927 175.037 113.647 174.793C113.368 174.55 112.965 174.425 112.439 174.417H111.692V173.606Z" fill="#8E8E93"/>
<path d="M68.9443 198.157H72.6504V199H67.9077V191.18H68.9443V198.157ZM74.1187 197.652L75.5581 193.188H76.5732L74.4893 199H73.7319L71.6265 193.188H72.6416L74.1187 197.652ZM76.2207 198.479C76.2207 198.307 76.2708 198.164 76.3711 198.049C76.4749 197.935 76.6289 197.877 76.833 197.877C77.0371 197.877 77.1911 197.935 77.2949 198.049C77.4023 198.164 77.4561 198.307 77.4561 198.479C77.4561 198.644 77.4023 198.782 77.2949 198.893C77.1911 199.004 77.0371 199.059 76.833 199.059C76.6289 199.059 76.4749 199.004 76.3711 198.893C76.2708 198.782 76.2207 198.644 76.2207 198.479ZM83.3716 199H78.2476V198.286L80.9546 195.278C81.3556 194.823 81.6313 194.454 81.7817 194.171C81.9357 193.885 82.0127 193.59 82.0127 193.285C82.0127 192.877 81.8892 192.542 81.6421 192.281C81.395 192.019 81.0656 191.889 80.6538 191.889C80.1597 191.889 79.7747 192.03 79.499 192.313C79.2269 192.592 79.0908 192.983 79.0908 193.484H78.0972C78.0972 192.764 78.3281 192.182 78.79 191.738C79.2555 191.294 79.8768 191.072 80.6538 191.072C81.3807 191.072 81.9554 191.264 82.3779 191.647C82.8005 192.027 83.0117 192.533 83.0117 193.167C83.0117 193.937 82.5212 194.854 81.54 195.917L79.4453 198.189H83.3716V199Z" fill="#8E8E93"/>
<path d="M37.9443 219.157H41.6504V220H36.9077V212.18H37.9443V219.157ZM43.1187 218.652L44.5581 214.188H45.5732L43.4893 220H42.7319L40.6265 214.188H41.6416L43.1187 218.652ZM45.2207 219.479C45.2207 219.307 45.2708 219.164 45.3711 219.049C45.4749 218.935 45.6289 218.877 45.833 218.877C46.0371 218.877 46.1911 218.935 46.2949 219.049C46.4023 219.164 46.4561 219.307 46.4561 219.479C46.4561 219.644 46.4023 219.782 46.2949 219.893C46.1911 220.004 46.0371 220.059 45.833 220.059C45.6289 220.059 45.4749 220.004 45.3711 219.893C45.2708 219.782 45.2207 219.644 45.2207 219.479ZM50.5132 220H49.5142V213.377L47.5107 214.113V213.211L50.3574 212.142H50.5132V220Z" fill="#8E8E93"/>
<path d="M3.861 270.613H1.793V268.006H3.861V270.613ZM3.861 267.291H1.793V264.882H0.935V271.339H4.708V264.882H3.861V267.291ZM8.107 263.947V267.852H6.776V264.167H5.929V273.33H6.776V268.589H8.107V273.814H8.965V263.947H8.107ZM15.6721 267.951C14.3741 268.226 13.2411 268.292 11.2831 268.292V265.432H14.7481V264.706H10.3921V269.029H11.1621C13.2411 269.029 14.4181 268.963 15.7711 268.688L15.6721 267.951ZM14.4731 273.077C13.0101 273.077 12.1081 272.637 12.1081 271.911C12.1081 271.185 13.0101 270.745 14.4731 270.745C15.9251 270.745 16.8271 271.185 16.8271 271.911C16.8271 272.637 15.9251 273.077 14.4731 273.077ZM14.4731 270.019C12.4711 270.019 11.2171 270.723 11.2171 271.911C11.2171 273.099 12.4711 273.803 14.4731 273.803C16.4641 273.803 17.7181 273.099 17.7181 271.911C17.7181 270.723 16.4641 270.019 14.4731 270.019ZM17.6191 266.51V263.947H16.7061V269.821H17.6191V267.258H19.0711V266.51H17.6191ZM21.3013 270.899H26.2623V272.956H21.3013V270.899ZM20.4213 273.682H27.1533V270.173H20.4213V273.682ZM26.8563 268.105C27.1203 266.873 27.1203 265.971 27.1203 265.201V264.475H20.4543V265.201H26.2293C26.2293 265.971 26.2293 266.873 25.9433 268.105H19.3103V268.831H28.2753V268.105H26.8563Z" fill="#8E8E93"/>
<path d="M305.5 28L310.263 19.75L300.737 19.75L305.5 28Z" fill="#FF3B30"/>
<path d="M292.79 3.86H291.97V9.41H292.54C293.51 9.41 294.54 9.36 295.75 9.13L295.67 8.42C294.6 8.63 293.65 8.69 292.79 8.7V3.86ZM298.35 2.77V6.42H297.08V2.97H296.31V11.28H297.08V7.1H298.35V11.73H299.14V2.77H298.35ZM302.85 6.87H305.25V3.76H302.03V4.43H304.46V6.22H302.06V9.54H302.65C303.79 9.54 304.81 9.49 306.06 9.28L305.99 8.61C304.84 8.81 303.87 8.85 302.85 8.85V6.87ZM306.78 5.99H305.67V6.67H306.78V11.27H307.55V2.99H306.78V5.99ZM308.59 2.77V11.74H309.38V2.77H308.59ZM318.03 2.78H317.24V7.49H318.03V2.78ZM313.57 6.43H311.64V5.11H313.57V6.43ZM314.34 5.47H315.49V7.43H316.26V2.96H315.49V4.8H314.34V3.29H313.57V4.48H311.64V3.29H310.86V7.07H314.34V5.47ZM312.94 10.99V10.03H318.03V7.93H312.11V8.57H317.21V9.42H312.13V11.64H318.37V10.99H312.94Z" fill="#FF3B30"/>
<path d="M253.183 319.002H259.783V319.386C259.783 321.018 259.711 322.434 259.411 324.054L260.383 324.174C260.767 322.158 260.767 320.754 260.767 319.386V318.198H253.183V319.002ZM261.907 326.37V325.566H258.199V322.002H257.227V325.566H255.535V322.002H254.563V325.566H252.175V326.37H261.907ZM262.68 318.906H268.86V318.174H266.268V317.082H265.284V318.174H262.68V318.906ZM272.388 321.69V320.874H270.804V317.118H269.82V325.542H270.804V321.69H272.388ZM269.256 323.838L269.184 323.13C268.26 323.286 267.276 323.37 266.268 323.418V322.65C267.516 322.518 268.284 321.93 268.284 321.006C268.284 319.986 267.276 319.362 265.776 319.362C264.264 319.362 263.256 319.986 263.256 321.006C263.256 321.93 264.036 322.518 265.284 322.65V323.466C264.228 323.502 263.28 323.514 262.416 323.514L262.524 324.306C264.408 324.306 266.976 324.258 269.256 323.838ZM264.192 321.006C264.192 320.43 264.804 320.058 265.776 320.058C266.736 320.058 267.348 320.43 267.348 321.006C267.348 321.618 266.736 321.966 265.776 321.966C264.804 321.966 264.192 321.618 264.192 321.006ZM271.188 326.838H264.984V324.99H264V327.642H271.188V326.838ZM281.033 322.302H282.761V321.486H281.033V317.118H280.049V327.882H281.033V322.302ZM278.249 318.27H273.329V319.086H277.277C277.049 321.678 275.621 323.67 272.825 325.074L273.365 325.842C276.845 324.114 278.249 321.33 278.249 318.27ZM284.362 320.91H291.67V320.118H285.346V317.346H284.362V320.91ZM292.786 322.962V322.158H283.054V322.962H292.786ZM287.902 323.922C285.61 323.922 284.218 324.642 284.218 325.89C284.218 327.138 285.61 327.846 287.902 327.846C290.194 327.846 291.586 327.138 291.586 325.89C291.586 324.642 290.194 323.922 287.902 323.922ZM287.902 327.078C286.21 327.078 285.214 326.658 285.214 325.89C285.214 325.122 286.21 324.69 287.902 324.69C289.594 324.69 290.59 325.122 290.59 325.89C290.59 326.658 289.594 327.078 287.902 327.078ZM294.975 319.254L295.011 318.006H293.895L293.931 319.254L294.075 324.846H294.831L294.975 319.254ZM293.907 327.15H294.999V326.022H293.907V327.15Z" fill="#3A3A3C"/>
<path d="M164 284V297.5H320V284" stroke="black"/>
<path d="M221.366 329L219.812 327.446V323.246L221.366 321.692H225.23L226.672 323.05V324.45H224.516V323.624L223.97 323.064L222.514 323.078L221.954 323.624L221.968 326.83L222.514 327.39L226.56 327.376V329H221.366ZM228.887 329L227.333 327.446V323.246L228.887 321.692H232.989L234.557 323.246V327.446L232.989 329H228.887ZM230.035 327.614H231.841L232.401 327.054L232.387 323.624L231.841 323.064L230.035 323.078L229.475 323.624L229.489 327.054L230.035 327.614ZM235.584 320.88V319.032H237.74V320.88H235.584ZM235.584 329V321.678H237.74V329H235.584ZM238.949 329V321.678H241.105V322.826L242.379 321.678H244.941L246.495 323.246V329H244.339V323.624L243.807 323.078H242.701L241.105 324.548V329H238.949Z" fill="#007AFF"/>
<path d="M201.765 308.612L202.849 308.04C203.098 307.908 203.39 308.122 203.342 308.397L203.135 309.605C203.115 309.713 203.152 309.829 203.234 309.907L204.111 310.761C204.312 310.958 204.203 311.301 203.924 311.342L202.713 311.519C202.601 311.536 202.506 311.604 202.458 311.706L201.918 312.804C201.792 313.056 201.431 313.056 201.309 312.804L200.768 311.706C200.717 311.604 200.622 311.536 200.513 311.519L199.292 311.342C199.014 311.301 198.901 310.961 199.102 310.764L199.979 309.907C200.061 309.829 200.095 309.717 200.078 309.605L199.87 308.397C199.823 308.122 200.115 307.911 200.364 308.044L201.448 308.612C201.547 308.666 201.666 308.666 201.765 308.612Z" fill="#017AFF"/>
<path d="M214.724 320.381C214.333 319.456 213.775 318.626 213.065 317.916C212.354 317.205 211.524 316.644 210.599 316.253C209.644 315.848 208.627 315.644 207.579 315.644C206.532 315.644 205.519 315.848 204.56 316.253C204.328 316.351 204.104 316.457 203.886 316.576C203.706 315.192 202.523 314.121 201.091 314.121H200.394C200.081 314.121 199.83 314.372 199.83 314.685V316.453V321.173V323.248C199.83 323.299 199.826 323.35 199.826 323.401C199.826 323.452 199.826 323.503 199.83 323.554C199.85 324.547 200.054 325.509 200.438 326.42C200.829 327.345 201.387 328.175 202.098 328.886C202.489 329.277 202.914 329.62 203.373 329.916C203.75 330.161 204.145 330.372 204.563 330.545C205.519 330.95 206.535 331.154 207.583 331.154C208.63 331.154 209.644 330.95 210.603 330.545C211.527 330.154 212.354 329.597 213.068 328.882C213.779 328.172 214.34 327.342 214.727 326.417C215.132 325.458 215.336 324.445 215.336 323.397C215.336 322.35 215.129 321.337 214.724 320.381ZM207.579 327.128C205.532 327.128 203.873 325.468 203.873 323.421C203.873 321.374 205.532 319.715 207.579 319.715C209.627 319.715 211.286 321.374 211.286 323.421C211.286 325.468 209.627 327.128 207.579 327.128Z" fill="url(#paint0_linear_931:15043)"/>
<path d="M203.917 326.243V328.399V329.205C203.917 329.542 203.689 329.828 203.38 329.916C203.38 329.916 203.38 329.916 203.383 329.916C203.696 329.831 203.924 329.545 203.924 329.205V328.399V326.243V324.016C203.921 324.003 203.921 323.986 203.917 323.972V326.243Z" fill="url(#paint1_linear_931:15043)"/>
<path d="M211.151 324.416C210.716 325.98 209.284 327.126 207.58 327.126C205.737 327.126 204.207 325.78 203.921 324.015V326.242V328.398V329.204C203.921 329.544 203.694 329.83 203.381 329.915C203.381 329.915 203.381 329.915 203.377 329.915C203.687 329.826 203.915 329.544 203.915 329.204V328.398V326.242V323.971C203.887 323.79 203.874 323.61 203.874 323.423C203.874 323.236 203.887 323.052 203.915 322.876V320.56V320.553V319.176V318.397V316.938C203.915 316.816 203.908 316.693 203.891 316.571C203.887 316.571 203.887 316.574 203.884 316.574C203.704 315.19 202.52 314.119 201.089 314.119H200.388C200.33 314.119 200.276 314.129 200.222 314.143C199.994 314.214 199.831 314.429 199.831 314.68V314.684V316.449V316.452V316.588C199.831 316.581 199.831 316.578 199.827 316.571L199.831 317.084V321.168V321.172V323.243C199.831 323.294 199.827 323.345 199.827 323.396C199.827 323.447 199.827 323.498 199.831 323.549C199.851 324.542 200.055 325.504 200.439 326.416C200.83 327.34 201.388 328.17 202.102 328.881C202.493 329.272 202.918 329.615 203.377 329.911C203.755 330.156 204.149 330.367 204.568 330.54C205.526 330.945 206.54 331.149 207.587 331.149C208.635 331.149 209.651 330.945 210.607 330.54C211.532 330.149 212.362 329.592 213.072 328.878C213.783 328.163 214.344 327.337 214.735 326.412L211.151 324.416Z" fill="url(#paint2_linear_931:15043)"/>
<path d="M221.366 328.994L219.812 327.44V323.24L221.366 321.686H225.23L226.672 323.044V324.444H224.516V323.618L223.97 323.058L222.514 323.072L221.954 323.618L221.968 326.824L222.514 327.384L226.56 327.37V328.994H221.366ZM228.887 328.994L227.333 327.44V323.24L228.887 321.686H232.989L234.557 323.24V327.44L232.989 328.994H228.887ZM230.035 327.608H231.841L232.401 327.048L232.387 323.618L231.841 323.058L230.035 323.072L229.475 323.618L229.489 327.048L230.035 327.608ZM235.584 320.874V319.026H237.74V320.874H235.584ZM235.584 328.994V321.672H237.74V328.994H235.584ZM238.949 328.994V321.672H241.105V322.82L242.379 321.672H244.941L246.495 323.24V328.994H244.339V323.618L243.807 323.072H242.701L241.105 324.542V328.994H238.949Z" fill="#007AFF"/>
<path d="M201.765 308.605L202.849 308.034C203.098 307.902 203.39 308.116 203.342 308.391L203.135 309.598C203.115 309.707 203.152 309.823 203.234 309.901L204.111 310.755C204.312 310.952 204.203 311.295 203.924 311.336L202.713 311.513C202.601 311.53 202.506 311.598 202.458 311.7L201.918 312.798C201.792 313.05 201.431 313.05 201.309 312.798L200.768 311.7C200.717 311.598 200.622 311.53 200.513 311.513L199.292 311.336C199.014 311.295 198.901 310.955 199.102 310.758L199.979 309.901C200.061 309.823 200.095 309.711 200.078 309.598L199.87 308.391C199.823 308.116 200.115 307.905 200.364 308.038L201.448 308.605C201.547 308.66 201.666 308.66 201.765 308.605Z" fill="#017AFF"/>
<path d="M214.724 320.375C214.333 319.45 213.775 318.62 213.065 317.91C212.354 317.199 211.524 316.638 210.599 316.247C209.644 315.842 208.627 315.638 207.579 315.638C206.532 315.638 205.519 315.842 204.56 316.247C204.328 316.345 204.104 316.451 203.886 316.57C203.706 315.186 202.523 314.115 201.091 314.115H200.394C200.081 314.115 199.83 314.366 199.83 314.679V316.447V321.167V323.242C199.83 323.293 199.826 323.344 199.826 323.395C199.826 323.446 199.826 323.497 199.83 323.548C199.85 324.541 200.054 325.503 200.438 326.414C200.829 327.339 201.387 328.169 202.098 328.88C202.489 329.271 202.914 329.614 203.373 329.91C203.75 330.155 204.145 330.366 204.563 330.539C205.519 330.944 206.535 331.148 207.583 331.148C208.63 331.148 209.644 330.944 210.603 330.539C211.527 330.148 212.354 329.59 213.068 328.876C213.779 328.166 214.34 327.336 214.727 326.411C215.132 325.452 215.336 324.439 215.336 323.391C215.336 322.344 215.129 321.33 214.724 320.375ZM207.579 327.122C205.532 327.122 203.873 325.462 203.873 323.415C203.873 321.368 205.532 319.708 207.579 319.708C209.627 319.708 211.286 321.368 211.286 323.415C211.286 325.462 209.627 327.122 207.579 327.122Z" fill="url(#paint3_linear_931:15043)"/>
<path d="M203.917 326.237V328.393V329.199C203.917 329.536 203.689 329.822 203.38 329.91C203.38 329.91 203.38 329.91 203.383 329.91C203.696 329.825 203.924 329.539 203.924 329.199V328.393V326.237V324.01C203.921 323.996 203.921 323.979 203.917 323.966V326.237Z" fill="url(#paint4_linear_931:15043)"/>
<path d="M211.151 324.41C210.716 325.974 209.284 327.12 207.58 327.12C205.737 327.12 204.207 325.774 203.921 324.009V326.236V328.392V329.198C203.921 329.538 203.694 329.824 203.381 329.909C203.381 329.909 203.381 329.909 203.377 329.909C203.687 329.82 203.915 329.538 203.915 329.198V328.392V326.236V323.964C203.887 323.784 203.874 323.604 203.874 323.417C203.874 323.23 203.887 323.046 203.915 322.869V320.554V320.547V319.17V318.391V316.932C203.915 316.81 203.908 316.687 203.891 316.565C203.887 316.565 203.887 316.568 203.884 316.568C203.704 315.184 202.52 314.113 201.089 314.113H200.388C200.33 314.113 200.276 314.123 200.222 314.137C199.994 314.208 199.831 314.422 199.831 314.674V314.678V316.442V316.446V316.582C199.831 316.575 199.831 316.572 199.827 316.565L199.831 317.078V321.162V321.166V323.237C199.831 323.288 199.827 323.339 199.827 323.39C199.827 323.441 199.827 323.492 199.831 323.543C199.851 324.536 200.055 325.498 200.439 326.409C200.83 327.334 201.388 328.164 202.102 328.875C202.493 329.266 202.918 329.609 203.377 329.905C203.755 330.15 204.149 330.361 204.568 330.534C205.526 330.939 206.54 331.143 207.587 331.143C208.635 331.143 209.651 330.939 210.607 330.534C211.532 330.143 212.362 329.586 213.072 328.871C213.783 328.157 214.344 327.331 214.735 326.406L211.151 324.41Z" fill="url(#paint5_linear_931:15043)"/>
<path d="M297.348 41.628L299.239 39.4924C299.257 39.47 299.279 39.452 299.305 39.4395C299.331 39.4271 299.359 39.4207 299.388 39.4207C299.417 39.4207 299.445 39.4271 299.471 39.4395C299.496 39.452 299.519 39.47 299.537 39.4924L301.044 41.628" fill="#F2BC0F"/>
<path d="M291.958 41.6281L293.465 39.4917C293.483 39.4693 293.505 39.4512 293.531 39.4388C293.557 39.4264 293.585 39.4199 293.614 39.4199C293.643 39.4199 293.671 39.4264 293.697 39.4388C293.723 39.4512 293.745 39.4693 293.763 39.4917L295.654 41.6272" fill="#F2BC0F"/>
<path d="M301.202 39.6876L299.262 41.2233L296.647 38.0625C296.629 38.041 296.607 38.0237 296.581 38.0119C296.556 38 296.528 37.9939 296.501 37.9939C296.473 37.9939 296.445 38 296.42 38.0119C296.394 38.0237 296.372 38.041 296.354 38.0625L293.738 41.2233L291.798 39.6876C291.769 39.6645 291.734 39.6504 291.697 39.6471C291.66 39.6438 291.623 39.6515 291.59 39.6691C291.557 39.6867 291.53 39.7136 291.512 39.7463C291.495 39.7791 291.487 39.8163 291.49 39.8534L291.914 44.7656C291.918 44.8127 291.94 44.8564 291.975 44.8882C292.011 44.9199 292.056 44.9375 292.104 44.9375H300.897C300.944 44.9375 300.99 44.9199 301.025 44.8882C301.06 44.8564 301.082 44.8127 301.087 44.7656L301.51 39.8552C301.514 39.8179 301.506 39.7804 301.489 39.7474C301.471 39.7144 301.444 39.6872 301.411 39.6694C301.379 39.6515 301.341 39.6437 301.304 39.6469C301.267 39.6502 301.231 39.6643 301.202 39.6876Z" fill="#F8DC25"/>
<g opacity="0.5">
<path opacity="0.5" d="M300.96 41.9692C300 43.7945 298.591 44.3187 297.076 44.5714L293.738 44.9375H300.896C300.944 44.9375 300.989 44.9199 301.024 44.8882C301.06 44.8564 301.082 44.8127 301.086 44.7656L301.412 40.9844L300.96 41.9692Z" fill="#F2BC0F"/>
</g>
<path opacity="0.4" d="M291.798 39.6877C291.769 39.6646 291.734 39.6505 291.697 39.6472C291.66 39.6439 291.623 39.6516 291.59 39.6692C291.557 39.6869 291.53 39.7137 291.512 39.7465C291.495 39.7792 291.487 39.8164 291.49 39.8536L291.914 44.7657C291.792 43.1317 291.826 41.4897 292.016 39.8621L291.798 39.6877Z" fill="white"/>
<path d="M299.092 40.9895L299.225 40.6939C299.23 40.6836 299.237 40.6748 299.247 40.6686C299.256 40.6625 299.267 40.6592 299.278 40.6592C299.289 40.6592 299.3 40.6625 299.31 40.6686C299.319 40.6748 299.327 40.6836 299.331 40.6939L299.464 40.9895L299.76 41.1227C299.77 41.1272 299.779 41.1346 299.785 41.144C299.791 41.1534 299.795 41.1644 299.795 41.1756C299.795 41.1868 299.791 41.1978 299.785 41.2072C299.779 41.2166 299.77 41.224 299.76 41.2284L299.464 41.3616L299.331 41.6573C299.327 41.6676 299.319 41.6764 299.31 41.6825C299.3 41.6887 299.289 41.692 299.278 41.692C299.267 41.692 299.256 41.6887 299.247 41.6825C299.237 41.6764 299.23 41.6676 299.225 41.6573L299.092 41.3616L298.796 41.2284C298.786 41.224 298.777 41.2166 298.771 41.2072C298.765 41.1978 298.762 41.1868 298.762 41.1756C298.762 41.1644 298.765 41.1534 298.771 41.144C298.777 41.1346 298.786 41.1272 298.796 41.1227L299.092 40.9895Z" fill="white"/>
<path d="M295.452 41.3926V43.0125L296.5 43.6106L297.541 43.0134L297.547 41.3926L296.5 40.7876L295.452 41.3926Z" fill="#F85565"/>
<path opacity="0.15" d="M295.833 41.6864V42.7176L296.5 43.1155L297.167 42.7322V41.6864L296.5 41.3022L295.833 41.6864Z" fill="white"/>
<path opacity="0.2" d="M297.542 43.0134L297.167 42.7324L296.5 43.1157V43.6107L297.542 43.0134Z" fill="#393C54"/>
<path opacity="0.3" d="M296.5 40.7876V41.3024L295.833 41.6865L295.452 41.3926L296.5 40.7876Z" fill="white"/>
<defs>
<linearGradient id="paint0_linear_931:15043" x1="199.744" y1="324.44" x2="214.299" y2="319.079" gradientUnits="userSpaceOnUse">
<stop offset="0.3232" stop-color="#001AFF"/>
<stop offset="0.7076" stop-color="#007AFF"/>
</linearGradient>
<linearGradient id="paint1_linear_931:15043" x1="203.416" y1="327.037" x2="204.722" y2="326.529" gradientUnits="userSpaceOnUse">
<stop stop-color="#FF2D55"/>
<stop offset="0.9351" stop-color="#FF3B30" stop-opacity="0.5"/>
</linearGradient>
<linearGradient id="paint2_linear_931:15043" x1="200.211" y1="324.511" x2="213.971" y2="318.783" gradientUnits="userSpaceOnUse">
<stop stop-color="#21AFFF"/>
<stop offset="0.572307" stop-color="#007AFF"/>
</linearGradient>
<linearGradient id="paint3_linear_931:15043" x1="199.744" y1="324.434" x2="214.299" y2="319.073" gradientUnits="userSpaceOnUse">
<stop offset="0.3232" stop-color="#001AFF"/>
<stop offset="0.7076" stop-color="#007AFF"/>
</linearGradient>
<linearGradient id="paint4_linear_931:15043" x1="203.416" y1="327.031" x2="204.722" y2="326.522" gradientUnits="userSpaceOnUse">
<stop stop-color="#FF2D55"/>
<stop offset="0.9351" stop-color="#FF3B30" stop-opacity="0.5"/>
</linearGradient>
<linearGradient id="paint5_linear_931:15043" x1="200.211" y1="324.505" x2="213.971" y2="318.777" gradientUnits="userSpaceOnUse">
<stop stop-color="#21AFFF"/>
<stop offset="0.572307" stop-color="#007AFF"/>
</linearGradient>
</defs>
</svg>
