<svg width="321" height="299" viewBox="0 0 321 299" fill="none" xmlns="http://www.w3.org/2000/svg">
<rect width="50" height="30" transform="translate(35 240.994) rotate(-90)" fill="#C7C7CC"/>
<rect width="70" height="30" transform="translate(67 240.994) rotate(-90)" fill="#C7C7CC"/>
<rect x="67" y="240.994" width="70" height="30" transform="rotate(-90 67 240.994)" fill="#C7C7CC"/>
<rect width="90" height="30" transform="translate(99 240.994) rotate(-90)" fill="#C7C7CC"/>
<rect x="99" y="240.994" width="90" height="30" transform="rotate(-90 99 240.994)" fill="#C7C7CC"/>
<path d="M117.344 230.604H115.974L113.954 233.304C113.494 233.924 113.074 234.714 113.074 235.504C113.074 237.074 114.044 238.074 115.574 238.074C117.004 238.074 118.154 237.064 118.154 235.624C118.154 234.344 117.304 233.414 115.964 233.414C115.574 233.414 115.184 233.514 114.844 233.704L117.344 230.604ZM115.554 237.164C114.634 237.164 114.134 236.544 114.134 235.684C114.134 234.864 114.754 234.254 115.594 234.254C116.474 234.254 117.054 234.824 117.054 235.704C117.054 236.574 116.384 237.164 115.554 237.164ZM126.641 232.414H125.361V229.724H124.331V236.344H125.361V233.264H126.641V232.414ZM122.851 234.774V230.504H118.621V234.774H122.851ZM121.841 231.334V233.944H119.641V231.334H121.841ZM120.681 237.754V235.704H119.641V238.594H125.721V237.754H120.681Z" fill="#F2F2F2"/>
<rect width="110" height="30" transform="translate(131 240.994) rotate(-90)" fill="#C7C7CC"/>
<path d="M139.967 233.034L141.167 232.024C141.157 232.194 141.157 232.364 141.157 232.524L141.157 237.034H139.617V237.994L143.647 237.994V237.034H142.257L142.257 230.584L141.357 230.584L139.357 232.294L139.967 233.034ZM149.064 237.994V237.014H146.504C146.184 237.014 145.854 237.074 145.544 237.154L147.424 235.254C148.164 234.514 148.934 233.724 148.934 232.604C148.934 231.264 147.914 230.524 146.674 230.524C145.304 230.524 144.384 231.314 144.194 232.634L145.294 232.834C145.234 232.044 145.824 231.464 146.614 231.464C148.034 231.464 147.974 232.864 147.474 233.764C147.214 234.174 146.894 234.514 146.554 234.854L144.064 237.354V237.994L149.064 237.994ZM157.641 232.414H156.361L156.361 229.724H155.331L155.331 236.344H156.361L156.361 233.264H157.641V232.414ZM153.851 234.774L153.851 230.504L149.621 230.504L149.621 234.774L153.851 234.774ZM152.841 231.334V233.944H150.641V231.334H152.841ZM151.681 237.754V235.704H150.641V238.594L156.721 238.594V237.754L151.681 237.754Z" fill="#F2F2F2"/>
<rect x="195" y="240.994" width="150" height="30" transform="rotate(-90 195 240.994)" fill="#C7C7CC"/>
<path d="M208.857 237.994V237.014L206.297 237.014C205.977 237.014 205.647 237.074 205.337 237.154L207.217 235.254C207.957 234.514 208.727 233.724 208.727 232.604C208.727 231.264 207.707 230.524 206.467 230.524C205.097 230.524 204.177 231.314 203.987 232.634L205.087 232.834C205.027 232.044 205.617 231.464 206.407 231.464C207.827 231.464 207.767 232.864 207.267 233.764C207.007 234.174 206.687 234.514 206.347 234.854L203.857 237.354V237.994L208.857 237.994ZM210.174 233.034L211.374 232.024C211.364 232.194 211.364 232.364 211.364 232.524L211.364 237.034L209.824 237.034V237.994L213.854 237.994V237.034H212.464L212.464 230.584L211.564 230.584L209.564 232.294L210.174 233.034ZM222.641 232.414L221.361 232.414L221.361 229.724H220.331L220.331 236.344H221.361L221.361 233.264L222.641 233.264V232.414ZM218.851 234.774L218.851 230.504L214.621 230.504L214.621 234.774L218.851 234.774ZM217.841 231.334L217.841 233.944L215.641 233.944L215.641 231.334L217.841 231.334ZM216.681 237.754L216.681 235.704L215.641 235.704L215.641 238.594L221.721 238.594L221.721 237.754L216.681 237.754Z" fill="#F2F2F2"/>
<rect x="227" y="240.994" width="170" height="30" transform="rotate(-90 227 240.994)" fill="#C7C7CC"/>
<path d="M240.857 237.994L240.857 237.014L238.297 237.014C237.977 237.014 237.647 237.074 237.337 237.154L239.217 235.254C239.957 234.514 240.727 233.724 240.727 232.604C240.727 231.264 239.707 230.524 238.467 230.524C237.097 230.524 236.177 231.314 235.987 232.634L237.087 232.834C237.027 232.044 237.617 231.464 238.407 231.464C239.827 231.464 239.767 232.864 239.267 233.764C239.007 234.174 238.687 234.514 238.347 234.854L235.857 237.354L235.857 237.994L240.857 237.994ZM245.344 230.604L243.974 230.604L241.954 233.304C241.494 233.924 241.074 234.714 241.074 235.504C241.074 237.074 242.044 238.074 243.574 238.074C245.004 238.074 246.154 237.064 246.154 235.624C246.154 234.344 245.304 233.414 243.964 233.414C243.574 233.414 243.184 233.514 242.844 233.704L245.344 230.604ZM243.554 237.164C242.634 237.164 242.134 236.544 242.134 235.684C242.134 234.864 242.754 234.254 243.594 234.254C244.474 234.254 245.054 234.824 245.054 235.704C245.054 236.574 244.384 237.164 243.554 237.164ZM254.641 232.414L253.361 232.414L253.361 229.724H252.331L252.331 236.344H253.361L253.361 233.264L254.641 233.264L254.641 232.414ZM250.851 234.774L250.851 230.504L246.621 230.504L246.621 234.774L250.851 234.774ZM249.841 231.334L249.841 233.944L247.641 233.944L247.641 231.334L249.841 231.334ZM248.681 237.754L248.681 235.704H247.641L247.641 238.594L253.721 238.594V237.754L248.681 237.754Z" fill="#F2F2F2"/>
<rect width="190" height="30" transform="translate(259 240.994) rotate(-90)" fill="#FF3B30"/>
<rect x="259" y="240.994" width="190" height="30" transform="rotate(-90 259 240.994)" fill="#FF3B30"/>
<rect x="291" y="240.994" width="210" height="30" transform="rotate(-90 291 240.994)" fill="#C7C7CC"/>
<rect width="130" height="30" transform="translate(163 240.994) rotate(-90)" fill="#C7C7CC"/>
<path d="M42.5619 236.45L41.9919 237.25C42.1119 237.36 42.2419 237.46 42.4019 237.56C42.8719 237.91 43.5319 238.08 44.1019 238.08C45.6819 238.08 46.8119 237.03 46.8119 235.47C46.8119 234.01 45.7919 233.23 44.4419 233.23C44.1219 233.23 43.7819 233.27 43.4619 233.34L43.7619 231.62H46.5719V230.61H42.9919L42.3919 234.14L43.0719 234.33C43.4419 234.22 43.8219 234.14 44.2119 234.14C45.1319 234.14 45.7119 234.62 45.7119 235.53C45.7119 236.44 45.1419 237.14 44.1719 237.14C43.5819 237.14 42.9819 236.85 42.5619 236.45ZM52.2989 234.31C52.2989 232.61 51.6889 230.53 49.5989 230.53C47.5389 230.53 46.9089 232.55 46.9089 234.31C46.9089 236.07 47.5389 238.08 49.5989 238.08C51.6589 238.08 52.2989 236.07 52.2989 234.31ZM51.1589 234.31C51.1589 235.34 50.9789 237.16 49.5989 237.16C48.2289 237.16 48.0389 235.34 48.0389 234.31C48.0389 233.28 48.2189 231.46 49.5989 231.46C50.9789 231.46 51.1589 233.28 51.1589 234.31ZM57.5059 234.31C57.5059 232.61 56.8959 230.53 54.8059 230.53C52.7459 230.53 52.1159 232.55 52.1159 234.31C52.1159 236.07 52.7459 238.08 54.8059 238.08C56.8659 238.08 57.5059 236.07 57.5059 234.31ZM56.3659 234.31C56.3659 235.34 56.1859 237.16 54.8059 237.16C53.4359 237.16 53.2459 235.34 53.2459 234.31C53.2459 233.28 53.4259 231.46 54.8059 231.46C56.1859 231.46 56.3659 233.28 56.3659 234.31ZM62.713 234.31C62.713 232.61 62.103 230.53 60.013 230.53C57.953 230.53 57.323 232.55 57.323 234.31C57.323 236.07 57.953 238.08 60.013 238.08C62.073 238.08 62.713 236.07 62.713 234.31ZM61.573 234.31C61.573 235.34 61.393 237.16 60.013 237.16C58.643 237.16 58.453 235.34 58.453 234.31C58.453 233.28 58.633 231.46 60.013 231.46C61.393 231.46 61.573 233.28 61.573 234.31Z" fill="white"/>
<path d="M82.0238 235.74L81.0538 236.14C81.4538 237.48 82.2438 238.09 83.5938 238.09C84.9638 238.09 86.0938 237.26 86.0938 235.85C86.0938 234.92 85.5938 234.36 84.7138 234.11C85.5638 233.84 85.9338 233.28 85.9338 232.43C85.9338 231.18 84.8638 230.53 83.7438 230.53C82.3738 230.53 81.4638 231.34 81.2738 232.65L82.3638 232.84C82.3038 232.05 82.9238 231.47 83.6838 231.47C84.4138 231.47 84.8638 231.91 84.8638 232.62C84.8638 233.6 84.0338 233.82 83.2038 233.82V234.62C84.1038 234.62 84.9938 234.75 84.9938 235.88C84.9938 236.65 84.3338 237.15 83.5838 237.15C82.8238 237.15 82.1138 236.5 82.0238 235.74ZM94.6408 232.42H93.3608V229.73H92.3308V236.35H93.3608V233.27H94.6408V232.42ZM90.8508 234.78V230.51H86.6208V234.78H90.8508ZM89.8408 231.34V233.95H87.6408V231.34H89.8408ZM88.6808 237.76V235.71H87.6408V238.6H93.7208V237.76H88.6808Z" fill="#F2F2F2"/>
<path d="M172.58 233.04L173.78 232.03C173.77 232.2 173.77 232.37 173.77 232.53V237.04H172.23V238H176.26V237.04H174.87V230.59H173.97L171.97 232.3L172.58 233.04ZM180.707 230.61H179.337L177.317 233.31C176.857 233.93 176.437 234.72 176.437 235.51C176.437 237.08 177.407 238.08 178.937 238.08C180.367 238.08 181.517 237.07 181.517 235.63C181.517 234.35 180.667 233.42 179.327 233.42C178.937 233.42 178.547 233.52 178.207 233.71L180.707 230.61ZM178.917 237.17C177.997 237.17 177.497 236.55 177.497 235.69C177.497 234.87 178.117 234.26 178.957 234.26C179.837 234.26 180.417 234.83 180.417 235.71C180.417 236.58 179.747 237.17 178.917 237.17ZM189.754 232.42H188.474V229.73H187.444V236.35H188.474V233.27H189.754V232.42ZM185.964 234.78V230.51H181.734V234.78H185.964ZM184.954 231.34V233.95H182.754V231.34H184.954ZM183.794 237.76V235.71H182.754V238.6H188.834V237.76H183.794Z" fill="#F2F2F2"/>
<path d="M270.43 235.74L269.46 236.14C269.86 237.48 270.65 238.09 272 238.09C273.37 238.09 274.5 237.26 274.5 235.85C274.5 234.92 274 234.36 273.12 234.11C273.97 233.84 274.34 233.28 274.34 232.43C274.34 231.18 273.27 230.53 272.15 230.53C270.78 230.53 269.87 231.34 269.68 232.65L270.77 232.84C270.71 232.05 271.33 231.47 272.09 231.47C272.82 231.47 273.27 231.91 273.27 232.62C273.27 233.6 272.44 233.82 271.61 233.82V234.62C272.51 234.62 273.4 234.75 273.4 235.88C273.4 236.65 272.74 237.15 271.99 237.15C271.23 237.15 270.52 236.5 270.43 235.74ZM279.877 234.31C279.877 232.61 279.267 230.53 277.177 230.53C275.117 230.53 274.487 232.55 274.487 234.31C274.487 236.07 275.117 238.08 277.177 238.08C279.237 238.08 279.877 236.07 279.877 234.31ZM278.737 234.31C278.737 235.34 278.557 237.16 277.177 237.16C275.807 237.16 275.617 235.34 275.617 234.31C275.617 233.28 275.797 231.46 277.177 231.46C278.557 231.46 278.737 233.28 278.737 234.31ZM288.254 232.42H286.974V229.73H285.944V236.35H286.974V233.27H288.254V232.42ZM284.464 234.78V230.51H280.234V234.78H284.464ZM283.454 231.34V233.95H281.254V231.34H283.454ZM282.294 237.76V235.71H281.254V238.6H287.334V237.76H282.294Z" fill="#F2F2F2"/>
<path d="M292.859 17.663H295.62V22.58H292.859V17.663ZM291.979 23.306H296.5V16.937H291.979V23.306ZM300.801 19.885H299.173V15.958H298.271V25.814H299.173V20.644H300.801V19.885ZM309.455 20.908C307.728 20.578 305.858 19.082 305.858 17.399V16.64H304.912V17.399C304.912 19.082 303.053 20.567 301.326 20.908L301.733 21.656C303.218 21.304 304.758 20.248 305.385 18.807C306.012 20.259 307.552 21.315 309.048 21.656L309.455 20.908ZM300.952 23.746V24.494H309.895V23.746H300.952ZM311.674 20.347H314.908V19.621H311.674V17.586H315.337V16.838H310.772V23.449H311.531C313.412 23.449 314.611 23.394 316.041 23.141L315.942 22.404C314.6 22.646 313.456 22.712 311.674 22.712V20.347ZM317.548 15.936V19.665H315.513V20.413H317.548V25.825H318.45V15.936H317.548Z" fill="#8E8E93"/>
<path d="M226.944 64.1567H230.65V65H225.908V57.1797H226.944V64.1567ZM232.119 63.6519L233.558 59.1885H234.573L232.489 65H231.732L229.626 59.1885H230.642L232.119 63.6519ZM234.221 64.479C234.221 64.3071 234.271 64.1639 234.371 64.0493C234.475 63.9347 234.629 63.8774 234.833 63.8774C235.037 63.8774 235.191 63.9347 235.295 64.0493C235.402 64.1639 235.456 64.3071 235.456 64.479C235.456 64.6437 235.402 64.7816 235.295 64.8926C235.191 65.0036 235.037 65.0591 234.833 65.0591C234.629 65.0591 234.475 65.0036 234.371 64.8926C234.271 64.7816 234.221 64.6437 234.221 64.479ZM241.296 57.7383L238.058 65H237.016L240.244 57.9961H236.011V57.1797H241.296V57.7383Z" fill="#8E8E93"/>
<path d="M260.944 44.1567H264.65V45H259.908V37.1797H260.944V44.1567ZM266.119 43.6519L267.558 39.1885H268.573L266.489 45H265.732L263.626 39.1885H264.642L266.119 43.6519ZM268.221 44.479C268.221 44.3071 268.271 44.1639 268.371 44.0493C268.475 43.9347 268.629 43.8774 268.833 43.8774C269.037 43.8774 269.191 43.9347 269.295 44.0493C269.402 44.1639 269.456 44.3071 269.456 44.479C269.456 44.6437 269.402 44.7816 269.295 44.8926C269.191 45.0036 269.037 45.0591 268.833 45.0591C268.629 45.0591 268.475 45.0036 268.371 44.8926C268.271 44.7816 268.221 44.6437 268.221 44.479ZM274.99 39.2207C274.99 39.611 274.886 39.9583 274.679 40.2627C274.475 40.5671 274.197 40.8052 273.846 40.9771C274.254 41.1525 274.577 41.4085 274.813 41.7451C275.053 42.0817 275.173 42.4631 275.173 42.8892C275.173 43.5659 274.944 44.1048 274.485 44.5059C274.031 44.9069 273.431 45.1074 272.686 45.1074C271.934 45.1074 271.331 44.9069 270.876 44.5059C270.425 44.1012 270.199 43.5623 270.199 42.8892C270.199 42.4666 270.314 42.0853 270.543 41.7451C270.776 41.4049 271.096 41.1471 271.504 40.9717C271.157 40.7998 270.883 40.5617 270.683 40.2573C270.482 39.953 270.382 39.6074 270.382 39.2207C270.382 38.5618 270.593 38.0391 271.016 37.6523C271.438 37.2656 271.995 37.0723 272.686 37.0723C273.374 37.0723 273.929 37.2656 274.351 37.6523C274.777 38.0391 274.99 38.5618 274.99 39.2207ZM274.179 42.8677C274.179 42.4308 274.04 42.0745 273.76 41.7988C273.485 41.5231 273.123 41.3853 272.675 41.3853C272.228 41.3853 271.868 41.5213 271.596 41.7935C271.327 42.0656 271.193 42.4237 271.193 42.8677C271.193 43.3117 271.324 43.6608 271.585 43.915C271.85 44.1693 272.217 44.2964 272.686 44.2964C273.152 44.2964 273.517 44.1693 273.782 43.915C274.047 43.6572 274.179 43.3081 274.179 42.8677ZM272.686 37.8887C272.296 37.8887 271.979 38.0104 271.735 38.2539C271.495 38.4938 271.375 38.8215 271.375 39.2368C271.375 39.6343 271.494 39.9565 271.73 40.2036C271.97 40.4471 272.289 40.5688 272.686 40.5688C273.083 40.5688 273.4 40.4471 273.637 40.2036C273.877 39.9565 273.997 39.6343 273.997 39.2368C273.997 38.8394 273.873 38.5153 273.626 38.2646C273.379 38.014 273.066 37.8887 272.686 37.8887Z" fill="#8E8E93"/>
<path d="M196.944 84.1567H200.65V85H195.908V77.1797H196.944V84.1567ZM202.119 83.6519L203.558 79.1885H204.573L202.489 85H201.732L199.626 79.1885H200.642L202.119 83.6519ZM204.221 84.479C204.221 84.3071 204.271 84.1639 204.371 84.0493C204.475 83.9347 204.629 83.8774 204.833 83.8774C205.037 83.8774 205.191 83.9347 205.295 84.0493C205.402 84.1639 205.456 84.3071 205.456 84.479C205.456 84.6437 205.402 84.7816 205.295 84.8926C205.191 85.0036 205.037 85.0591 204.833 85.0591C204.629 85.0591 204.475 85.0036 204.371 84.8926C204.271 84.7816 204.221 84.6437 204.221 84.479ZM210.147 77.1743V78.0176H209.964C209.191 78.0319 208.575 78.2611 208.117 78.7051C207.658 79.1491 207.393 79.7739 207.322 80.5796C207.734 80.1069 208.296 79.8706 209.008 79.8706C209.689 79.8706 210.231 80.1105 210.636 80.5903C211.044 81.0701 211.248 81.6896 211.248 82.4487C211.248 83.2544 211.028 83.8989 210.587 84.3823C210.151 84.8657 209.563 85.1074 208.826 85.1074C208.077 85.1074 207.47 84.821 207.005 84.248C206.539 83.6715 206.307 82.9303 206.307 82.0244V81.6431C206.307 80.2036 206.613 79.1043 207.225 78.3452C207.841 77.5825 208.756 77.1922 209.97 77.1743H210.147ZM208.842 80.6978C208.502 80.6978 208.188 80.7998 207.902 81.0039C207.615 81.208 207.417 81.464 207.306 81.772V82.1372C207.306 82.7817 207.451 83.3009 207.741 83.6948C208.031 84.0887 208.392 84.2856 208.826 84.2856C209.273 84.2856 209.624 84.1209 209.878 83.7915C210.136 83.4621 210.265 83.0306 210.265 82.4971C210.265 81.96 210.134 81.5267 209.873 81.1973C209.615 80.8643 209.271 80.6978 208.842 80.6978Z" fill="#8E8E93"/>
<path d="M164.944 106.157H168.65V107H163.908V99.1797H164.944V106.157ZM170.119 105.652L171.558 101.188H172.573L170.489 107H169.732L167.626 101.188H168.642L170.119 105.652ZM172.221 106.479C172.221 106.307 172.271 106.164 172.371 106.049C172.475 105.935 172.629 105.877 172.833 105.877C173.037 105.877 173.191 105.935 173.295 106.049C173.402 106.164 173.456 106.307 173.456 106.479C173.456 106.644 173.402 106.782 173.295 106.893C173.191 107.004 173.037 107.059 172.833 107.059C172.629 107.059 172.475 107.004 172.371 106.893C172.271 106.782 172.221 106.644 172.221 106.479ZM174.704 103.079L175.102 99.1797H179.108V100.098H175.945L175.708 102.23C176.092 102.005 176.527 101.892 177.014 101.892C177.726 101.892 178.292 102.128 178.711 102.601C179.13 103.07 179.339 103.706 179.339 104.508C179.339 105.313 179.121 105.949 178.684 106.415C178.251 106.876 177.644 107.107 176.863 107.107C176.172 107.107 175.608 106.916 175.171 106.533C174.735 106.15 174.486 105.62 174.425 104.943H175.365C175.426 105.39 175.585 105.729 175.843 105.958C176.101 106.184 176.441 106.296 176.863 106.296C177.325 106.296 177.687 106.139 177.948 105.824C178.213 105.509 178.346 105.074 178.346 104.519C178.346 103.996 178.202 103.577 177.916 103.262C177.633 102.943 177.255 102.784 176.783 102.784C176.349 102.784 176.009 102.879 175.762 103.068L175.499 103.283L174.704 103.079Z" fill="#8E8E93"/>
<path d="M132.944 123.157H136.65V124H131.908V116.18H132.944V123.157ZM138.119 122.652L139.558 118.188H140.573L138.489 124H137.732L135.626 118.188H136.642L138.119 122.652ZM140.221 123.479C140.221 123.307 140.271 123.164 140.371 123.049C140.475 122.935 140.629 122.877 140.833 122.877C141.037 122.877 141.191 122.935 141.295 123.049C141.402 123.164 141.456 123.307 141.456 123.479C141.456 123.644 141.402 123.782 141.295 123.893C141.191 124.004 141.037 124.059 140.833 124.059C140.629 124.059 140.475 124.004 140.371 123.893C140.271 123.782 140.221 123.644 140.221 123.479ZM146.442 121.374H147.527V122.185H146.442V124H145.443V122.185H141.882V121.599L145.384 116.18H146.442V121.374ZM143.01 121.374H145.443V117.539L145.325 117.753L143.01 121.374Z" fill="#8E8E93"/>
<path d="M100.944 143.157H104.65V144H99.9077V136.18H100.944V143.157ZM106.119 142.652L107.558 138.188H108.573L106.489 144H105.732L103.626 138.188H104.642L106.119 142.652ZM108.221 143.479C108.221 143.307 108.271 143.164 108.371 143.049C108.475 142.935 108.629 142.877 108.833 142.877C109.037 142.877 109.191 142.935 109.295 143.049C109.402 143.164 109.456 143.307 109.456 143.479C109.456 143.644 109.402 143.782 109.295 143.893C109.191 144.004 109.037 144.059 108.833 144.059C108.629 144.059 108.475 144.004 108.371 143.893C108.271 143.782 108.221 143.644 108.221 143.479ZM111.692 139.606H112.439C112.908 139.599 113.277 139.476 113.545 139.236C113.814 138.996 113.948 138.672 113.948 138.264C113.948 137.347 113.492 136.889 112.579 136.889C112.149 136.889 111.805 137.012 111.547 137.259C111.293 137.503 111.166 137.827 111.166 138.231H110.172C110.172 137.612 110.398 137.098 110.849 136.69C111.304 136.278 111.88 136.072 112.579 136.072C113.316 136.072 113.895 136.267 114.313 136.658C114.732 137.048 114.942 137.59 114.942 138.285C114.942 138.625 114.831 138.955 114.609 139.273C114.39 139.592 114.091 139.83 113.712 139.988C114.142 140.124 114.473 140.349 114.706 140.665C114.942 140.98 115.06 141.365 115.06 141.819C115.06 142.521 114.831 143.078 114.373 143.49C113.914 143.902 113.318 144.107 112.584 144.107C111.85 144.107 111.252 143.909 110.79 143.511C110.332 143.114 110.103 142.589 110.103 141.938H111.102C111.102 142.349 111.236 142.679 111.504 142.926C111.773 143.173 112.133 143.296 112.584 143.296C113.064 143.296 113.431 143.171 113.685 142.92C113.939 142.67 114.066 142.31 114.066 141.841C114.066 141.386 113.927 141.037 113.647 140.793C113.368 140.55 112.965 140.425 112.439 140.417H111.692V139.606Z" fill="#8E8E93"/>
<path d="M68.9443 164.157H72.6504V165H67.9077V157.18H68.9443V164.157ZM74.1187 163.652L75.5581 159.188H76.5732L74.4893 165H73.7319L71.6265 159.188H72.6416L74.1187 163.652ZM76.2207 164.479C76.2207 164.307 76.2708 164.164 76.3711 164.049C76.4749 163.935 76.6289 163.877 76.833 163.877C77.0371 163.877 77.1911 163.935 77.2949 164.049C77.4023 164.164 77.4561 164.307 77.4561 164.479C77.4561 164.644 77.4023 164.782 77.2949 164.893C77.1911 165.004 77.0371 165.059 76.833 165.059C76.6289 165.059 76.4749 165.004 76.3711 164.893C76.2708 164.782 76.2207 164.644 76.2207 164.479ZM83.3716 165H78.2476V164.286L80.9546 161.278C81.3556 160.823 81.6313 160.454 81.7817 160.171C81.9357 159.885 82.0127 159.59 82.0127 159.285C82.0127 158.877 81.8892 158.542 81.6421 158.281C81.395 158.019 81.0656 157.889 80.6538 157.889C80.1597 157.889 79.7747 158.03 79.499 158.313C79.2269 158.592 79.0908 158.983 79.0908 159.484H78.0972C78.0972 158.764 78.3281 158.182 78.79 157.738C79.2555 157.294 79.8768 157.072 80.6538 157.072C81.3807 157.072 81.9554 157.264 82.3779 157.647C82.8005 158.027 83.0117 158.533 83.0117 159.167C83.0117 159.937 82.5212 160.854 81.54 161.917L79.4453 164.189H83.3716V165Z" fill="#8E8E93"/>
<path d="M37.9443 185.157H41.6504V186H36.9077V178.18H37.9443V185.157ZM43.1187 184.652L44.5581 180.188H45.5732L43.4893 186H42.7319L40.6265 180.188H41.6416L43.1187 184.652ZM45.2207 185.479C45.2207 185.307 45.2708 185.164 45.3711 185.049C45.4749 184.935 45.6289 184.877 45.833 184.877C46.0371 184.877 46.1911 184.935 46.2949 185.049C46.4023 185.164 46.4561 185.307 46.4561 185.479C46.4561 185.644 46.4023 185.782 46.2949 185.893C46.1911 186.004 46.0371 186.059 45.833 186.059C45.6289 186.059 45.4749 186.004 45.3711 185.893C45.2708 185.782 45.2207 185.644 45.2207 185.479ZM50.5132 186H49.5142V179.377L47.5107 180.113V179.211L50.3574 178.142H50.5132V186Z" fill="#8E8E93"/>
<path d="M3.861 236.613H1.793V234.006H3.861V236.613ZM3.861 233.291H1.793V230.882H0.935V237.339H4.708V230.882H3.861V233.291ZM8.107 229.947V233.852H6.776V230.167H5.929V239.33H6.776V234.589H8.107V239.814H8.965V229.947H8.107ZM15.6721 233.951C14.3741 234.226 13.2411 234.292 11.2831 234.292V231.432H14.7481V230.706H10.3921V235.029H11.1621C13.2411 235.029 14.4181 234.963 15.7711 234.688L15.6721 233.951ZM14.4731 239.077C13.0101 239.077 12.1081 238.637 12.1081 237.911C12.1081 237.185 13.0101 236.745 14.4731 236.745C15.9251 236.745 16.8271 237.185 16.8271 237.911C16.8271 238.637 15.9251 239.077 14.4731 239.077ZM14.4731 236.019C12.4711 236.019 11.2171 236.723 11.2171 237.911C11.2171 239.099 12.4711 239.803 14.4731 239.803C16.4641 239.803 17.7181 239.099 17.7181 237.911C17.7181 236.723 16.4641 236.019 14.4731 236.019ZM17.6191 232.51V229.947H16.7061V235.821H17.6191V233.258H19.0711V232.51H17.6191ZM21.3013 236.899H26.2623V238.956H21.3013V236.899ZM20.4213 239.682H27.1533V236.173H20.4213V239.682ZM26.8563 234.105C27.1203 232.873 27.1203 231.971 27.1203 231.201V230.475H20.4543V231.201H26.2293C26.2293 231.971 26.2293 232.873 25.9433 234.105H19.3103V234.831H28.2753V234.105H26.8563Z" fill="#8E8E93"/>
<path d="M273.5 28L278.263 19.75L268.737 19.75L273.5 28Z" fill="#FF3B30"/>
<path d="M260.79 3.86H259.97V9.41H260.54C261.51 9.41 262.54 9.36 263.75 9.13L263.67 8.42C262.6 8.63 261.65 8.69 260.79 8.7V3.86ZM266.35 2.77V6.42H265.08V2.97H264.31V11.28H265.08V7.1H266.35V11.73H267.14V2.77H266.35ZM270.85 6.87H273.25V3.76H270.03V4.43H272.46V6.22H270.06V9.54H270.65C271.79 9.54 272.81 9.49 274.06 9.28L273.99 8.61C272.84 8.81 271.87 8.85 270.85 8.85V6.87ZM274.78 5.99H273.67V6.67H274.78V11.27H275.55V2.99H274.78V5.99ZM276.59 2.77V11.74H277.38V2.77H276.59ZM286.03 2.78H285.24V7.49H286.03V2.78ZM281.57 6.43H279.64V5.11H281.57V6.43ZM282.34 5.47H283.49V7.43H284.26V2.96H283.49V4.8H282.34V3.29H281.57V4.48H279.64V3.29H278.86V7.07H282.34V5.47ZM280.94 10.99V10.03H286.03V7.93H280.11V8.57H285.21V9.42H280.13V11.64H286.37V10.99H280.94Z" fill="#FF3B30"/>
<path d="M253.183 285.002H259.783V285.386C259.783 287.018 259.711 288.434 259.411 290.054L260.383 290.174C260.767 288.158 260.767 286.754 260.767 285.386V284.198H253.183V285.002ZM261.907 292.37V291.566H258.199V288.002H257.227V291.566H255.535V288.002H254.563V291.566H252.175V292.37H261.907ZM262.68 284.906H268.86V284.174H266.268V283.082H265.284V284.174H262.68V284.906ZM272.388 287.69V286.874H270.804V283.118H269.82V291.542H270.804V287.69H272.388ZM269.256 289.838L269.184 289.13C268.26 289.286 267.276 289.37 266.268 289.418V288.65C267.516 288.518 268.284 287.93 268.284 287.006C268.284 285.986 267.276 285.362 265.776 285.362C264.264 285.362 263.256 285.986 263.256 287.006C263.256 287.93 264.036 288.518 265.284 288.65V289.466C264.228 289.502 263.28 289.514 262.416 289.514L262.524 290.306C264.408 290.306 266.976 290.258 269.256 289.838ZM264.192 287.006C264.192 286.43 264.804 286.058 265.776 286.058C266.736 286.058 267.348 286.43 267.348 287.006C267.348 287.618 266.736 287.966 265.776 287.966C264.804 287.966 264.192 287.618 264.192 287.006ZM271.188 292.838H264.984V290.99H264V293.642H271.188V292.838ZM281.033 288.302H282.761V287.486H281.033V283.118H280.049V293.882H281.033V288.302ZM278.249 284.27H273.329V285.086H277.277C277.049 287.678 275.621 289.67 272.825 291.074L273.365 291.842C276.845 290.114 278.249 287.33 278.249 284.27ZM284.362 286.91H291.67V286.118H285.346V283.346H284.362V286.91ZM292.786 288.962V288.158H283.054V288.962H292.786ZM287.902 289.922C285.61 289.922 284.218 290.642 284.218 291.89C284.218 293.138 285.61 293.846 287.902 293.846C290.194 293.846 291.586 293.138 291.586 291.89C291.586 290.642 290.194 289.922 287.902 289.922ZM287.902 293.078C286.21 293.078 285.214 292.658 285.214 291.89C285.214 291.122 286.21 290.69 287.902 290.69C289.594 290.69 290.59 291.122 290.59 291.89C290.59 292.658 289.594 293.078 287.902 293.078ZM294.975 285.254L295.011 284.006H293.895L293.931 285.254L294.075 290.846H294.831L294.975 285.254ZM293.907 293.15H294.999V292.022H293.907V293.15Z" fill="#3A3A3C"/>
<path d="M164 250V263.5H320V250" stroke="black"/>
<path d="M221.366 295L219.812 293.446V289.246L221.366 287.692H225.23L226.672 289.05V290.45H224.516V289.624L223.97 289.064L222.514 289.078L221.954 289.624L221.968 292.83L222.514 293.39L226.56 293.376V295H221.366ZM228.887 295L227.333 293.446V289.246L228.887 287.692H232.989L234.557 289.246V293.446L232.989 295H228.887ZM230.035 293.614H231.841L232.401 293.054L232.387 289.624L231.841 289.064L230.035 289.078L229.475 289.624L229.489 293.054L230.035 293.614ZM235.584 286.88V285.032H237.74V286.88H235.584ZM235.584 295V287.678H237.74V295H235.584ZM238.949 295V287.678H241.105V288.826L242.379 287.678H244.941L246.495 289.246V295H244.339V289.624L243.807 289.078H242.701L241.105 290.548V295H238.949Z" fill="#007AFF"/>
<path d="M201.765 274.612L202.849 274.04C203.098 273.908 203.39 274.122 203.342 274.397L203.135 275.605C203.115 275.713 203.152 275.829 203.234 275.907L204.111 276.761C204.312 276.958 204.203 277.301 203.924 277.342L202.713 277.519C202.601 277.536 202.506 277.604 202.458 277.706L201.918 278.804C201.792 279.056 201.431 279.056 201.309 278.804L200.768 277.706C200.717 277.604 200.622 277.536 200.513 277.519L199.292 277.342C199.014 277.301 198.901 276.961 199.102 276.764L199.979 275.907C200.061 275.829 200.095 275.717 200.078 275.605L199.87 274.397C199.823 274.122 200.115 273.911 200.364 274.044L201.448 274.612C201.547 274.666 201.666 274.666 201.765 274.612Z" fill="#017AFF"/>
<path d="M214.724 286.381C214.333 285.456 213.775 284.626 213.065 283.916C212.354 283.205 211.524 282.644 210.599 282.253C209.644 281.848 208.627 281.644 207.579 281.644C206.532 281.644 205.519 281.848 204.56 282.253C204.328 282.351 204.104 282.457 203.886 282.576C203.706 281.192 202.523 280.121 201.091 280.121H200.394C200.081 280.121 199.83 280.372 199.83 280.685V282.453V287.173V289.248C199.83 289.299 199.826 289.35 199.826 289.401C199.826 289.452 199.826 289.503 199.83 289.554C199.85 290.547 200.054 291.509 200.438 292.42C200.829 293.345 201.387 294.175 202.098 294.886C202.489 295.277 202.914 295.62 203.373 295.916C203.75 296.161 204.145 296.372 204.563 296.545C205.519 296.95 206.535 297.154 207.583 297.154C208.63 297.154 209.644 296.95 210.603 296.545C211.527 296.154 212.354 295.597 213.068 294.882C213.779 294.172 214.34 293.342 214.727 292.417C215.132 291.458 215.336 290.445 215.336 289.397C215.336 288.35 215.129 287.337 214.724 286.381ZM207.579 293.128C205.532 293.128 203.873 291.468 203.873 289.421C203.873 287.374 205.532 285.715 207.579 285.715C209.627 285.715 211.286 287.374 211.286 289.421C211.286 291.468 209.627 293.128 207.579 293.128Z" fill="url(#paint0_linear_931:15034)"/>
<path d="M203.917 292.243V294.399V295.205C203.917 295.542 203.689 295.828 203.38 295.916C203.38 295.916 203.38 295.916 203.383 295.916C203.696 295.831 203.924 295.545 203.924 295.205V294.399V292.243V290.016C203.92 290.003 203.92 289.986 203.917 289.972V292.243Z" fill="url(#paint1_linear_931:15034)"/>
<path d="M211.151 290.416C210.715 291.98 209.284 293.126 207.58 293.126C205.737 293.126 204.207 291.78 203.921 290.015V292.242V294.398V295.204C203.921 295.544 203.693 295.83 203.38 295.915C203.38 295.915 203.38 295.915 203.377 295.915C203.687 295.826 203.914 295.544 203.914 295.204V294.398V292.242V289.971C203.887 289.79 203.874 289.61 203.874 289.423C203.874 289.236 203.887 289.052 203.914 288.876V286.56V286.553V285.176V284.397V282.938C203.914 282.816 203.908 282.693 203.891 282.571C203.887 282.571 203.887 282.574 203.884 282.574C203.704 281.19 202.52 280.119 201.089 280.119H200.388C200.33 280.119 200.276 280.129 200.221 280.143C199.994 280.214 199.83 280.429 199.83 280.68V280.684V282.449V282.452V282.588C199.83 282.581 199.83 282.578 199.827 282.571L199.83 283.084V287.168V287.172V289.243C199.83 289.294 199.827 289.345 199.827 289.396C199.827 289.447 199.827 289.498 199.83 289.549C199.851 290.542 200.055 291.504 200.439 292.416C200.83 293.34 201.388 294.17 202.102 294.881C202.493 295.272 202.918 295.615 203.377 295.911C203.755 296.156 204.149 296.367 204.567 296.54C205.526 296.945 206.54 297.149 207.587 297.149C208.634 297.149 209.651 296.945 210.607 296.54C211.532 296.149 212.361 295.592 213.072 294.878C213.783 294.163 214.344 293.337 214.735 292.412L211.151 290.416Z" fill="url(#paint2_linear_931:15034)"/>
<path d="M221.366 294.994L219.812 293.44V289.24L221.366 287.686H225.23L226.672 289.044V290.444H224.516V289.618L223.97 289.058L222.514 289.072L221.954 289.618L221.968 292.824L222.514 293.384L226.56 293.37V294.994H221.366ZM228.887 294.994L227.333 293.44V289.24L228.887 287.686H232.989L234.557 289.24V293.44L232.989 294.994H228.887ZM230.035 293.608H231.841L232.401 293.048L232.387 289.618L231.841 289.058L230.035 289.072L229.475 289.618L229.489 293.048L230.035 293.608ZM235.584 286.874V285.026H237.74V286.874H235.584ZM235.584 294.994V287.672H237.74V294.994H235.584ZM238.949 294.994V287.672H241.105V288.82L242.379 287.672H244.941L246.495 289.24V294.994H244.339V289.618L243.807 289.072H242.701L241.105 290.542V294.994H238.949Z" fill="#007AFF"/>
<path d="M201.765 274.605L202.849 274.034C203.098 273.902 203.39 274.116 203.342 274.391L203.135 275.598C203.115 275.707 203.152 275.823 203.234 275.901L204.111 276.755C204.312 276.952 204.203 277.295 203.924 277.336L202.713 277.513C202.601 277.53 202.506 277.598 202.458 277.7L201.918 278.798C201.792 279.05 201.431 279.05 201.309 278.798L200.768 277.7C200.717 277.598 200.622 277.53 200.513 277.513L199.292 277.336C199.014 277.295 198.901 276.955 199.102 276.758L199.979 275.901C200.061 275.823 200.095 275.711 200.078 275.598L199.87 274.391C199.823 274.116 200.115 273.905 200.364 274.038L201.448 274.605C201.547 274.66 201.666 274.66 201.765 274.605Z" fill="#017AFF"/>
<path d="M214.724 286.375C214.333 285.45 213.775 284.62 213.065 283.91C212.354 283.199 211.524 282.638 210.599 282.247C209.644 281.842 208.627 281.638 207.579 281.638C206.532 281.638 205.519 281.842 204.56 282.247C204.328 282.345 204.104 282.451 203.886 282.57C203.706 281.186 202.523 280.115 201.091 280.115H200.394C200.081 280.115 199.83 280.366 199.83 280.679V282.447V287.167V289.242C199.83 289.293 199.826 289.344 199.826 289.395C199.826 289.446 199.826 289.497 199.83 289.548C199.85 290.541 200.054 291.503 200.438 292.414C200.829 293.339 201.387 294.169 202.098 294.88C202.489 295.271 202.914 295.614 203.373 295.91C203.75 296.155 204.145 296.366 204.563 296.539C205.519 296.944 206.535 297.148 207.583 297.148C208.63 297.148 209.644 296.944 210.603 296.539C211.527 296.148 212.354 295.59 213.068 294.876C213.779 294.166 214.34 293.336 214.727 292.411C215.132 291.452 215.336 290.439 215.336 289.391C215.336 288.344 215.129 287.33 214.724 286.375ZM207.579 293.122C205.532 293.122 203.873 291.462 203.873 289.415C203.873 287.368 205.532 285.708 207.579 285.708C209.627 285.708 211.286 287.368 211.286 289.415C211.286 291.462 209.627 293.122 207.579 293.122Z" fill="url(#paint3_linear_931:15034)"/>
<path d="M203.917 292.237V294.393V295.199C203.917 295.536 203.689 295.822 203.38 295.91C203.38 295.91 203.38 295.91 203.383 295.91C203.696 295.825 203.924 295.539 203.924 295.199V294.393V292.237V290.01C203.92 289.996 203.92 289.979 203.917 289.966V292.237Z" fill="url(#paint4_linear_931:15034)"/>
<path d="M211.151 290.41C210.715 291.974 209.284 293.12 207.58 293.12C205.737 293.12 204.207 291.774 203.921 290.009V292.236V294.392V295.198C203.921 295.538 203.693 295.824 203.38 295.909C203.38 295.909 203.38 295.909 203.377 295.909C203.687 295.82 203.914 295.538 203.914 295.198V294.392V292.236V289.964C203.887 289.784 203.874 289.604 203.874 289.417C203.874 289.23 203.887 289.046 203.914 288.869V286.554V286.547V285.17V284.391V282.932C203.914 282.81 203.908 282.687 203.891 282.565C203.887 282.565 203.887 282.568 203.884 282.568C203.704 281.184 202.52 280.113 201.089 280.113H200.388C200.33 280.113 200.276 280.123 200.221 280.137C199.994 280.208 199.83 280.422 199.83 280.674V280.678V282.442V282.446V282.582C199.83 282.575 199.83 282.572 199.827 282.565L199.83 283.078V287.162V287.166V289.237C199.83 289.288 199.827 289.339 199.827 289.39C199.827 289.441 199.827 289.492 199.83 289.543C199.851 290.536 200.055 291.498 200.439 292.409C200.83 293.334 201.388 294.164 202.102 294.875C202.493 295.266 202.918 295.609 203.377 295.905C203.755 296.15 204.149 296.361 204.567 296.534C205.526 296.939 206.54 297.143 207.587 297.143C208.634 297.143 209.651 296.939 210.607 296.534C211.532 296.143 212.361 295.586 213.072 294.871C213.783 294.157 214.344 293.331 214.735 292.406L211.151 290.41Z" fill="url(#paint5_linear_931:15034)"/>
<path d="M297.348 7.62796L299.239 5.49241C299.257 5.47003 299.279 5.45195 299.305 5.43953C299.331 5.42711 299.359 5.42065 299.388 5.42065C299.417 5.42065 299.445 5.42711 299.471 5.43953C299.496 5.45195 299.519 5.47003 299.537 5.49241L301.044 7.62796" fill="#F2BC0F"/>
<path d="M291.957 7.62809L293.465 5.49168C293.482 5.46929 293.505 5.45122 293.531 5.4388C293.557 5.42637 293.585 5.41992 293.614 5.41992C293.642 5.41992 293.671 5.42637 293.696 5.4388C293.722 5.45122 293.745 5.46929 293.763 5.49168L295.653 7.62723" fill="#F2BC0F"/>
<path d="M301.202 5.68757L299.262 7.22328L296.647 4.0625C296.629 4.04102 296.607 4.02375 296.581 4.0119C296.556 4.00004 296.528 3.9939 296.501 3.9939C296.473 3.9939 296.445 4.00004 296.42 4.0119C296.394 4.02375 296.372 4.04102 296.354 4.0625L293.738 7.22328L291.798 5.68757C291.769 5.66446 291.734 5.65039 291.697 5.64711C291.66 5.64383 291.623 5.65147 291.59 5.66911C291.557 5.68674 291.53 5.71359 291.512 5.74635C291.495 5.7791 291.487 5.81633 291.49 5.85343L291.914 10.7656C291.918 10.8127 291.94 10.8564 291.975 10.8882C292.011 10.9199 292.056 10.9375 292.104 10.9375H300.897C300.944 10.9375 300.99 10.9199 301.025 10.8882C301.06 10.8564 301.082 10.8127 301.087 10.7656L301.51 5.85515C301.514 5.8179 301.506 5.78043 301.489 5.7474C301.471 5.71436 301.444 5.68723 301.411 5.66937C301.379 5.65151 301.341 5.64371 301.304 5.64695C301.267 5.65018 301.231 5.66431 301.202 5.68757Z" fill="#F8DC25"/>
<g opacity="0.5">
<path opacity="0.5" d="M300.96 7.96922C300 9.79453 298.591 10.3187 297.077 10.5714L293.738 10.9375H300.897C300.944 10.9375 300.99 10.9199 301.025 10.8882C301.06 10.8564 301.082 10.8127 301.087 10.7656L301.412 6.98438L300.96 7.96922Z" fill="#F2BC0F"/>
</g>
<path opacity="0.4" d="M291.798 5.68769C291.769 5.66458 291.734 5.65051 291.697 5.64723C291.66 5.64395 291.623 5.65159 291.59 5.66923C291.557 5.68686 291.53 5.71371 291.512 5.74647C291.495 5.77922 291.487 5.81645 291.49 5.85355L291.914 10.7657C291.792 9.13167 291.826 7.48972 292.016 5.86215L291.798 5.68769Z" fill="white"/>
<path d="M299.092 6.98954L299.225 6.69391C299.229 6.6836 299.237 6.67481 299.246 6.66864C299.256 6.66247 299.267 6.65918 299.278 6.65918C299.289 6.65918 299.3 6.66247 299.31 6.66864C299.319 6.67481 299.326 6.6836 299.331 6.69391L299.464 6.98954L299.76 7.12274C299.77 7.1272 299.779 7.13458 299.785 7.14397C299.791 7.15336 299.794 7.16435 299.794 7.17559C299.794 7.18683 299.791 7.19782 299.785 7.20721C299.779 7.2166 299.77 7.22398 299.76 7.22844L299.464 7.36164L299.331 7.65727C299.326 7.66758 299.319 7.67637 299.31 7.68254C299.3 7.68871 299.289 7.692 299.278 7.692C299.267 7.692 299.256 7.68871 299.246 7.68254C299.237 7.67637 299.229 7.66758 299.225 7.65727L299.092 7.36164L298.796 7.22844C298.786 7.22398 298.777 7.2166 298.771 7.20721C298.765 7.19782 298.761 7.18683 298.761 7.17559C298.761 7.16435 298.765 7.15336 298.771 7.14397C298.777 7.13458 298.786 7.1272 298.796 7.12274L299.092 6.98954Z" fill="white"/>
<path d="M295.452 7.3926V9.01252L296.5 9.61064L297.542 9.01338L297.548 7.3926L296.5 6.7876L295.452 7.3926Z" fill="#F85565"/>
<path opacity="0.15" d="M295.833 7.68639V8.71763L296.5 9.11552L297.167 8.73224V7.68639L296.5 7.30225L295.833 7.68639Z" fill="white"/>
<path opacity="0.2" d="M297.542 9.01344L297.167 8.73242L296.5 9.1157V9.6107L297.542 9.01344Z" fill="#393C54"/>
<path opacity="0.3" d="M296.5 6.7876V7.30236L295.833 7.6865L295.452 7.3926L296.5 6.7876Z" fill="white"/>
<defs>
<linearGradient id="paint0_linear_931:15034" x1="199.744" y1="290.44" x2="214.299" y2="285.079" gradientUnits="userSpaceOnUse">
<stop offset="0.3232" stop-color="#001AFF"/>
<stop offset="0.7076" stop-color="#007AFF"/>
</linearGradient>
<linearGradient id="paint1_linear_931:15034" x1="203.415" y1="293.037" x2="204.721" y2="292.529" gradientUnits="userSpaceOnUse">
<stop stop-color="#FF2D55"/>
<stop offset="0.9351" stop-color="#FF3B30" stop-opacity="0.5"/>
</linearGradient>
<linearGradient id="paint2_linear_931:15034" x1="200.21" y1="290.511" x2="213.971" y2="284.783" gradientUnits="userSpaceOnUse">
<stop stop-color="#21AFFF"/>
<stop offset="0.572307" stop-color="#007AFF"/>
</linearGradient>
<linearGradient id="paint3_linear_931:15034" x1="199.744" y1="290.434" x2="214.299" y2="285.073" gradientUnits="userSpaceOnUse">
<stop offset="0.3232" stop-color="#001AFF"/>
<stop offset="0.7076" stop-color="#007AFF"/>
</linearGradient>
<linearGradient id="paint4_linear_931:15034" x1="203.415" y1="293.031" x2="204.721" y2="292.522" gradientUnits="userSpaceOnUse">
<stop stop-color="#FF2D55"/>
<stop offset="0.9351" stop-color="#FF3B30" stop-opacity="0.5"/>
</linearGradient>
<linearGradient id="paint5_linear_931:15034" x1="200.21" y1="290.505" x2="213.971" y2="284.777" gradientUnits="userSpaceOnUse">
<stop stop-color="#21AFFF"/>
<stop offset="0.572307" stop-color="#007AFF"/>
</linearGradient>
</defs>
</svg>
