<svg width="321" height="297" viewBox="0 0 321 297" fill="none" xmlns="http://www.w3.org/2000/svg">
<rect width="50" height="30" transform="translate(35 238.994) rotate(-90)" fill="#C7C7CC"/>
<rect width="70" height="30" transform="translate(67 238.994) rotate(-90)" fill="#C7C7CC"/>
<rect x="67" y="238.994" width="70" height="30" transform="rotate(-90 67 238.994)" fill="#C7C7CC"/>
<rect width="90" height="30" transform="translate(99 238.994) rotate(-90)" fill="#FF3B30"/>
<rect x="99" y="238.994" width="90" height="30" transform="rotate(-90 99 238.994)" fill="#FF3B30"/>
<path d="M117.344 228.604H115.974L113.954 231.304C113.494 231.924 113.074 232.714 113.074 233.504C113.074 235.074 114.044 236.074 115.574 236.074C117.004 236.074 118.154 235.064 118.154 233.624C118.154 232.344 117.304 231.414 115.964 231.414C115.574 231.414 115.184 231.514 114.844 231.704L117.344 228.604ZM115.554 235.164C114.634 235.164 114.134 234.544 114.134 233.684C114.134 232.864 114.754 232.254 115.594 232.254C116.474 232.254 117.054 232.824 117.054 233.704C117.054 234.574 116.384 235.164 115.554 235.164ZM126.641 230.414H125.361V227.724H124.331V234.344H125.361V231.264H126.641V230.414ZM122.851 232.774V228.504H118.621V232.774H122.851ZM121.841 229.334V231.944H119.641V229.334H121.841ZM120.681 235.754V233.704H119.641V236.594H125.721V235.754H120.681Z" fill="#F2F2F2"/>
<rect width="110" height="30" transform="translate(131 238.994) rotate(-90)" fill="#C7C7CC"/>
<path d="M139.967 231.034L141.167 230.024C141.157 230.194 141.157 230.364 141.157 230.524L141.157 235.034H139.617V235.994L143.647 235.994V235.034H142.257L142.257 228.584L141.357 228.584L139.357 230.294L139.967 231.034ZM149.064 235.994V235.014H146.504C146.184 235.014 145.854 235.074 145.544 235.154L147.424 233.254C148.164 232.514 148.934 231.724 148.934 230.604C148.934 229.264 147.914 228.524 146.674 228.524C145.304 228.524 144.384 229.314 144.194 230.634L145.294 230.834C145.234 230.044 145.824 229.464 146.614 229.464C148.034 229.464 147.974 230.864 147.474 231.764C147.214 232.174 146.894 232.514 146.554 232.854L144.064 235.354V235.994L149.064 235.994ZM157.641 230.414H156.361L156.361 227.724H155.331L155.331 234.344H156.361L156.361 231.264H157.641V230.414ZM153.851 232.774L153.851 228.504L149.621 228.504L149.621 232.774L153.851 232.774ZM152.841 229.334V231.944H150.641V229.334H152.841ZM151.681 235.754V233.704H150.641V236.594L156.721 236.594V235.754L151.681 235.754Z" fill="#F2F2F2"/>
<rect x="195" y="238.994" width="150" height="30" transform="rotate(-90 195 238.994)" fill="#C7C7CC"/>
<path d="M208.857 235.994V235.014L206.297 235.014C205.977 235.014 205.647 235.074 205.337 235.154L207.217 233.254C207.957 232.514 208.727 231.724 208.727 230.604C208.727 229.264 207.707 228.524 206.467 228.524C205.097 228.524 204.177 229.314 203.987 230.634L205.087 230.834C205.027 230.044 205.617 229.464 206.407 229.464C207.827 229.464 207.767 230.864 207.267 231.764C207.007 232.174 206.687 232.514 206.347 232.854L203.857 235.354V235.994L208.857 235.994ZM210.174 231.034L211.374 230.024C211.364 230.194 211.364 230.364 211.364 230.524L211.364 235.034L209.824 235.034V235.994L213.854 235.994V235.034H212.464L212.464 228.584L211.564 228.584L209.564 230.294L210.174 231.034ZM222.641 230.414L221.361 230.414L221.361 227.724H220.331L220.331 234.344H221.361L221.361 231.264L222.641 231.264V230.414ZM218.851 232.774L218.851 228.504L214.621 228.504L214.621 232.774L218.851 232.774ZM217.841 229.334L217.841 231.944L215.641 231.944L215.641 229.334L217.841 229.334ZM216.681 235.754L216.681 233.704L215.641 233.704L215.641 236.594L221.721 236.594L221.721 235.754L216.681 235.754Z" fill="#F2F2F2"/>
<rect x="227" y="238.994" width="170" height="30" transform="rotate(-90 227 238.994)" fill="#C7C7CC"/>
<path d="M240.857 235.994L240.857 235.014L238.297 235.014C237.977 235.014 237.647 235.074 237.337 235.154L239.217 233.254C239.957 232.514 240.727 231.724 240.727 230.604C240.727 229.264 239.707 228.524 238.467 228.524C237.097 228.524 236.177 229.314 235.987 230.634L237.087 230.834C237.027 230.044 237.617 229.464 238.407 229.464C239.827 229.464 239.767 230.864 239.267 231.764C239.007 232.174 238.687 232.514 238.347 232.854L235.857 235.354L235.857 235.994L240.857 235.994ZM245.344 228.604L243.974 228.604L241.954 231.304C241.494 231.924 241.074 232.714 241.074 233.504C241.074 235.074 242.044 236.074 243.574 236.074C245.004 236.074 246.154 235.064 246.154 233.624C246.154 232.344 245.304 231.414 243.964 231.414C243.574 231.414 243.184 231.514 242.844 231.704L245.344 228.604ZM243.554 235.164C242.634 235.164 242.134 234.544 242.134 233.684C242.134 232.864 242.754 232.254 243.594 232.254C244.474 232.254 245.054 232.824 245.054 233.704C245.054 234.574 244.384 235.164 243.554 235.164ZM254.641 230.414L253.361 230.414L253.361 227.724H252.331L252.331 234.344H253.361L253.361 231.264L254.641 231.264L254.641 230.414ZM250.851 232.774L250.851 228.504L246.621 228.504L246.621 232.774L250.851 232.774ZM249.841 229.334L249.841 231.944L247.641 231.944L247.641 229.334L249.841 229.334ZM248.681 235.754L248.681 233.704H247.641L247.641 236.594L253.721 236.594V235.754L248.681 235.754Z" fill="#F2F2F2"/>
<rect x="259" y="238.994" width="190" height="30" transform="rotate(-90 259 238.994)" fill="#C7C7CC"/>
<rect x="291" y="238.994" width="210" height="30" transform="rotate(-90 291 238.994)" fill="#C7C7CC"/>
<rect width="130" height="30" transform="translate(163 238.994) rotate(-90)" fill="#C7C7CC"/>
<path d="M42.5619 234.45L41.9919 235.25C42.1119 235.36 42.2419 235.46 42.4019 235.56C42.8719 235.91 43.5319 236.08 44.1019 236.08C45.6819 236.08 46.8119 235.03 46.8119 233.47C46.8119 232.01 45.7919 231.23 44.4419 231.23C44.1219 231.23 43.7819 231.27 43.4619 231.34L43.7619 229.62H46.5719V228.61H42.9919L42.3919 232.14L43.0719 232.33C43.4419 232.22 43.8219 232.14 44.2119 232.14C45.1319 232.14 45.7119 232.62 45.7119 233.53C45.7119 234.44 45.1419 235.14 44.1719 235.14C43.5819 235.14 42.9819 234.85 42.5619 234.45ZM52.2989 232.31C52.2989 230.61 51.6889 228.53 49.5989 228.53C47.5389 228.53 46.9089 230.55 46.9089 232.31C46.9089 234.07 47.5389 236.08 49.5989 236.08C51.6589 236.08 52.2989 234.07 52.2989 232.31ZM51.1589 232.31C51.1589 233.34 50.9789 235.16 49.5989 235.16C48.2289 235.16 48.0389 233.34 48.0389 232.31C48.0389 231.28 48.2189 229.46 49.5989 229.46C50.9789 229.46 51.1589 231.28 51.1589 232.31ZM57.5059 232.31C57.5059 230.61 56.8959 228.53 54.8059 228.53C52.7459 228.53 52.1159 230.55 52.1159 232.31C52.1159 234.07 52.7459 236.08 54.8059 236.08C56.8659 236.08 57.5059 234.07 57.5059 232.31ZM56.3659 232.31C56.3659 233.34 56.1859 235.16 54.8059 235.16C53.4359 235.16 53.2459 233.34 53.2459 232.31C53.2459 231.28 53.4259 229.46 54.8059 229.46C56.1859 229.46 56.3659 231.28 56.3659 232.31ZM62.713 232.31C62.713 230.61 62.103 228.53 60.013 228.53C57.953 228.53 57.323 230.55 57.323 232.31C57.323 234.07 57.953 236.08 60.013 236.08C62.073 236.08 62.713 234.07 62.713 232.31ZM61.573 232.31C61.573 233.34 61.393 235.16 60.013 235.16C58.643 235.16 58.453 233.34 58.453 232.31C58.453 231.28 58.633 229.46 60.013 229.46C61.393 229.46 61.573 231.28 61.573 232.31Z" fill="white"/>
<path d="M82.0238 233.74L81.0538 234.14C81.4538 235.48 82.2438 236.09 83.5938 236.09C84.9638 236.09 86.0938 235.26 86.0938 233.85C86.0938 232.92 85.5938 232.36 84.7138 232.11C85.5638 231.84 85.9338 231.28 85.9338 230.43C85.9338 229.18 84.8638 228.53 83.7438 228.53C82.3738 228.53 81.4638 229.34 81.2738 230.65L82.3638 230.84C82.3038 230.05 82.9238 229.47 83.6838 229.47C84.4138 229.47 84.8638 229.91 84.8638 230.62C84.8638 231.6 84.0338 231.82 83.2038 231.82V232.62C84.1038 232.62 84.9938 232.75 84.9938 233.88C84.9938 234.65 84.3338 235.15 83.5838 235.15C82.8238 235.15 82.1138 234.5 82.0238 233.74ZM94.6408 230.42H93.3608V227.73H92.3308V234.35H93.3608V231.27H94.6408V230.42ZM90.8508 232.78V228.51H86.6208V232.78H90.8508ZM89.8408 229.34V231.95H87.6408V229.34H89.8408ZM88.6808 235.76V233.71H87.6408V236.6H93.7208V235.76H88.6808Z" fill="#F2F2F2"/>
<path d="M172.58 231.04L173.78 230.03C173.77 230.2 173.77 230.37 173.77 230.53V235.04H172.23V236H176.26V235.04H174.87V228.59H173.97L171.97 230.3L172.58 231.04ZM180.707 228.61H179.337L177.317 231.31C176.857 231.93 176.437 232.72 176.437 233.51C176.437 235.08 177.407 236.08 178.937 236.08C180.367 236.08 181.517 235.07 181.517 233.63C181.517 232.35 180.667 231.42 179.327 231.42C178.937 231.42 178.547 231.52 178.207 231.71L180.707 228.61ZM178.917 235.17C177.997 235.17 177.497 234.55 177.497 233.69C177.497 232.87 178.117 232.26 178.957 232.26C179.837 232.26 180.417 232.83 180.417 233.71C180.417 234.58 179.747 235.17 178.917 235.17ZM189.754 230.42H188.474V227.73H187.444V234.35H188.474V231.27H189.754V230.42ZM185.964 232.78V228.51H181.734V232.78H185.964ZM184.954 229.34V231.95H182.754V229.34H184.954ZM183.794 235.76V233.71H182.754V236.6H188.834V235.76H183.794Z" fill="#F2F2F2"/>
<path d="M270.43 233.74L269.46 234.14C269.86 235.48 270.65 236.09 272 236.09C273.37 236.09 274.5 235.26 274.5 233.85C274.5 232.92 274 232.36 273.12 232.11C273.97 231.84 274.34 231.28 274.34 230.43C274.34 229.18 273.27 228.53 272.15 228.53C270.78 228.53 269.87 229.34 269.68 230.65L270.77 230.84C270.71 230.05 271.33 229.47 272.09 229.47C272.82 229.47 273.27 229.91 273.27 230.62C273.27 231.6 272.44 231.82 271.61 231.82V232.62C272.51 232.62 273.4 232.75 273.4 233.88C273.4 234.65 272.74 235.15 271.99 235.15C271.23 235.15 270.52 234.5 270.43 233.74ZM279.877 232.31C279.877 230.61 279.267 228.53 277.177 228.53C275.117 228.53 274.487 230.55 274.487 232.31C274.487 234.07 275.117 236.08 277.177 236.08C279.237 236.08 279.877 234.07 279.877 232.31ZM278.737 232.31C278.737 233.34 278.557 235.16 277.177 235.16C275.807 235.16 275.617 233.34 275.617 232.31C275.617 231.28 275.797 229.46 277.177 229.46C278.557 229.46 278.737 231.28 278.737 232.31ZM288.254 230.42H286.974V227.73H285.944V234.35H286.974V231.27H288.254V230.42ZM284.464 232.78V228.51H280.234V232.78H284.464ZM283.454 229.34V231.95H281.254V229.34H283.454ZM282.294 235.76V233.71H281.254V236.6H287.334V235.76H282.294Z" fill="#F2F2F2"/>
<path d="M292.859 15.663H295.62V20.58H292.859V15.663ZM291.979 21.306H296.5V14.937H291.979V21.306ZM300.801 17.885H299.173V13.958H298.271V23.814H299.173V18.644H300.801V17.885ZM309.455 18.908C307.728 18.578 305.858 17.082 305.858 15.399V14.64H304.912V15.399C304.912 17.082 303.053 18.567 301.326 18.908L301.733 19.656C303.218 19.304 304.758 18.248 305.385 16.807C306.012 18.259 307.552 19.315 309.048 19.656L309.455 18.908ZM300.952 21.746V22.494H309.895V21.746H300.952ZM311.674 18.347H314.908V17.621H311.674V15.586H315.337V14.838H310.772V21.449H311.531C313.412 21.449 314.611 21.394 316.041 21.141L315.942 20.404C314.6 20.646 313.456 20.712 311.674 20.712V18.347ZM317.548 13.936V17.665H315.513V18.413H317.548V23.825H318.45V13.936H317.548Z" fill="#8E8E93"/>
<path d="M226.944 62.1567H230.65V63H225.908V55.1797H226.944V62.1567ZM232.119 61.6519L233.558 57.1885H234.573L232.489 63H231.732L229.626 57.1885H230.642L232.119 61.6519ZM234.221 62.479C234.221 62.3071 234.271 62.1639 234.371 62.0493C234.475 61.9347 234.629 61.8774 234.833 61.8774C235.037 61.8774 235.191 61.9347 235.295 62.0493C235.402 62.1639 235.456 62.3071 235.456 62.479C235.456 62.6437 235.402 62.7816 235.295 62.8926C235.191 63.0036 235.037 63.0591 234.833 63.0591C234.629 63.0591 234.475 63.0036 234.371 62.8926C234.271 62.7816 234.221 62.6437 234.221 62.479ZM241.296 55.7383L238.058 63H237.016L240.244 55.9961H236.011V55.1797H241.296V55.7383Z" fill="#8E8E93"/>
<path d="M260.944 42.1567H264.65V43H259.908V35.1797H260.944V42.1567ZM266.119 41.6519L267.558 37.1885H268.573L266.489 43H265.732L263.626 37.1885H264.642L266.119 41.6519ZM268.221 42.479C268.221 42.3071 268.271 42.1639 268.371 42.0493C268.475 41.9347 268.629 41.8774 268.833 41.8774C269.037 41.8774 269.191 41.9347 269.295 42.0493C269.402 42.1639 269.456 42.3071 269.456 42.479C269.456 42.6437 269.402 42.7816 269.295 42.8926C269.191 43.0036 269.037 43.0591 268.833 43.0591C268.629 43.0591 268.475 43.0036 268.371 42.8926C268.271 42.7816 268.221 42.6437 268.221 42.479ZM274.99 37.2207C274.99 37.611 274.886 37.9583 274.679 38.2627C274.475 38.5671 274.197 38.8052 273.846 38.9771C274.254 39.1525 274.577 39.4085 274.813 39.7451C275.053 40.0817 275.173 40.4631 275.173 40.8892C275.173 41.5659 274.944 42.1048 274.485 42.5059C274.031 42.9069 273.431 43.1074 272.686 43.1074C271.934 43.1074 271.331 42.9069 270.876 42.5059C270.425 42.1012 270.199 41.5623 270.199 40.8892C270.199 40.4666 270.314 40.0853 270.543 39.7451C270.776 39.4049 271.096 39.1471 271.504 38.9717C271.157 38.7998 270.883 38.5617 270.683 38.2573C270.482 37.953 270.382 37.6074 270.382 37.2207C270.382 36.5618 270.593 36.0391 271.016 35.6523C271.438 35.2656 271.995 35.0723 272.686 35.0723C273.374 35.0723 273.929 35.2656 274.351 35.6523C274.777 36.0391 274.99 36.5618 274.99 37.2207ZM274.179 40.8677C274.179 40.4308 274.04 40.0745 273.76 39.7988C273.485 39.5231 273.123 39.3853 272.675 39.3853C272.228 39.3853 271.868 39.5213 271.596 39.7935C271.327 40.0656 271.193 40.4237 271.193 40.8677C271.193 41.3117 271.324 41.6608 271.585 41.915C271.85 42.1693 272.217 42.2964 272.686 42.2964C273.152 42.2964 273.517 42.1693 273.782 41.915C274.047 41.6572 274.179 41.3081 274.179 40.8677ZM272.686 35.8887C272.296 35.8887 271.979 36.0104 271.735 36.2539C271.495 36.4938 271.375 36.8215 271.375 37.2368C271.375 37.6343 271.494 37.9565 271.73 38.2036C271.97 38.4471 272.289 38.5688 272.686 38.5688C273.083 38.5688 273.4 38.4471 273.637 38.2036C273.877 37.9565 273.997 37.6343 273.997 37.2368C273.997 36.8394 273.873 36.5153 273.626 36.2646C273.379 36.014 273.066 35.8887 272.686 35.8887Z" fill="#8E8E93"/>
<path d="M196.944 82.1567H200.65V83H195.908V75.1797H196.944V82.1567ZM202.119 81.6519L203.558 77.1885H204.573L202.489 83H201.732L199.626 77.1885H200.642L202.119 81.6519ZM204.221 82.479C204.221 82.3071 204.271 82.1639 204.371 82.0493C204.475 81.9347 204.629 81.8774 204.833 81.8774C205.037 81.8774 205.191 81.9347 205.295 82.0493C205.402 82.1639 205.456 82.3071 205.456 82.479C205.456 82.6437 205.402 82.7816 205.295 82.8926C205.191 83.0036 205.037 83.0591 204.833 83.0591C204.629 83.0591 204.475 83.0036 204.371 82.8926C204.271 82.7816 204.221 82.6437 204.221 82.479ZM210.147 75.1743V76.0176H209.964C209.191 76.0319 208.575 76.2611 208.117 76.7051C207.658 77.1491 207.393 77.7739 207.322 78.5796C207.734 78.1069 208.296 77.8706 209.008 77.8706C209.689 77.8706 210.231 78.1105 210.636 78.5903C211.044 79.0701 211.248 79.6896 211.248 80.4487C211.248 81.2544 211.028 81.8989 210.587 82.3823C210.151 82.8657 209.563 83.1074 208.826 83.1074C208.077 83.1074 207.47 82.821 207.005 82.248C206.539 81.6715 206.307 80.9303 206.307 80.0244V79.6431C206.307 78.2036 206.613 77.1043 207.225 76.3452C207.841 75.5825 208.756 75.1922 209.97 75.1743H210.147ZM208.842 78.6978C208.502 78.6978 208.188 78.7998 207.902 79.0039C207.615 79.208 207.417 79.464 207.306 79.772V80.1372C207.306 80.7817 207.451 81.3009 207.741 81.6948C208.031 82.0887 208.392 82.2856 208.826 82.2856C209.273 82.2856 209.624 82.1209 209.878 81.7915C210.136 81.4621 210.265 81.0306 210.265 80.4971C210.265 79.96 210.134 79.5267 209.873 79.1973C209.615 78.8643 209.271 78.6978 208.842 78.6978Z" fill="#8E8E93"/>
<path d="M164.944 104.157H168.65V105H163.908V97.1797H164.944V104.157ZM170.119 103.652L171.558 99.1885H172.573L170.489 105H169.732L167.626 99.1885H168.642L170.119 103.652ZM172.221 104.479C172.221 104.307 172.271 104.164 172.371 104.049C172.475 103.935 172.629 103.877 172.833 103.877C173.037 103.877 173.191 103.935 173.295 104.049C173.402 104.164 173.456 104.307 173.456 104.479C173.456 104.644 173.402 104.782 173.295 104.893C173.191 105.004 173.037 105.059 172.833 105.059C172.629 105.059 172.475 105.004 172.371 104.893C172.271 104.782 172.221 104.644 172.221 104.479ZM174.704 101.079L175.102 97.1797H179.108V98.0981H175.945L175.708 100.23C176.092 100.005 176.527 99.8921 177.014 99.8921C177.726 99.8921 178.292 100.128 178.711 100.601C179.13 101.07 179.339 101.706 179.339 102.508C179.339 103.313 179.121 103.949 178.684 104.415C178.251 104.876 177.644 105.107 176.863 105.107C176.172 105.107 175.608 104.916 175.171 104.533C174.735 104.15 174.486 103.62 174.425 102.943H175.365C175.426 103.39 175.585 103.729 175.843 103.958C176.101 104.184 176.441 104.296 176.863 104.296C177.325 104.296 177.687 104.139 177.948 103.824C178.213 103.509 178.346 103.074 178.346 102.519C178.346 101.996 178.202 101.577 177.916 101.262C177.633 100.943 177.255 100.784 176.783 100.784C176.349 100.784 176.009 100.879 175.762 101.068L175.499 101.283L174.704 101.079Z" fill="#8E8E93"/>
<path d="M132.944 121.157H136.65V122H131.908V114.18H132.944V121.157ZM138.119 120.652L139.558 116.188H140.573L138.489 122H137.732L135.626 116.188H136.642L138.119 120.652ZM140.221 121.479C140.221 121.307 140.271 121.164 140.371 121.049C140.475 120.935 140.629 120.877 140.833 120.877C141.037 120.877 141.191 120.935 141.295 121.049C141.402 121.164 141.456 121.307 141.456 121.479C141.456 121.644 141.402 121.782 141.295 121.893C141.191 122.004 141.037 122.059 140.833 122.059C140.629 122.059 140.475 122.004 140.371 121.893C140.271 121.782 140.221 121.644 140.221 121.479ZM146.442 119.374H147.527V120.185H146.442V122H145.443V120.185H141.882V119.599L145.384 114.18H146.442V119.374ZM143.01 119.374H145.443V115.539L145.325 115.753L143.01 119.374Z" fill="#8E8E93"/>
<path d="M100.944 141.157H104.65V142H99.9077V134.18H100.944V141.157ZM106.119 140.652L107.558 136.188H108.573L106.489 142H105.732L103.626 136.188H104.642L106.119 140.652ZM108.221 141.479C108.221 141.307 108.271 141.164 108.371 141.049C108.475 140.935 108.629 140.877 108.833 140.877C109.037 140.877 109.191 140.935 109.295 141.049C109.402 141.164 109.456 141.307 109.456 141.479C109.456 141.644 109.402 141.782 109.295 141.893C109.191 142.004 109.037 142.059 108.833 142.059C108.629 142.059 108.475 142.004 108.371 141.893C108.271 141.782 108.221 141.644 108.221 141.479ZM111.692 137.606H112.439C112.908 137.599 113.277 137.476 113.545 137.236C113.814 136.996 113.948 136.672 113.948 136.264C113.948 135.347 113.492 134.889 112.579 134.889C112.149 134.889 111.805 135.012 111.547 135.259C111.293 135.503 111.166 135.827 111.166 136.231H110.172C110.172 135.612 110.398 135.098 110.849 134.69C111.304 134.278 111.88 134.072 112.579 134.072C113.316 134.072 113.895 134.267 114.313 134.658C114.732 135.048 114.942 135.59 114.942 136.285C114.942 136.625 114.831 136.955 114.609 137.273C114.39 137.592 114.091 137.83 113.712 137.988C114.142 138.124 114.473 138.349 114.706 138.665C114.942 138.98 115.06 139.365 115.06 139.819C115.06 140.521 114.831 141.078 114.373 141.49C113.914 141.902 113.318 142.107 112.584 142.107C111.85 142.107 111.252 141.909 110.79 141.511C110.332 141.114 110.103 140.589 110.103 139.938H111.102C111.102 140.349 111.236 140.679 111.504 140.926C111.773 141.173 112.133 141.296 112.584 141.296C113.064 141.296 113.431 141.171 113.685 140.92C113.939 140.67 114.066 140.31 114.066 139.841C114.066 139.386 113.927 139.037 113.647 138.793C113.368 138.55 112.965 138.425 112.439 138.417H111.692V137.606Z" fill="#8E8E93"/>
<path d="M68.9443 162.157H72.6504V163H67.9077V155.18H68.9443V162.157ZM74.1187 161.652L75.5581 157.188H76.5732L74.4893 163H73.7319L71.6265 157.188H72.6416L74.1187 161.652ZM76.2207 162.479C76.2207 162.307 76.2708 162.164 76.3711 162.049C76.4749 161.935 76.6289 161.877 76.833 161.877C77.0371 161.877 77.1911 161.935 77.2949 162.049C77.4023 162.164 77.4561 162.307 77.4561 162.479C77.4561 162.644 77.4023 162.782 77.2949 162.893C77.1911 163.004 77.0371 163.059 76.833 163.059C76.6289 163.059 76.4749 163.004 76.3711 162.893C76.2708 162.782 76.2207 162.644 76.2207 162.479ZM83.3716 163H78.2476V162.286L80.9546 159.278C81.3556 158.823 81.6313 158.454 81.7817 158.171C81.9357 157.885 82.0127 157.59 82.0127 157.285C82.0127 156.877 81.8892 156.542 81.6421 156.281C81.395 156.019 81.0656 155.889 80.6538 155.889C80.1597 155.889 79.7747 156.03 79.499 156.313C79.2269 156.592 79.0908 156.983 79.0908 157.484H78.0972C78.0972 156.764 78.3281 156.182 78.79 155.738C79.2555 155.294 79.8768 155.072 80.6538 155.072C81.3807 155.072 81.9554 155.264 82.3779 155.647C82.8005 156.027 83.0117 156.533 83.0117 157.167C83.0117 157.937 82.5212 158.854 81.54 159.917L79.4453 162.189H83.3716V163Z" fill="#8E8E93"/>
<path d="M37.9443 183.157H41.6504V184H36.9077V176.18H37.9443V183.157ZM43.1187 182.652L44.5581 178.188H45.5732L43.4893 184H42.7319L40.6265 178.188H41.6416L43.1187 182.652ZM45.2207 183.479C45.2207 183.307 45.2708 183.164 45.3711 183.049C45.4749 182.935 45.6289 182.877 45.833 182.877C46.0371 182.877 46.1911 182.935 46.2949 183.049C46.4023 183.164 46.4561 183.307 46.4561 183.479C46.4561 183.644 46.4023 183.782 46.2949 183.893C46.1911 184.004 46.0371 184.059 45.833 184.059C45.6289 184.059 45.4749 184.004 45.3711 183.893C45.2708 183.782 45.2207 183.644 45.2207 183.479ZM50.5132 184H49.5142V177.377L47.5107 178.113V177.211L50.3574 176.142H50.5132V184Z" fill="#8E8E93"/>
<path d="M3.861 234.613H1.793V232.006H3.861V234.613ZM3.861 231.291H1.793V228.882H0.935V235.339H4.708V228.882H3.861V231.291ZM8.107 227.947V231.852H6.776V228.167H5.929V237.33H6.776V232.589H8.107V237.814H8.965V227.947H8.107ZM15.6721 231.951C14.3741 232.226 13.2411 232.292 11.2831 232.292V229.432H14.7481V228.706H10.3921V233.029H11.1621C13.2411 233.029 14.4181 232.963 15.7711 232.688L15.6721 231.951ZM14.4731 237.077C13.0101 237.077 12.1081 236.637 12.1081 235.911C12.1081 235.185 13.0101 234.745 14.4731 234.745C15.9251 234.745 16.8271 235.185 16.8271 235.911C16.8271 236.637 15.9251 237.077 14.4731 237.077ZM14.4731 234.019C12.4711 234.019 11.2171 234.723 11.2171 235.911C11.2171 237.099 12.4711 237.803 14.4731 237.803C16.4641 237.803 17.7181 237.099 17.7181 235.911C17.7181 234.723 16.4641 234.019 14.4731 234.019ZM17.6191 230.51V227.947H16.7061V233.821H17.6191V231.258H19.0711V230.51H17.6191ZM21.3013 234.899H26.2623V236.956H21.3013V234.899ZM20.4213 237.682H27.1533V234.173H20.4213V237.682ZM26.8563 232.105C27.1203 230.873 27.1203 229.971 27.1203 229.201V228.475H20.4543V229.201H26.2293C26.2293 229.971 26.2293 230.873 25.9433 232.105H19.3103V232.831H28.2753V232.105H26.8563Z" fill="#8E8E93"/>
<path d="M113.5 125L118.263 116.75L108.737 116.75L113.5 125Z" fill="#FF3B30"/>
<path d="M100.79 100.86H99.97V106.41H100.54C101.51 106.41 102.54 106.36 103.75 106.13L103.67 105.42C102.6 105.63 101.65 105.69 100.79 105.7V100.86ZM106.35 99.77V103.42H105.08V99.97H104.31V108.28H105.08V104.1H106.35V108.73H107.14V99.77H106.35ZM110.85 103.87H113.25V100.76H110.03V101.43H112.46V103.22H110.06V106.54H110.65C111.79 106.54 112.81 106.49 114.06 106.28L113.99 105.61C112.84 105.81 111.87 105.85 110.85 105.85V103.87ZM114.78 102.99H113.67V103.67H114.78V108.27H115.55V99.99H114.78V102.99ZM116.59 99.77V108.74H117.38V99.77H116.59ZM126.03 99.78H125.24V104.49H126.03V99.78ZM121.57 103.43H119.64V102.11H121.57V103.43ZM122.34 102.47H123.49V104.43H124.26V99.96H123.49V101.8H122.34V100.29H121.57V101.48H119.64V100.29H118.86V104.07H122.34V102.47ZM120.94 107.99V107.03H126.03V104.93H120.11V105.57H125.21V106.42H120.13V108.64H126.37V107.99H120.94Z" fill="#FF3B30"/>
<path d="M253.183 283.002H259.783V283.386C259.783 285.018 259.711 286.434 259.411 288.054L260.383 288.174C260.767 286.158 260.767 284.754 260.767 283.386V282.198H253.183V283.002ZM261.907 290.37V289.566H258.199V286.002H257.227V289.566H255.535V286.002H254.563V289.566H252.175V290.37H261.907ZM262.68 282.906H268.86V282.174H266.268V281.082H265.284V282.174H262.68V282.906ZM272.388 285.69V284.874H270.804V281.118H269.82V289.542H270.804V285.69H272.388ZM269.256 287.838L269.184 287.13C268.26 287.286 267.276 287.37 266.268 287.418V286.65C267.516 286.518 268.284 285.93 268.284 285.006C268.284 283.986 267.276 283.362 265.776 283.362C264.264 283.362 263.256 283.986 263.256 285.006C263.256 285.93 264.036 286.518 265.284 286.65V287.466C264.228 287.502 263.28 287.514 262.416 287.514L262.524 288.306C264.408 288.306 266.976 288.258 269.256 287.838ZM264.192 285.006C264.192 284.43 264.804 284.058 265.776 284.058C266.736 284.058 267.348 284.43 267.348 285.006C267.348 285.618 266.736 285.966 265.776 285.966C264.804 285.966 264.192 285.618 264.192 285.006ZM271.188 290.838H264.984V288.99H264V291.642H271.188V290.838ZM281.033 286.302H282.761V285.486H281.033V281.118H280.049V291.882H281.033V286.302ZM278.249 282.27H273.329V283.086H277.277C277.049 285.678 275.621 287.67 272.825 289.074L273.365 289.842C276.845 288.114 278.249 285.33 278.249 282.27ZM284.362 284.91H291.67V284.118H285.346V281.346H284.362V284.91ZM292.786 286.962V286.158H283.054V286.962H292.786ZM287.902 287.922C285.61 287.922 284.218 288.642 284.218 289.89C284.218 291.138 285.61 291.846 287.902 291.846C290.194 291.846 291.586 291.138 291.586 289.89C291.586 288.642 290.194 287.922 287.902 287.922ZM287.902 291.078C286.21 291.078 285.214 290.658 285.214 289.89C285.214 289.122 286.21 288.69 287.902 288.69C289.594 288.69 290.59 289.122 290.59 289.89C290.59 290.658 289.594 291.078 287.902 291.078ZM294.975 283.254L295.011 282.006H293.895L293.931 283.254L294.075 288.846H294.831L294.975 283.254ZM293.907 291.15H294.999V290.022H293.907V291.15Z" fill="#3A3A3C"/>
<path d="M164 248V261.5H320V248" stroke="black"/>
<path d="M221.366 293L219.812 291.446V287.246L221.366 285.692H225.23L226.672 287.05V288.45H224.516V287.624L223.97 287.064L222.514 287.078L221.954 287.624L221.968 290.83L222.514 291.39L226.56 291.376V293H221.366ZM228.887 293L227.333 291.446V287.246L228.887 285.692H232.989L234.557 287.246V291.446L232.989 293H228.887ZM230.035 291.614H231.841L232.401 291.054L232.387 287.624L231.841 287.064L230.035 287.078L229.475 287.624L229.489 291.054L230.035 291.614ZM235.584 284.88V283.032H237.74V284.88H235.584ZM235.584 293V285.678H237.74V293H235.584ZM238.949 293V285.678H241.105V286.826L242.379 285.678H244.941L246.495 287.246V293H244.339V287.624L243.807 287.078H242.701L241.105 288.548V293H238.949Z" fill="#007AFF"/>
<path d="M201.765 272.612L202.849 272.04C203.098 271.908 203.39 272.122 203.342 272.397L203.135 273.605C203.115 273.713 203.152 273.829 203.234 273.907L204.111 274.761C204.312 274.958 204.203 275.301 203.924 275.342L202.713 275.519C202.601 275.536 202.506 275.604 202.458 275.706L201.918 276.804C201.792 277.056 201.431 277.056 201.309 276.804L200.768 275.706C200.717 275.604 200.622 275.536 200.513 275.519L199.292 275.342C199.014 275.301 198.901 274.961 199.102 274.764L199.979 273.907C200.061 273.829 200.095 273.717 200.078 273.605L199.87 272.397C199.823 272.122 200.115 271.911 200.364 272.044L201.448 272.612C201.547 272.666 201.666 272.666 201.765 272.612Z" fill="#017AFF"/>
<path d="M214.724 284.381C214.333 283.456 213.775 282.626 213.065 281.916C212.354 281.205 211.524 280.644 210.599 280.253C209.644 279.848 208.627 279.644 207.579 279.644C206.532 279.644 205.519 279.848 204.56 280.253C204.328 280.351 204.104 280.457 203.886 280.576C203.706 279.192 202.523 278.121 201.091 278.121H200.394C200.081 278.121 199.83 278.372 199.83 278.685V280.453V285.173V287.248C199.83 287.299 199.826 287.35 199.826 287.401C199.826 287.452 199.826 287.503 199.83 287.554C199.85 288.547 200.054 289.509 200.438 290.42C200.829 291.345 201.387 292.175 202.098 292.886C202.489 293.277 202.914 293.62 203.373 293.916C203.75 294.161 204.145 294.372 204.563 294.545C205.519 294.95 206.535 295.154 207.583 295.154C208.63 295.154 209.644 294.95 210.603 294.545C211.527 294.154 212.354 293.597 213.068 292.882C213.779 292.172 214.34 291.342 214.727 290.417C215.132 289.458 215.336 288.445 215.336 287.397C215.336 286.35 215.129 285.337 214.724 284.381ZM207.579 291.128C205.532 291.128 203.873 289.468 203.873 287.421C203.873 285.374 205.532 283.715 207.579 283.715C209.627 283.715 211.286 285.374 211.286 287.421C211.286 289.468 209.627 291.128 207.579 291.128Z" fill="url(#paint0_linear_931:14989)"/>
<path d="M203.917 290.243V292.399V293.205C203.917 293.542 203.689 293.828 203.38 293.916C203.38 293.916 203.38 293.916 203.383 293.916C203.696 293.831 203.924 293.545 203.924 293.205V292.399V290.243V288.016C203.92 288.003 203.92 287.986 203.917 287.972V290.243Z" fill="url(#paint1_linear_931:14989)"/>
<path d="M211.151 288.416C210.715 289.98 209.284 291.126 207.58 291.126C205.737 291.126 204.207 289.78 203.921 288.015V290.242V292.398V293.204C203.921 293.544 203.693 293.83 203.38 293.915C203.38 293.915 203.38 293.915 203.377 293.915C203.687 293.826 203.914 293.544 203.914 293.204V292.398V290.242V287.971C203.887 287.79 203.874 287.61 203.874 287.423C203.874 287.236 203.887 287.052 203.914 286.876V284.56V284.553V283.176V282.397V280.938C203.914 280.816 203.908 280.693 203.891 280.571C203.887 280.571 203.887 280.574 203.884 280.574C203.704 279.19 202.52 278.119 201.089 278.119H200.388C200.33 278.119 200.276 278.129 200.221 278.143C199.994 278.214 199.83 278.429 199.83 278.68V278.684V280.449V280.452V280.588C199.83 280.581 199.83 280.578 199.827 280.571L199.83 281.084V285.168V285.172V287.243C199.83 287.294 199.827 287.345 199.827 287.396C199.827 287.447 199.827 287.498 199.83 287.549C199.851 288.542 200.055 289.504 200.439 290.416C200.83 291.34 201.388 292.17 202.102 292.881C202.493 293.272 202.918 293.615 203.377 293.911C203.755 294.156 204.149 294.367 204.567 294.54C205.526 294.945 206.54 295.149 207.587 295.149C208.634 295.149 209.651 294.945 210.607 294.54C211.532 294.149 212.361 293.592 213.072 292.878C213.783 292.163 214.344 291.337 214.735 290.412L211.151 288.416Z" fill="url(#paint2_linear_931:14989)"/>
<path d="M221.366 292.994L219.812 291.44V287.24L221.366 285.686H225.23L226.672 287.044V288.444H224.516V287.618L223.97 287.058L222.514 287.072L221.954 287.618L221.968 290.824L222.514 291.384L226.56 291.37V292.994H221.366ZM228.887 292.994L227.333 291.44V287.24L228.887 285.686H232.989L234.557 287.24V291.44L232.989 292.994H228.887ZM230.035 291.608H231.841L232.401 291.048L232.387 287.618L231.841 287.058L230.035 287.072L229.475 287.618L229.489 291.048L230.035 291.608ZM235.584 284.874V283.026H237.74V284.874H235.584ZM235.584 292.994V285.672H237.74V292.994H235.584ZM238.949 292.994V285.672H241.105V286.82L242.379 285.672H244.941L246.495 287.24V292.994H244.339V287.618L243.807 287.072H242.701L241.105 288.542V292.994H238.949Z" fill="#007AFF"/>
<path d="M201.765 272.605L202.849 272.034C203.098 271.902 203.39 272.116 203.342 272.391L203.135 273.598C203.115 273.707 203.152 273.823 203.234 273.901L204.111 274.755C204.312 274.952 204.203 275.295 203.924 275.336L202.713 275.513C202.601 275.53 202.506 275.598 202.458 275.7L201.918 276.798C201.792 277.05 201.431 277.05 201.309 276.798L200.768 275.7C200.717 275.598 200.622 275.53 200.513 275.513L199.292 275.336C199.014 275.295 198.901 274.955 199.102 274.758L199.979 273.901C200.061 273.823 200.095 273.711 200.078 273.598L199.87 272.391C199.823 272.116 200.115 271.905 200.364 272.038L201.448 272.605C201.547 272.66 201.666 272.66 201.765 272.605Z" fill="#017AFF"/>
<path d="M214.724 284.375C214.333 283.45 213.775 282.62 213.065 281.91C212.354 281.199 211.524 280.638 210.599 280.247C209.644 279.842 208.627 279.638 207.579 279.638C206.532 279.638 205.519 279.842 204.56 280.247C204.328 280.345 204.104 280.451 203.886 280.57C203.706 279.186 202.523 278.115 201.091 278.115H200.394C200.081 278.115 199.83 278.366 199.83 278.679V280.447V285.167V287.242C199.83 287.293 199.826 287.344 199.826 287.395C199.826 287.446 199.826 287.497 199.83 287.548C199.85 288.541 200.054 289.503 200.438 290.414C200.829 291.339 201.387 292.169 202.098 292.88C202.489 293.271 202.914 293.614 203.373 293.91C203.75 294.155 204.145 294.366 204.563 294.539C205.519 294.944 206.535 295.148 207.583 295.148C208.63 295.148 209.644 294.944 210.603 294.539C211.527 294.148 212.354 293.59 213.068 292.876C213.779 292.166 214.34 291.336 214.727 290.411C215.132 289.452 215.336 288.439 215.336 287.391C215.336 286.344 215.129 285.33 214.724 284.375ZM207.579 291.122C205.532 291.122 203.873 289.462 203.873 287.415C203.873 285.368 205.532 283.708 207.579 283.708C209.627 283.708 211.286 285.368 211.286 287.415C211.286 289.462 209.627 291.122 207.579 291.122Z" fill="url(#paint3_linear_931:14989)"/>
<path d="M203.917 290.237V292.393V293.199C203.917 293.536 203.689 293.822 203.38 293.91C203.38 293.91 203.38 293.91 203.383 293.91C203.696 293.825 203.924 293.539 203.924 293.199V292.393V290.237V288.01C203.92 287.996 203.92 287.979 203.917 287.966V290.237Z" fill="url(#paint4_linear_931:14989)"/>
<path d="M211.151 288.41C210.715 289.974 209.284 291.12 207.58 291.12C205.737 291.12 204.207 289.774 203.921 288.009V290.236V292.392V293.198C203.921 293.538 203.693 293.824 203.38 293.909C203.38 293.909 203.38 293.909 203.377 293.909C203.687 293.82 203.914 293.538 203.914 293.198V292.392V290.236V287.964C203.887 287.784 203.874 287.604 203.874 287.417C203.874 287.23 203.887 287.046 203.914 286.869V284.554V284.547V283.17V282.391V280.932C203.914 280.81 203.908 280.687 203.891 280.565C203.887 280.565 203.887 280.568 203.884 280.568C203.704 279.184 202.52 278.113 201.089 278.113H200.388C200.33 278.113 200.276 278.123 200.221 278.137C199.994 278.208 199.83 278.422 199.83 278.674V278.678V280.442V280.446V280.582C199.83 280.575 199.83 280.572 199.827 280.565L199.83 281.078V285.162V285.166V287.237C199.83 287.288 199.827 287.339 199.827 287.39C199.827 287.441 199.827 287.492 199.83 287.543C199.851 288.536 200.055 289.498 200.439 290.409C200.83 291.334 201.388 292.164 202.102 292.875C202.493 293.266 202.918 293.609 203.377 293.905C203.755 294.15 204.149 294.361 204.567 294.534C205.526 294.939 206.54 295.143 207.587 295.143C208.634 295.143 209.651 294.939 210.607 294.534C211.532 294.143 212.361 293.586 213.072 292.871C213.783 292.157 214.344 291.331 214.735 290.406L211.151 288.41Z" fill="url(#paint5_linear_931:14989)"/>
<path d="M297.348 5.62796L299.239 3.49241C299.257 3.47003 299.279 3.45195 299.305 3.43953C299.331 3.42711 299.359 3.42065 299.388 3.42065C299.417 3.42065 299.445 3.42711 299.471 3.43953C299.496 3.45195 299.519 3.47003 299.537 3.49241L301.044 5.62796" fill="#F2BC0F"/>
<path d="M291.957 5.62809L293.465 3.49168C293.482 3.46929 293.505 3.45122 293.531 3.4388C293.557 3.42637 293.585 3.41992 293.614 3.41992C293.642 3.41992 293.671 3.42637 293.696 3.4388C293.722 3.45122 293.745 3.46929 293.763 3.49168L295.653 5.62723" fill="#F2BC0F"/>
<path d="M301.202 3.68757L299.262 5.22328L296.647 2.0625C296.629 2.04102 296.607 2.02375 296.581 2.0119C296.556 2.00004 296.528 1.9939 296.501 1.9939C296.473 1.9939 296.445 2.00004 296.42 2.0119C296.394 2.02375 296.372 2.04102 296.354 2.0625L293.738 5.22328L291.798 3.68757C291.769 3.66446 291.734 3.65039 291.697 3.64711C291.66 3.64383 291.623 3.65147 291.59 3.66911C291.557 3.68674 291.53 3.71359 291.512 3.74635C291.495 3.7791 291.487 3.81633 291.49 3.85343L291.914 8.76562C291.918 8.81273 291.94 8.85641 291.975 8.88817C292.011 8.91994 292.056 8.93752 292.104 8.9375H300.897C300.944 8.93752 300.99 8.91994 301.025 8.88817C301.06 8.85641 301.082 8.81273 301.087 8.76562L301.51 3.85515C301.514 3.8179 301.506 3.78043 301.489 3.7474C301.471 3.71436 301.444 3.68723 301.411 3.66937C301.379 3.65151 301.341 3.64371 301.304 3.64695C301.267 3.65018 301.231 3.66431 301.202 3.68757Z" fill="#F8DC25"/>
<g opacity="0.5">
<path opacity="0.5" d="M300.96 5.96922C300 7.79453 298.591 8.31875 297.077 8.57141L293.738 8.9375H300.897C300.944 8.93752 300.99 8.91994 301.025 8.88817C301.06 8.85641 301.082 8.81273 301.087 8.76562L301.412 4.98438L300.96 5.96922Z" fill="#F2BC0F"/>
</g>
<path opacity="0.4" d="M291.798 3.68769C291.769 3.66458 291.734 3.65051 291.697 3.64723C291.66 3.64395 291.623 3.65159 291.59 3.66923C291.557 3.68686 291.53 3.71371 291.512 3.74647C291.495 3.77922 291.487 3.81645 291.49 3.85355L291.914 8.76574C291.792 7.13167 291.826 5.48972 292.016 3.86215L291.798 3.68769Z" fill="white"/>
<path d="M299.092 4.98954L299.225 4.69391C299.229 4.6836 299.237 4.67481 299.246 4.66864C299.256 4.66247 299.267 4.65918 299.278 4.65918C299.289 4.65918 299.3 4.66247 299.31 4.66864C299.319 4.67481 299.326 4.6836 299.331 4.69391L299.464 4.98954L299.76 5.12274C299.77 5.1272 299.779 5.13458 299.785 5.14397C299.791 5.15336 299.794 5.16435 299.794 5.17559C299.794 5.18683 299.791 5.19782 299.785 5.20721C299.779 5.2166 299.77 5.22398 299.76 5.22844L299.464 5.36164L299.331 5.65727C299.326 5.66758 299.319 5.67637 299.31 5.68254C299.3 5.68871 299.289 5.692 299.278 5.692C299.267 5.692 299.256 5.68871 299.246 5.68254C299.237 5.67637 299.229 5.66758 299.225 5.65727L299.092 5.36164L298.796 5.22844C298.786 5.22398 298.777 5.2166 298.771 5.20721C298.765 5.19782 298.761 5.18683 298.761 5.17559C298.761 5.16435 298.765 5.15336 298.771 5.14397C298.777 5.13458 298.786 5.1272 298.796 5.12274L299.092 4.98954Z" fill="white"/>
<path d="M295.452 5.3926V7.01252L296.5 7.61064L297.542 7.01338L297.548 5.3926L296.5 4.7876L295.452 5.3926Z" fill="#F85565"/>
<path opacity="0.15" d="M295.833 5.68639V6.71763L296.5 7.11552L297.167 6.73224V5.68639L296.5 5.30225L295.833 5.68639Z" fill="white"/>
<path opacity="0.2" d="M297.542 7.01344L297.167 6.73242L296.5 7.1157V7.6107L297.542 7.01344Z" fill="#393C54"/>
<path opacity="0.3" d="M296.5 4.7876V5.30236L295.833 5.6865L295.452 5.3926L296.5 4.7876Z" fill="white"/>
<defs>
<linearGradient id="paint0_linear_931:14989" x1="199.744" y1="288.44" x2="214.299" y2="283.079" gradientUnits="userSpaceOnUse">
<stop offset="0.3232" stop-color="#001AFF"/>
<stop offset="0.7076" stop-color="#007AFF"/>
</linearGradient>
<linearGradient id="paint1_linear_931:14989" x1="203.415" y1="291.037" x2="204.721" y2="290.529" gradientUnits="userSpaceOnUse">
<stop stop-color="#FF2D55"/>
<stop offset="0.9351" stop-color="#FF3B30" stop-opacity="0.5"/>
</linearGradient>
<linearGradient id="paint2_linear_931:14989" x1="200.21" y1="288.511" x2="213.971" y2="282.783" gradientUnits="userSpaceOnUse">
<stop stop-color="#21AFFF"/>
<stop offset="0.572307" stop-color="#007AFF"/>
</linearGradient>
<linearGradient id="paint3_linear_931:14989" x1="199.744" y1="288.434" x2="214.299" y2="283.073" gradientUnits="userSpaceOnUse">
<stop offset="0.3232" stop-color="#001AFF"/>
<stop offset="0.7076" stop-color="#007AFF"/>
</linearGradient>
<linearGradient id="paint4_linear_931:14989" x1="203.415" y1="291.031" x2="204.721" y2="290.522" gradientUnits="userSpaceOnUse">
<stop stop-color="#FF2D55"/>
<stop offset="0.9351" stop-color="#FF3B30" stop-opacity="0.5"/>
</linearGradient>
<linearGradient id="paint5_linear_931:14989" x1="200.21" y1="288.505" x2="213.971" y2="282.777" gradientUnits="userSpaceOnUse">
<stop stop-color="#21AFFF"/>
<stop offset="0.572307" stop-color="#007AFF"/>
</linearGradient>
</defs>
</svg>
