<svg width="44" height="44" viewBox="0 0 44 44" fill="none" xmlns="http://www.w3.org/2000/svg">
<g clip-path="url(#clip0)">
<path d="M21.7 35.4C29.2663 35.4 35.4 29.2663 35.4 21.7C35.4 14.1337 29.2663 8 21.7 8C14.1337 8 8 14.1337 8 21.7C8 29.2663 14.1337 35.4 21.7 35.4Z" fill="#D8D8D8"/>
<path d="M21.7 26.4C25.8 26.4 29.5 28.1999 31.9 30.9C32.1999 30.5999 32.4 30.3 32.7 30C30.1 27.1 26.1 25.2 21.7 25.2C17.3 25.2 13.3 27.1 10.7 30C11 30.3 11.2 30.5999 11.5 30.9C13.9 28.1999 17.6 26.4 21.7 26.4Z" fill="white"/>
<path d="M26.8001 18.2C26.8001 15.4 24.5001 13.1 21.7001 13.1C18.9001 13.1 16.6001 15.4 16.6001 18.2C16.6001 21 18.9001 23.3 21.7001 23.3C24.5001 23.4 26.8001 21.1 26.8001 18.2ZM17.9001 18.2C17.9001 16.1 19.6001 14.4 21.7001 14.4C23.8001 14.4 25.5001 16.1 25.5001 18.2C25.5001 20.3 23.8001 22 21.7001 22C19.6001 22 17.9001 20.3 17.9001 18.2Z" fill="white"/>
</g>
<defs>
<clipPath id="clip0">
<rect width="27.4" height="27.4" fill="white" transform="translate(8 8)"/>
</clipPath>
</defs>
</svg>
