<svg width="20" height="20" viewBox="0 0 20 20" fill="none" xmlns="http://www.w3.org/2000/svg">
<path d="M1.24517 6.91551C1.188 6.88272 1.13811 6.83941 1.09833 6.78805C1.01951 6.68469 0.986126 6.5556 1.0054 6.42872C1.02467 6.30183 1.09505 6.18736 1.2013 6.11009L7.60743 1.50092L8.45314 0.884738L9.37143 0.224669C9.57752 0.0771671 9.82788 -0.00166835 10.0846 9.16813e-05C10.3414 0.00185171 10.5906 0.0841119 10.7945 0.234424L11.6689 0.884738L12.5045 1.49929L19.2106 6.50781C19.2635 6.54667 19.3079 6.59518 19.3413 6.65056C19.3747 6.70595 19.4913 6.93663 19.5001 7.00011C19.509 7.0636 19.5048 7.12814 19.4877 7.19005C19.4707 7.25197 19.4412 7.31004 19.4008 7.36096C19.3605 7.41189 19.3101 7.45465 19.2526 7.48683C19.1951 7.519 19.1316 7.53995 19.0656 7.54848C18.9997 7.55701 19 7.5 18.748 7.38286C18.6837 7.36645 18.649 7.32218 18.5961 7.28332L10.1783 1.0148C10.1491 0.993696 10.1136 0.982286 10.077 0.982286C10.0405 0.982286 10.005 0.993696 9.97575 1.0148L1.80731 6.88722C1.75401 6.92557 1.69338 6.95342 1.62889 6.96919C1.56441 6.98496 1.49733 6.98833 1.43148 6.97912C1.36564 6.96991 1.30233 6.9483 1.24517 6.91551Z" fill="#AEAEB2"/>
<path d="M17.6562 5.91113C17.0346 5.91113 2.34375 5.91113 2.34375 5.91113C1.72215 5.91113 1.12601 6.15853 0.686468 6.59889C0.24693 7.03926 0 7.63653 0 8.2593L0 17.652C0 18.2747 0.24693 18.872 0.686468 19.3124C1.12601 19.7527 1.72215 20.0001 2.34375 20.0001H17.6562C18.2779 20.0001 18.874 19.7527 19.3135 19.3124C19.7531 18.872 20 18.2747 20 17.652V8.2593C20 7.63653 19.7531 7.03926 19.3135 6.59889C18.874 6.15853 18.2779 5.91113 17.6562 5.91113ZM19.0625 17.652C19.0625 18.0256 18.9143 18.384 18.6506 18.6482C18.3869 18.9124 18.0292 19.0609 17.6562 19.0609H2.34375C1.97079 19.0609 1.6131 18.9124 1.34938 18.6482C1.08566 18.384 0.9375 18.0256 0.9375 17.652V8.2593C0.9375 7.88563 1.08566 7.52728 1.34938 7.26306C1.6131 6.99884 2.62704 5.91113 3 5.91113C3 5.91113 16.627 5.91113 17 5.91113C17.373 5.91113 18.3869 6.99884 18.6506 7.26306C18.9143 7.52728 19.0625 7.88563 19.0625 8.2593V17.652Z" fill="#AEAEB2"/>
<path d="M1.75975 17.9985C1.79657 18.048 1.84275 18.0897 1.89566 18.1212C1.94858 18.1528 2.00718 18.1736 2.06812 18.1825C2.12907 18.1913 2.19116 18.1881 2.25085 18.1729C2.31054 18.1577 2.36666 18.1309 2.416 18.094L9.97694 12.4396C10.004 12.4193 10.0369 12.4083 10.0707 12.4083C10.1045 12.4083 10.1374 12.4193 10.1644 12.4396L17.5769 18.119C17.6259 18.1565 17.6817 18.1838 17.7412 18.1997C17.8007 18.2155 17.8627 18.2194 17.9237 18.2111C17.9847 18.2029 18.0435 18.1828 18.0968 18.1518C18.15 18.1208 18.1966 18.0796 18.234 18.0306C18.2713 17.9816 18.2987 17.9256 18.3144 17.866C18.3302 17.8064 18.3341 17.7443 18.3259 17.6831C18.3177 17.622 18.2976 17.5631 18.2666 17.5098C18.2357 17.4564 18.1946 17.4097 18.1457 17.3723L12.3176 12.9061L18.0816 8.55418C18.1313 8.51708 18.1732 8.47054 18.2049 8.41722C18.2366 8.3639 18.2575 8.30484 18.2664 8.24343C18.2753 8.18201 18.2721 8.11943 18.2569 8.05927C18.2416 7.99911 18.2148 7.94253 18.1777 7.89279C18.1407 7.84304 18.0942 7.80108 18.041 7.76932C17.9878 7.73756 17.9288 7.71661 17.8675 7.70767C17.8062 7.69873 17.7438 7.70197 17.6837 7.71722C17.6237 7.73246 17.5672 7.7594 17.5176 7.79651L11.5441 12.3144L10.7347 11.6882C10.546 11.5435 10.3154 11.4643 10.0777 11.4626C9.84007 11.4609 9.60832 11.5368 9.41756 11.6788L8.56756 12.3144L2.52381 7.79651C2.47447 7.75961 2.41834 7.73281 2.35866 7.71763C2.29897 7.70246 2.23688 7.69922 2.17595 7.70809C2.11501 7.71695 2.05641 7.73776 2.0035 7.76931C1.95058 7.80087 1.90439 7.84256 1.86756 7.892C1.83073 7.94144 1.80398 7.99767 1.78884 8.05747C1.77369 8.11727 1.77045 8.17947 1.7793 8.24052C1.78815 8.30158 1.80892 8.36028 1.84042 8.4133C1.87192 8.46631 1.91353 8.51259 1.96287 8.54949L7.78475 12.9077L1.85506 17.3457C1.75671 17.4201 1.69156 17.5303 1.67373 17.6525C1.65589 17.7747 1.68679 17.899 1.75975 17.9985Z" fill="#AEAEB2"/>
</svg>
