<svg width="22" height="22" viewBox="0 0 22 22" fill="none" xmlns="http://www.w3.org/2000/svg">
<path d="M11 6.84375C10.178 6.84375 9.3744 7.08751 8.69091 7.5442C8.00742 8.0009 7.4747 8.65002 7.16013 9.40947C6.84555 10.1689 6.76324 11.0046 6.92361 11.8108C7.08398 12.6171 7.47983 13.3577 8.06109 13.9389C8.64235 14.5202 9.38292 14.916 10.1892 15.0764C10.9954 15.2368 11.8311 15.1545 12.5905 14.8399C13.35 14.5253 13.9991 13.9926 14.4558 13.3091C14.9125 12.6256 15.1562 11.822 15.1562 11C15.1562 9.89769 14.7184 8.84054 13.9389 8.06109C13.1595 7.28164 12.1023 6.84375 11 6.84375ZM11 13.7188C10.4623 13.7188 9.93664 13.5593 9.48954 13.2606C9.04245 12.9618 8.69398 12.5372 8.4882 12.0404C8.28243 11.5436 8.22859 10.997 8.33349 10.4696C8.43839 9.94221 8.69733 9.45778 9.07755 9.07755C9.45778 8.69733 9.94221 8.43839 10.4696 8.33349C10.997 8.22859 11.5436 8.28243 12.0404 8.4882C12.5372 8.69398 12.9618 9.04245 13.2606 9.48954C13.5593 9.93664 13.7188 10.4623 13.7188 11C13.7188 11.7211 13.4323 12.4126 12.9224 12.9224C12.4126 13.4323 11.7211 13.7188 11 13.7188Z" fill="#646464" stroke="#646464" stroke-width="0.5"/>
<mask id="path-2-outside-1_938:4714" maskUnits="userSpaceOnUse" x="0" y="0" width="22" height="22" fill="black">
<rect fill="white" width="22" height="22"/>
<path d="M19.9062 8.5H18.5109C18.4784 8.49976 18.4468 8.4894 18.4205 8.47035C18.3942 8.45131 18.3745 8.42453 18.3641 8.39375C18.2733 8.13584 18.1689 7.88289 18.0516 7.63594C18.0369 7.6068 18.0317 7.5738 18.0368 7.54158C18.0418 7.50936 18.0568 7.47952 18.0797 7.45625L19.0656 6.46875C19.1672 6.36718 19.2478 6.24661 19.3027 6.1139C19.3577 5.98119 19.386 5.83895 19.386 5.69531C19.386 5.55167 19.3577 5.40943 19.3027 5.27673C19.2478 5.14402 19.1672 5.02344 19.0656 4.92188L17.0766 2.93438C16.975 2.8328 16.8544 2.75222 16.7217 2.69725C16.589 2.64228 16.4468 2.61398 16.3031 2.61398C16.1595 2.61398 16.0172 2.64228 15.8845 2.69725C15.7518 2.75222 15.6313 2.8328 15.5297 2.93438L14.5437 3.92031C14.5205 3.94317 14.4906 3.95817 14.4584 3.96321C14.4262 3.96826 14.3932 3.96309 14.3641 3.94844C14.1171 3.83102 13.8642 3.72671 13.6062 3.63594C13.5755 3.62554 13.5487 3.60581 13.5296 3.57948C13.5106 3.55316 13.5002 3.52155 13.5 3.48906V2.09375C13.5 1.80367 13.3848 1.52547 13.1796 1.32035C12.9745 1.11523 12.6963 1 12.4062 1H9.59375C9.30367 1 9.02547 1.11523 8.82035 1.32035C8.61523 1.52547 8.5 1.80367 8.5 2.09375V3.48906C8.49976 3.52155 8.4894 3.55316 8.47035 3.57948C8.45131 3.60581 8.42453 3.62554 8.39375 3.63594C8.13584 3.72674 7.88289 3.83106 7.63594 3.94844C7.6068 3.96309 7.5738 3.96826 7.54158 3.96321C7.50936 3.95817 7.47952 3.94317 7.45625 3.92031L6.46875 2.93438C6.36718 2.8328 6.24661 2.75222 6.1139 2.69725C5.98119 2.64228 5.83895 2.61398 5.69531 2.61398C5.55167 2.61398 5.40943 2.64228 5.27673 2.69725C5.14402 2.75222 5.02344 2.8328 4.92188 2.93438L2.93438 4.92344C2.8328 5.025 2.75222 5.14558 2.69725 5.27829C2.64228 5.411 2.61398 5.55323 2.61398 5.69688C2.61398 5.84052 2.64228 5.98275 2.69725 6.11546C2.75222 6.24817 2.8328 6.36875 2.93438 6.47031L3.92031 7.45625C3.94317 7.47952 3.95817 7.50936 3.96321 7.54158C3.96826 7.5738 3.96309 7.6068 3.94844 7.63594C3.83102 7.88287 3.72671 8.13583 3.63594 8.39375C3.62554 8.42453 3.60581 8.45131 3.57948 8.47035C3.55316 8.4894 3.52155 8.49976 3.48906 8.5H2.09375C1.80367 8.5 1.52547 8.61523 1.32035 8.82035C1.11523 9.02547 1 9.30367 1 9.59375L1 12.4062C1 12.6963 1.11523 12.9745 1.32035 13.1796C1.52547 13.3848 1.80367 13.5 2.09375 13.5H3.48906C3.52155 13.5002 3.55316 13.5106 3.57948 13.5296C3.60581 13.5487 3.62554 13.5755 3.63594 13.6062C3.72674 13.8642 3.83106 14.1171 3.94844 14.3641C3.96309 14.3932 3.96826 14.4262 3.96321 14.4584C3.95817 14.4906 3.94317 14.5205 3.92031 14.5437L2.93438 15.5312C2.8328 15.6328 2.75222 15.7534 2.69725 15.8861C2.64228 16.0188 2.61398 16.161 2.61398 16.3047C2.61398 16.4483 2.64228 16.5906 2.69725 16.7233C2.75222 16.856 2.8328 16.9766 2.93438 17.0781L4.92344 19.0672C5.025 19.1688 5.14558 19.2493 5.27829 19.3043C5.411 19.3593 5.55323 19.3876 5.69688 19.3876C5.84052 19.3876 5.98275 19.3593 6.11546 19.3043C6.24817 19.2493 6.36875 19.1688 6.47031 19.0672L7.45625 18.0812C7.47952 18.0584 7.50936 18.0434 7.54158 18.0383C7.5738 18.0333 7.6068 18.0385 7.63594 18.0531C7.88287 18.1705 8.13583 18.2749 8.39375 18.3656C8.42453 18.376 8.45131 18.3958 8.47035 18.4221C8.4894 18.4484 8.49976 18.48 8.5 18.5125V19.9062C8.5 20.1963 8.61523 20.4745 8.82035 20.6796C9.02547 20.8848 9.30367 21 9.59375 21H12.4062C12.6963 21 12.9745 20.8848 13.1796 20.6796C13.3848 20.4745 13.5 20.1963 13.5 19.9062V18.5109C13.5002 18.4784 13.5106 18.4468 13.5296 18.4205C13.5487 18.3942 13.5755 18.3745 13.6062 18.3641C13.8642 18.2733 14.1171 18.1689 14.3641 18.0516C14.3932 18.0369 14.4262 18.0317 14.4584 18.0368C14.4906 18.0418 14.5205 18.0568 14.5437 18.0797L15.5312 19.0656C15.6328 19.1672 15.7534 19.2478 15.8861 19.3027C16.0188 19.3577 16.161 19.386 16.3047 19.386C16.4483 19.386 16.5906 19.3577 16.7233 19.3027C16.856 19.2478 16.9766 19.1672 17.0781 19.0656L19.0672 17.0766C19.1688 16.975 19.2493 16.8544 19.3043 16.7217C19.3593 16.589 19.3876 16.4468 19.3876 16.3031C19.3876 16.1595 19.3593 16.0172 19.3043 15.8845C19.2493 15.7518 19.1688 15.6313 19.0672 15.5297L18.0812 14.5437C18.0584 14.5205 18.0434 14.4906 18.0383 14.4584C18.0333 14.4262 18.0385 14.3932 18.0531 14.3641C18.1705 14.1171 18.2749 13.8642 18.3656 13.6062C18.376 13.5755 18.3958 13.5487 18.4221 13.5296C18.4484 13.5106 18.48 13.5002 18.5125 13.5H19.9062C20.1963 13.5 20.4745 13.3848 20.6796 13.1796C20.8848 12.9745 21 12.6963 21 12.4062V9.59375C21 9.30367 20.8848 9.02547 20.6796 8.82035C20.4745 8.61523 20.1963 8.5 19.9062 8.5ZM20.0625 12.4062C20.0625 12.4477 20.046 12.4874 20.0167 12.5167C19.9874 12.546 19.9477 12.5625 19.9062 12.5625H18.5109C18.2843 12.5628 18.0634 12.6334 17.8786 12.7647C17.6939 12.896 17.5545 13.0814 17.4797 13.2953C17.3997 13.5219 17.3079 13.744 17.2047 13.9609C17.1057 14.1654 17.0728 14.3956 17.1106 14.6196C17.1484 14.8436 17.255 15.0503 17.4156 15.2109L18.4016 16.1969C18.4307 16.2262 18.447 16.2658 18.447 16.307C18.447 16.3483 18.4307 16.3879 18.4016 16.4172L16.4141 18.4031C16.3848 18.4322 16.3452 18.4486 16.3039 18.4486C16.2626 18.4486 16.223 18.4322 16.1937 18.4031L15.2078 17.4172C15.0472 17.2566 14.8405 17.15 14.6165 17.1122C14.3925 17.0744 14.1623 17.1072 13.9578 17.2062C13.7404 17.3096 13.5177 17.4014 13.2906 17.4813C13.077 17.5563 12.8919 17.6958 12.7609 17.8805C12.6299 18.0652 12.5595 18.2861 12.5594 18.5125V19.9062C12.5594 19.9477 12.5429 19.9874 12.5136 20.0167C12.4843 20.046 12.4446 20.0625 12.4031 20.0625H9.59375C9.55231 20.0625 9.51257 20.046 9.48326 20.0167C9.45396 19.9874 9.4375 19.9477 9.4375 19.9062V18.5109C9.43725 18.2843 9.3666 18.0634 9.23532 17.8786C9.10404 17.6939 8.91862 17.5545 8.70469 17.4797C8.47815 17.3997 8.25597 17.3079 8.03906 17.2047C7.8346 17.1057 7.60439 17.0728 7.38039 17.1106C7.15638 17.1484 6.94971 17.255 6.78906 17.4156L5.80312 18.4016C5.77385 18.4307 5.73425 18.447 5.69297 18.447C5.65169 18.447 5.61209 18.4307 5.58281 18.4016L3.59688 16.4141C3.56777 16.3848 3.55144 16.3452 3.55144 16.3039C3.55144 16.2626 3.56777 16.223 3.59688 16.1937L4.58281 15.2078C4.74343 15.0472 4.85004 14.8405 4.88784 14.6165C4.92564 14.3925 4.89276 14.1623 4.79375 13.9578C4.69043 13.7404 4.59864 13.5177 4.51875 13.2906C4.44327 13.0778 4.30377 12.8936 4.11941 12.7632C3.93505 12.6328 3.71486 12.5627 3.48906 12.5625H2.09375C2.05231 12.5625 2.01257 12.546 1.98326 12.5167C1.95396 12.4874 1.9375 12.4477 1.9375 12.4062V9.59375C1.9375 9.55231 1.95396 9.51257 1.98326 9.48326C2.01257 9.45396 2.05231 9.4375 2.09375 9.4375H3.48906C3.71569 9.43725 3.93665 9.3666 4.12139 9.23532C4.30613 9.10404 4.44552 8.91862 4.52031 8.70469C4.60026 8.47815 4.69205 8.25597 4.79531 8.03906C4.89432 7.8346 4.9272 7.60439 4.8894 7.38039C4.8516 7.15638 4.74499 6.94971 4.58438 6.78906L3.59844 5.80312C3.56934 5.77385 3.553 5.73425 3.553 5.69297C3.553 5.65169 3.56934 5.61209 3.59844 5.58281L5.58594 3.59688C5.61521 3.56777 5.65481 3.55144 5.69609 3.55144C5.73737 3.55144 5.77697 3.56777 5.80625 3.59688L6.79219 4.58281C6.95284 4.74343 7.15951 4.85004 7.38351 4.88784C7.60751 4.92564 7.83773 4.89276 8.04219 4.79375C8.2596 4.69043 8.48231 4.59864 8.70937 4.51875C8.92218 4.44327 9.10642 4.30377 9.23678 4.11941C9.36715 3.93505 9.43726 3.71486 9.4375 3.48906V2.09375C9.4375 2.05231 9.45396 2.01257 9.48326 1.98326C9.51257 1.95396 9.55231 1.9375 9.59375 1.9375H12.4062C12.4477 1.9375 12.4874 1.95396 12.5167 1.98326C12.546 2.01257 12.5625 2.05231 12.5625 2.09375V3.48906C12.5628 3.71569 12.6334 3.93665 12.7647 4.12139C12.896 4.30613 13.0814 4.44552 13.2953 4.52031C13.5219 4.60026 13.744 4.69205 13.9609 4.79531C14.1654 4.89432 14.3956 4.9272 14.6196 4.8894C14.8436 4.8516 15.0503 4.74499 15.2109 4.58438L16.1969 3.59844C16.2262 3.56934 16.2658 3.553 16.307 3.553C16.3483 3.553 16.3879 3.56934 16.4172 3.59844L18.4062 5.5875C18.4354 5.61678 18.4517 5.65638 18.4517 5.69766C18.4517 5.73894 18.4354 5.77854 18.4062 5.80781L17.4203 6.79375C17.2597 6.9544 17.1531 7.16107 17.1153 7.38507C17.0775 7.60908 17.1104 7.83929 17.2094 8.04375C17.3127 8.26116 17.4045 8.48387 17.4844 8.71094C17.5594 8.92458 17.6989 9.10966 17.8836 9.24065C18.0684 9.37163 18.2892 9.44205 18.5156 9.44219H19.9062C19.9477 9.44219 19.9874 9.45865 20.0167 9.48795C20.046 9.51725 20.0625 9.557 20.0625 9.59844V12.4062Z"/>
</mask>
<path d="M19.9062 8.5H18.5109C18.4784 8.49976 18.4468 8.4894 18.4205 8.47035C18.3942 8.45131 18.3745 8.42453 18.3641 8.39375C18.2733 8.13584 18.1689 7.88289 18.0516 7.63594C18.0369 7.6068 18.0317 7.5738 18.0368 7.54158C18.0418 7.50936 18.0568 7.47952 18.0797 7.45625L19.0656 6.46875C19.1672 6.36718 19.2478 6.24661 19.3027 6.1139C19.3577 5.98119 19.386 5.83895 19.386 5.69531C19.386 5.55167 19.3577 5.40943 19.3027 5.27673C19.2478 5.14402 19.1672 5.02344 19.0656 4.92188L17.0766 2.93438C16.975 2.8328 16.8544 2.75222 16.7217 2.69725C16.589 2.64228 16.4468 2.61398 16.3031 2.61398C16.1595 2.61398 16.0172 2.64228 15.8845 2.69725C15.7518 2.75222 15.6313 2.8328 15.5297 2.93438L14.5437 3.92031C14.5205 3.94317 14.4906 3.95817 14.4584 3.96321C14.4262 3.96826 14.3932 3.96309 14.3641 3.94844C14.1171 3.83102 13.8642 3.72671 13.6062 3.63594C13.5755 3.62554 13.5487 3.60581 13.5296 3.57948C13.5106 3.55316 13.5002 3.52155 13.5 3.48906V2.09375C13.5 1.80367 13.3848 1.52547 13.1796 1.32035C12.9745 1.11523 12.6963 1 12.4062 1H9.59375C9.30367 1 9.02547 1.11523 8.82035 1.32035C8.61523 1.52547 8.5 1.80367 8.5 2.09375V3.48906C8.49976 3.52155 8.4894 3.55316 8.47035 3.57948C8.45131 3.60581 8.42453 3.62554 8.39375 3.63594C8.13584 3.72674 7.88289 3.83106 7.63594 3.94844C7.6068 3.96309 7.5738 3.96826 7.54158 3.96321C7.50936 3.95817 7.47952 3.94317 7.45625 3.92031L6.46875 2.93438C6.36718 2.8328 6.24661 2.75222 6.1139 2.69725C5.98119 2.64228 5.83895 2.61398 5.69531 2.61398C5.55167 2.61398 5.40943 2.64228 5.27673 2.69725C5.14402 2.75222 5.02344 2.8328 4.92188 2.93438L2.93438 4.92344C2.8328 5.025 2.75222 5.14558 2.69725 5.27829C2.64228 5.411 2.61398 5.55323 2.61398 5.69688C2.61398 5.84052 2.64228 5.98275 2.69725 6.11546C2.75222 6.24817 2.8328 6.36875 2.93438 6.47031L3.92031 7.45625C3.94317 7.47952 3.95817 7.50936 3.96321 7.54158C3.96826 7.5738 3.96309 7.6068 3.94844 7.63594C3.83102 7.88287 3.72671 8.13583 3.63594 8.39375C3.62554 8.42453 3.60581 8.45131 3.57948 8.47035C3.55316 8.4894 3.52155 8.49976 3.48906 8.5H2.09375C1.80367 8.5 1.52547 8.61523 1.32035 8.82035C1.11523 9.02547 1 9.30367 1 9.59375L1 12.4062C1 12.6963 1.11523 12.9745 1.32035 13.1796C1.52547 13.3848 1.80367 13.5 2.09375 13.5H3.48906C3.52155 13.5002 3.55316 13.5106 3.57948 13.5296C3.60581 13.5487 3.62554 13.5755 3.63594 13.6062C3.72674 13.8642 3.83106 14.1171 3.94844 14.3641C3.96309 14.3932 3.96826 14.4262 3.96321 14.4584C3.95817 14.4906 3.94317 14.5205 3.92031 14.5437L2.93438 15.5312C2.8328 15.6328 2.75222 15.7534 2.69725 15.8861C2.64228 16.0188 2.61398 16.161 2.61398 16.3047C2.61398 16.4483 2.64228 16.5906 2.69725 16.7233C2.75222 16.856 2.8328 16.9766 2.93438 17.0781L4.92344 19.0672C5.025 19.1688 5.14558 19.2493 5.27829 19.3043C5.411 19.3593 5.55323 19.3876 5.69688 19.3876C5.84052 19.3876 5.98275 19.3593 6.11546 19.3043C6.24817 19.2493 6.36875 19.1688 6.47031 19.0672L7.45625 18.0812C7.47952 18.0584 7.50936 18.0434 7.54158 18.0383C7.5738 18.0333 7.6068 18.0385 7.63594 18.0531C7.88287 18.1705 8.13583 18.2749 8.39375 18.3656C8.42453 18.376 8.45131 18.3958 8.47035 18.4221C8.4894 18.4484 8.49976 18.48 8.5 18.5125V19.9062C8.5 20.1963 8.61523 20.4745 8.82035 20.6796C9.02547 20.8848 9.30367 21 9.59375 21H12.4062C12.6963 21 12.9745 20.8848 13.1796 20.6796C13.3848 20.4745 13.5 20.1963 13.5 19.9062V18.5109C13.5002 18.4784 13.5106 18.4468 13.5296 18.4205C13.5487 18.3942 13.5755 18.3745 13.6062 18.3641C13.8642 18.2733 14.1171 18.1689 14.3641 18.0516C14.3932 18.0369 14.4262 18.0317 14.4584 18.0368C14.4906 18.0418 14.5205 18.0568 14.5437 18.0797L15.5312 19.0656C15.6328 19.1672 15.7534 19.2478 15.8861 19.3027C16.0188 19.3577 16.161 19.386 16.3047 19.386C16.4483 19.386 16.5906 19.3577 16.7233 19.3027C16.856 19.2478 16.9766 19.1672 17.0781 19.0656L19.0672 17.0766C19.1688 16.975 19.2493 16.8544 19.3043 16.7217C19.3593 16.589 19.3876 16.4468 19.3876 16.3031C19.3876 16.1595 19.3593 16.0172 19.3043 15.8845C19.2493 15.7518 19.1688 15.6313 19.0672 15.5297L18.0812 14.5437C18.0584 14.5205 18.0434 14.4906 18.0383 14.4584C18.0333 14.4262 18.0385 14.3932 18.0531 14.3641C18.1705 14.1171 18.2749 13.8642 18.3656 13.6062C18.376 13.5755 18.3958 13.5487 18.4221 13.5296C18.4484 13.5106 18.48 13.5002 18.5125 13.5H19.9062C20.1963 13.5 20.4745 13.3848 20.6796 13.1796C20.8848 12.9745 21 12.6963 21 12.4062V9.59375C21 9.30367 20.8848 9.02547 20.6796 8.82035C20.4745 8.61523 20.1963 8.5 19.9062 8.5ZM20.0625 12.4062C20.0625 12.4477 20.046 12.4874 20.0167 12.5167C19.9874 12.546 19.9477 12.5625 19.9062 12.5625H18.5109C18.2843 12.5628 18.0634 12.6334 17.8786 12.7647C17.6939 12.896 17.5545 13.0814 17.4797 13.2953C17.3997 13.5219 17.3079 13.744 17.2047 13.9609C17.1057 14.1654 17.0728 14.3956 17.1106 14.6196C17.1484 14.8436 17.255 15.0503 17.4156 15.2109L18.4016 16.1969C18.4307 16.2262 18.447 16.2658 18.447 16.307C18.447 16.3483 18.4307 16.3879 18.4016 16.4172L16.4141 18.4031C16.3848 18.4322 16.3452 18.4486 16.3039 18.4486C16.2626 18.4486 16.223 18.4322 16.1937 18.4031L15.2078 17.4172C15.0472 17.2566 14.8405 17.15 14.6165 17.1122C14.3925 17.0744 14.1623 17.1072 13.9578 17.2062C13.7404 17.3096 13.5177 17.4014 13.2906 17.4813C13.077 17.5563 12.8919 17.6958 12.7609 17.8805C12.6299 18.0652 12.5595 18.2861 12.5594 18.5125V19.9062C12.5594 19.9477 12.5429 19.9874 12.5136 20.0167C12.4843 20.046 12.4446 20.0625 12.4031 20.0625H9.59375C9.55231 20.0625 9.51257 20.046 9.48326 20.0167C9.45396 19.9874 9.4375 19.9477 9.4375 19.9062V18.5109C9.43725 18.2843 9.3666 18.0634 9.23532 17.8786C9.10404 17.6939 8.91862 17.5545 8.70469 17.4797C8.47815 17.3997 8.25597 17.3079 8.03906 17.2047C7.8346 17.1057 7.60439 17.0728 7.38039 17.1106C7.15638 17.1484 6.94971 17.255 6.78906 17.4156L5.80312 18.4016C5.77385 18.4307 5.73425 18.447 5.69297 18.447C5.65169 18.447 5.61209 18.4307 5.58281 18.4016L3.59688 16.4141C3.56777 16.3848 3.55144 16.3452 3.55144 16.3039C3.55144 16.2626 3.56777 16.223 3.59688 16.1937L4.58281 15.2078C4.74343 15.0472 4.85004 14.8405 4.88784 14.6165C4.92564 14.3925 4.89276 14.1623 4.79375 13.9578C4.69043 13.7404 4.59864 13.5177 4.51875 13.2906C4.44327 13.0778 4.30377 12.8936 4.11941 12.7632C3.93505 12.6328 3.71486 12.5627 3.48906 12.5625H2.09375C2.05231 12.5625 2.01257 12.546 1.98326 12.5167C1.95396 12.4874 1.9375 12.4477 1.9375 12.4062V9.59375C1.9375 9.55231 1.95396 9.51257 1.98326 9.48326C2.01257 9.45396 2.05231 9.4375 2.09375 9.4375H3.48906C3.71569 9.43725 3.93665 9.3666 4.12139 9.23532C4.30613 9.10404 4.44552 8.91862 4.52031 8.70469C4.60026 8.47815 4.69205 8.25597 4.79531 8.03906C4.89432 7.8346 4.9272 7.60439 4.8894 7.38039C4.8516 7.15638 4.74499 6.94971 4.58438 6.78906L3.59844 5.80312C3.56934 5.77385 3.553 5.73425 3.553 5.69297C3.553 5.65169 3.56934 5.61209 3.59844 5.58281L5.58594 3.59688C5.61521 3.56777 5.65481 3.55144 5.69609 3.55144C5.73737 3.55144 5.77697 3.56777 5.80625 3.59688L6.79219 4.58281C6.95284 4.74343 7.15951 4.85004 7.38351 4.88784C7.60751 4.92564 7.83773 4.89276 8.04219 4.79375C8.2596 4.69043 8.48231 4.59864 8.70937 4.51875C8.92218 4.44327 9.10642 4.30377 9.23678 4.11941C9.36715 3.93505 9.43726 3.71486 9.4375 3.48906V2.09375C9.4375 2.05231 9.45396 2.01257 9.48326 1.98326C9.51257 1.95396 9.55231 1.9375 9.59375 1.9375H12.4062C12.4477 1.9375 12.4874 1.95396 12.5167 1.98326C12.546 2.01257 12.5625 2.05231 12.5625 2.09375V3.48906C12.5628 3.71569 12.6334 3.93665 12.7647 4.12139C12.896 4.30613 13.0814 4.44552 13.2953 4.52031C13.5219 4.60026 13.744 4.69205 13.9609 4.79531C14.1654 4.89432 14.3956 4.9272 14.6196 4.8894C14.8436 4.8516 15.0503 4.74499 15.2109 4.58438L16.1969 3.59844C16.2262 3.56934 16.2658 3.553 16.307 3.553C16.3483 3.553 16.3879 3.56934 16.4172 3.59844L18.4062 5.5875C18.4354 5.61678 18.4517 5.65638 18.4517 5.69766C18.4517 5.73894 18.4354 5.77854 18.4062 5.80781L17.4203 6.79375C17.2597 6.9544 17.1531 7.16107 17.1153 7.38507C17.0775 7.60908 17.1104 7.83929 17.2094 8.04375C17.3127 8.26116 17.4045 8.48387 17.4844 8.71094C17.5594 8.92458 17.6989 9.10966 17.8836 9.24065C18.0684 9.37163 18.2892 9.44205 18.5156 9.44219H19.9062C19.9477 9.44219 19.9874 9.45865 20.0167 9.48795C20.046 9.51725 20.0625 9.557 20.0625 9.59844V12.4062Z" fill="#646464"/>
<path d="M19.9062 8.5H18.5109C18.4784 8.49976 18.4468 8.4894 18.4205 8.47035C18.3942 8.45131 18.3745 8.42453 18.3641 8.39375C18.2733 8.13584 18.1689 7.88289 18.0516 7.63594C18.0369 7.6068 18.0317 7.5738 18.0368 7.54158C18.0418 7.50936 18.0568 7.47952 18.0797 7.45625L19.0656 6.46875C19.1672 6.36718 19.2478 6.24661 19.3027 6.1139C19.3577 5.98119 19.386 5.83895 19.386 5.69531C19.386 5.55167 19.3577 5.40943 19.3027 5.27673C19.2478 5.14402 19.1672 5.02344 19.0656 4.92188L17.0766 2.93438C16.975 2.8328 16.8544 2.75222 16.7217 2.69725C16.589 2.64228 16.4468 2.61398 16.3031 2.61398C16.1595 2.61398 16.0172 2.64228 15.8845 2.69725C15.7518 2.75222 15.6313 2.8328 15.5297 2.93438L14.5437 3.92031C14.5205 3.94317 14.4906 3.95817 14.4584 3.96321C14.4262 3.96826 14.3932 3.96309 14.3641 3.94844C14.1171 3.83102 13.8642 3.72671 13.6062 3.63594C13.5755 3.62554 13.5487 3.60581 13.5296 3.57948C13.5106 3.55316 13.5002 3.52155 13.5 3.48906V2.09375C13.5 1.80367 13.3848 1.52547 13.1796 1.32035C12.9745 1.11523 12.6963 1 12.4062 1H9.59375C9.30367 1 9.02547 1.11523 8.82035 1.32035C8.61523 1.52547 8.5 1.80367 8.5 2.09375V3.48906C8.49976 3.52155 8.4894 3.55316 8.47035 3.57948C8.45131 3.60581 8.42453 3.62554 8.39375 3.63594C8.13584 3.72674 7.88289 3.83106 7.63594 3.94844C7.6068 3.96309 7.5738 3.96826 7.54158 3.96321C7.50936 3.95817 7.47952 3.94317 7.45625 3.92031L6.46875 2.93438C6.36718 2.8328 6.24661 2.75222 6.1139 2.69725C5.98119 2.64228 5.83895 2.61398 5.69531 2.61398C5.55167 2.61398 5.40943 2.64228 5.27673 2.69725C5.14402 2.75222 5.02344 2.8328 4.92188 2.93438L2.93438 4.92344C2.8328 5.025 2.75222 5.14558 2.69725 5.27829C2.64228 5.411 2.61398 5.55323 2.61398 5.69688C2.61398 5.84052 2.64228 5.98275 2.69725 6.11546C2.75222 6.24817 2.8328 6.36875 2.93438 6.47031L3.92031 7.45625C3.94317 7.47952 3.95817 7.50936 3.96321 7.54158C3.96826 7.5738 3.96309 7.6068 3.94844 7.63594C3.83102 7.88287 3.72671 8.13583 3.63594 8.39375C3.62554 8.42453 3.60581 8.45131 3.57948 8.47035C3.55316 8.4894 3.52155 8.49976 3.48906 8.5H2.09375C1.80367 8.5 1.52547 8.61523 1.32035 8.82035C1.11523 9.02547 1 9.30367 1 9.59375L1 12.4062C1 12.6963 1.11523 12.9745 1.32035 13.1796C1.52547 13.3848 1.80367 13.5 2.09375 13.5H3.48906C3.52155 13.5002 3.55316 13.5106 3.57948 13.5296C3.60581 13.5487 3.62554 13.5755 3.63594 13.6062C3.72674 13.8642 3.83106 14.1171 3.94844 14.3641C3.96309 14.3932 3.96826 14.4262 3.96321 14.4584C3.95817 14.4906 3.94317 14.5205 3.92031 14.5437L2.93438 15.5312C2.8328 15.6328 2.75222 15.7534 2.69725 15.8861C2.64228 16.0188 2.61398 16.161 2.61398 16.3047C2.61398 16.4483 2.64228 16.5906 2.69725 16.7233C2.75222 16.856 2.8328 16.9766 2.93438 17.0781L4.92344 19.0672C5.025 19.1688 5.14558 19.2493 5.27829 19.3043C5.411 19.3593 5.55323 19.3876 5.69688 19.3876C5.84052 19.3876 5.98275 19.3593 6.11546 19.3043C6.24817 19.2493 6.36875 19.1688 6.47031 19.0672L7.45625 18.0812C7.47952 18.0584 7.50936 18.0434 7.54158 18.0383C7.5738 18.0333 7.6068 18.0385 7.63594 18.0531C7.88287 18.1705 8.13583 18.2749 8.39375 18.3656C8.42453 18.376 8.45131 18.3958 8.47035 18.4221C8.4894 18.4484 8.49976 18.48 8.5 18.5125V19.9062C8.5 20.1963 8.61523 20.4745 8.82035 20.6796C9.02547 20.8848 9.30367 21 9.59375 21H12.4062C12.6963 21 12.9745 20.8848 13.1796 20.6796C13.3848 20.4745 13.5 20.1963 13.5 19.9062V18.5109C13.5002 18.4784 13.5106 18.4468 13.5296 18.4205C13.5487 18.3942 13.5755 18.3745 13.6062 18.3641C13.8642 18.2733 14.1171 18.1689 14.3641 18.0516C14.3932 18.0369 14.4262 18.0317 14.4584 18.0368C14.4906 18.0418 14.5205 18.0568 14.5437 18.0797L15.5312 19.0656C15.6328 19.1672 15.7534 19.2478 15.8861 19.3027C16.0188 19.3577 16.161 19.386 16.3047 19.386C16.4483 19.386 16.5906 19.3577 16.7233 19.3027C16.856 19.2478 16.9766 19.1672 17.0781 19.0656L19.0672 17.0766C19.1688 16.975 19.2493 16.8544 19.3043 16.7217C19.3593 16.589 19.3876 16.4468 19.3876 16.3031C19.3876 16.1595 19.3593 16.0172 19.3043 15.8845C19.2493 15.7518 19.1688 15.6313 19.0672 15.5297L18.0812 14.5437C18.0584 14.5205 18.0434 14.4906 18.0383 14.4584C18.0333 14.4262 18.0385 14.3932 18.0531 14.3641C18.1705 14.1171 18.2749 13.8642 18.3656 13.6062C18.376 13.5755 18.3958 13.5487 18.4221 13.5296C18.4484 13.5106 18.48 13.5002 18.5125 13.5H19.9062C20.1963 13.5 20.4745 13.3848 20.6796 13.1796C20.8848 12.9745 21 12.6963 21 12.4062V9.59375C21 9.30367 20.8848 9.02547 20.6796 8.82035C20.4745 8.61523 20.1963 8.5 19.9062 8.5ZM20.0625 12.4062C20.0625 12.4477 20.046 12.4874 20.0167 12.5167C19.9874 12.546 19.9477 12.5625 19.9062 12.5625H18.5109C18.2843 12.5628 18.0634 12.6334 17.8786 12.7647C17.6939 12.896 17.5545 13.0814 17.4797 13.2953C17.3997 13.5219 17.3079 13.744 17.2047 13.9609C17.1057 14.1654 17.0728 14.3956 17.1106 14.6196C17.1484 14.8436 17.255 15.0503 17.4156 15.2109L18.4016 16.1969C18.4307 16.2262 18.447 16.2658 18.447 16.307C18.447 16.3483 18.4307 16.3879 18.4016 16.4172L16.4141 18.4031C16.3848 18.4322 16.3452 18.4486 16.3039 18.4486C16.2626 18.4486 16.223 18.4322 16.1937 18.4031L15.2078 17.4172C15.0472 17.2566 14.8405 17.15 14.6165 17.1122C14.3925 17.0744 14.1623 17.1072 13.9578 17.2062C13.7404 17.3096 13.5177 17.4014 13.2906 17.4813C13.077 17.5563 12.8919 17.6958 12.7609 17.8805C12.6299 18.0652 12.5595 18.2861 12.5594 18.5125V19.9062C12.5594 19.9477 12.5429 19.9874 12.5136 20.0167C12.4843 20.046 12.4446 20.0625 12.4031 20.0625H9.59375C9.55231 20.0625 9.51257 20.046 9.48326 20.0167C9.45396 19.9874 9.4375 19.9477 9.4375 19.9062V18.5109C9.43725 18.2843 9.3666 18.0634 9.23532 17.8786C9.10404 17.6939 8.91862 17.5545 8.70469 17.4797C8.47815 17.3997 8.25597 17.3079 8.03906 17.2047C7.8346 17.1057 7.60439 17.0728 7.38039 17.1106C7.15638 17.1484 6.94971 17.255 6.78906 17.4156L5.80312 18.4016C5.77385 18.4307 5.73425 18.447 5.69297 18.447C5.65169 18.447 5.61209 18.4307 5.58281 18.4016L3.59688 16.4141C3.56777 16.3848 3.55144 16.3452 3.55144 16.3039C3.55144 16.2626 3.56777 16.223 3.59688 16.1937L4.58281 15.2078C4.74343 15.0472 4.85004 14.8405 4.88784 14.6165C4.92564 14.3925 4.89276 14.1623 4.79375 13.9578C4.69043 13.7404 4.59864 13.5177 4.51875 13.2906C4.44327 13.0778 4.30377 12.8936 4.11941 12.7632C3.93505 12.6328 3.71486 12.5627 3.48906 12.5625H2.09375C2.05231 12.5625 2.01257 12.546 1.98326 12.5167C1.95396 12.4874 1.9375 12.4477 1.9375 12.4062V9.59375C1.9375 9.55231 1.95396 9.51257 1.98326 9.48326C2.01257 9.45396 2.05231 9.4375 2.09375 9.4375H3.48906C3.71569 9.43725 3.93665 9.3666 4.12139 9.23532C4.30613 9.10404 4.44552 8.91862 4.52031 8.70469C4.60026 8.47815 4.69205 8.25597 4.79531 8.03906C4.89432 7.8346 4.9272 7.60439 4.8894 7.38039C4.8516 7.15638 4.74499 6.94971 4.58438 6.78906L3.59844 5.80312C3.56934 5.77385 3.553 5.73425 3.553 5.69297C3.553 5.65169 3.56934 5.61209 3.59844 5.58281L5.58594 3.59688C5.61521 3.56777 5.65481 3.55144 5.69609 3.55144C5.73737 3.55144 5.77697 3.56777 5.80625 3.59688L6.79219 4.58281C6.95284 4.74343 7.15951 4.85004 7.38351 4.88784C7.60751 4.92564 7.83773 4.89276 8.04219 4.79375C8.2596 4.69043 8.48231 4.59864 8.70937 4.51875C8.92218 4.44327 9.10642 4.30377 9.23678 4.11941C9.36715 3.93505 9.43726 3.71486 9.4375 3.48906V2.09375C9.4375 2.05231 9.45396 2.01257 9.48326 1.98326C9.51257 1.95396 9.55231 1.9375 9.59375 1.9375H12.4062C12.4477 1.9375 12.4874 1.95396 12.5167 1.98326C12.546 2.01257 12.5625 2.05231 12.5625 2.09375V3.48906C12.5628 3.71569 12.6334 3.93665 12.7647 4.12139C12.896 4.30613 13.0814 4.44552 13.2953 4.52031C13.5219 4.60026 13.744 4.69205 13.9609 4.79531C14.1654 4.89432 14.3956 4.9272 14.6196 4.8894C14.8436 4.8516 15.0503 4.74499 15.2109 4.58438L16.1969 3.59844C16.2262 3.56934 16.2658 3.553 16.307 3.553C16.3483 3.553 16.3879 3.56934 16.4172 3.59844L18.4062 5.5875C18.4354 5.61678 18.4517 5.65638 18.4517 5.69766C18.4517 5.73894 18.4354 5.77854 18.4062 5.80781L17.4203 6.79375C17.2597 6.9544 17.1531 7.16107 17.1153 7.38507C17.0775 7.60908 17.1104 7.83929 17.2094 8.04375C17.3127 8.26116 17.4045 8.48387 17.4844 8.71094C17.5594 8.92458 17.6989 9.10966 17.8836 9.24065C18.0684 9.37163 18.2892 9.44205 18.5156 9.44219H19.9062C19.9477 9.44219 19.9874 9.45865 20.0167 9.48795C20.046 9.51725 20.0625 9.557 20.0625 9.59844V12.4062Z" stroke="#646464" mask="url(#path-2-outside-1_938:4714)"/>
</svg>
