<svg width="20" height="20" viewBox="0 0 20 20" fill="none" xmlns="http://www.w3.org/2000/svg">
<g clip-path="url(#clip0_703_14157)">
<path d="M18.239 4.9735C18.2022 4.92414 18.156 4.88251 18.1031 4.851C18.0502 4.81949 17.9916 4.79872 17.9307 4.78987C17.8697 4.78102 17.8076 4.78426 17.7479 4.79942C17.6882 4.81457 17.6321 4.84134 17.5828 4.87819L10.0218 10.5219C9.9948 10.5422 9.9619 10.5532 9.92809 10.5532C9.89428 10.5532 9.86139 10.5422 9.83434 10.5219L2.42184 4.85319C2.3729 4.81585 2.31709 4.78851 2.25759 4.77273C2.19808 4.75696 2.13605 4.75306 2.07504 4.76126C2.01403 4.76945 1.95523 4.78959 1.902 4.82051C1.84877 4.85143 1.80216 4.89253 1.76481 4.94147C1.72747 4.99041 1.70013 5.04622 1.68435 5.10573C1.66858 5.16523 1.66468 5.22726 1.67288 5.28827C1.68107 5.34928 1.70121 5.40808 1.73213 5.46131C1.76305 5.51454 1.80415 5.56116 1.85309 5.5985L7.68122 10.0563L1.91715 14.4001C1.8675 14.4371 1.82562 14.4836 1.79392 14.5368C1.76222 14.59 1.74131 14.6489 1.73239 14.7102C1.72346 14.7715 1.7267 14.834 1.74192 14.8941C1.75713 14.9541 1.78402 15.0106 1.82106 15.0602C1.8581 15.1099 1.90455 15.1518 1.95777 15.1835C2.01099 15.2152 2.06994 15.2361 2.13124 15.245C2.19254 15.2539 2.255 15.2507 2.31505 15.2355C2.3751 15.2202 2.43156 15.1934 2.48122 15.1563L8.45465 10.6469L9.26403 11.2719C9.45275 11.4164 9.68339 11.4955 9.92105 11.4971C10.1587 11.4988 10.3905 11.4231 10.5812 11.2813L11.4312 10.6469L17.475 15.1563C17.5243 15.1931 17.5804 15.2199 17.6401 15.235C17.6998 15.2502 17.7619 15.2534 17.8228 15.2446C17.8838 15.2357 17.9424 15.215 17.9953 15.1835C18.0482 15.152 18.0944 15.1104 18.1312 15.061C18.168 15.0117 18.1948 14.9555 18.2099 14.8958C18.2251 14.8362 18.2283 14.7741 18.2195 14.7131C18.2106 14.6522 18.1899 14.5936 18.1584 14.5407C18.1269 14.4878 18.0853 14.4416 18.0359 14.4048L12.214 10.0548L18.1437 5.62507C18.2421 5.5508 18.3072 5.44078 18.3251 5.31884C18.3429 5.19689 18.312 5.07283 18.239 4.9735Z" fill="#AEAEB2"/>
<path d="M17.6562 2.96875H2.34375C1.72215 2.96875 1.12601 3.21568 0.686468 3.65522C0.24693 4.09476 0 4.6909 0 5.3125L0 14.6875C0 15.3091 0.24693 15.9052 0.686468 16.3448C1.12601 16.7843 1.72215 17.0312 2.34375 17.0312H17.6562C18.2779 17.0312 18.874 16.7843 19.3135 16.3448C19.7531 15.9052 20 15.3091 20 14.6875V5.3125C20 4.6909 19.7531 4.09476 19.3135 3.65522C18.874 3.21568 18.2779 2.96875 17.6562 2.96875ZM19.0625 14.6875C19.0625 15.0605 18.9143 15.4181 18.6506 15.6819C18.3869 15.9456 18.0292 16.0938 17.6562 16.0938H2.34375C1.97079 16.0938 1.6131 15.9456 1.34938 15.6819C1.08566 15.4181 0.9375 15.0605 0.9375 14.6875V5.3125C0.9375 4.93954 1.08566 4.58185 1.34938 4.31813C1.6131 4.05441 1.97079 3.90625 2.34375 3.90625H17.6562C18.0292 3.90625 18.3869 4.05441 18.6506 4.31813C18.9143 4.58185 19.0625 4.93954 19.0625 5.3125V14.6875Z" fill="#AEAEB2"/>
</g>
<defs>
<clipPath id="clip0_703_14157">
<rect width="20" height="20" fill="white"/>
</clipPath>
</defs>
</svg>
