<svg width="40" height="40" viewBox="0 0 40 40" fill="none" xmlns="http://www.w3.org/2000/svg">
<rect width="40" height="40" rx="5" fill="#FF3B30"/>
<path d="M7.75006 33.125C7.62659 33.1258 7.50435 33.1004 7.39139 33.0505C7.27843 33.0006 7.17731 32.9274 7.09466 32.8357C7.01201 32.7439 6.94972 32.6358 6.91187 32.5182C6.87402 32.4007 6.86148 32.2765 6.87506 32.1538L7.66256 25.005C7.68463 24.8061 7.77419 24.6208 7.91631 24.48L24.6113 7.79375C24.9008 7.50248 25.2451 7.27132 25.6242 7.11358C26.0034 6.95584 26.41 6.87463 26.8207 6.87463C27.2314 6.87463 27.638 6.95584 28.0172 7.11358C28.3963 7.27132 28.7406 7.50248 29.0301 7.79375L32.2501 10.97C32.5413 11.2595 32.7725 11.6037 32.9302 11.9829C33.088 12.3621 33.1692 12.7687 33.1692 13.1794C33.1692 13.5901 33.088 13.9967 32.9302 14.3758C32.7725 14.755 32.5413 15.0993 32.2501 15.3888L15.5201 32.075C15.3792 32.2171 15.1939 32.3067 14.9951 32.3288L7.84631 33.125H7.75006ZM9.37756 25.495L8.73881 31.2613L14.5051 30.6225L30.9726 14.1463C31.228 13.8875 31.3712 13.5386 31.3712 13.175C31.3712 12.8114 31.228 12.4625 30.9726 12.2038L27.7963 9.0275C27.5376 8.77208 27.1886 8.62886 26.8251 8.62886C26.4615 8.62886 26.1126 8.77208 25.8538 9.0275L9.37756 25.495Z" fill="white"/>
<path d="M29.2051 18.0225C28.9755 18.0215 28.7555 17.9304 28.5926 17.7687L22.2313 11.4075C22.0677 11.2392 21.9776 11.0129 21.9809 10.7782C21.9842 10.5436 22.0806 10.3198 22.2488 10.1562C22.4171 9.99264 22.6434 9.90257 22.8781 9.90585C23.1127 9.90913 23.3365 10.0055 23.5001 10.1737L29.8263 16.5C29.9893 16.6639 30.0808 16.8857 30.0808 17.1169C30.0808 17.348 29.9893 17.5698 29.8263 17.7337C29.7475 17.8212 29.6519 17.8918 29.5451 17.9414C29.4384 17.9911 29.3227 18.0186 29.2051 18.0225Z" fill="white"/>
<path d="M22.2251 16.5355L14.2808 24.4798L15.5182 25.7172L23.4625 17.7729L22.2251 16.5355Z" fill="white"/>
</svg>
