<svg width="28" height="28" viewBox="0 0 28 28" fill="none" xmlns="http://www.w3.org/2000/svg">
<path d="M1.75006 27.125C1.62659 27.1258 1.50435 27.1004 1.39139 27.0505C1.27843 27.0006 1.17731 26.9274 1.09466 26.8357C1.01201 26.7439 0.949718 26.6358 0.91187 26.5182C0.874022 26.4007 0.861478 26.2765 0.875063 26.1538L1.66256 19.005C1.68463 18.8061 1.77419 18.6208 1.91631 18.48L18.6113 1.79375C18.9008 1.50248 19.2451 1.27132 19.6242 1.11358C20.0034 0.955839 20.41 0.874634 20.8207 0.874634C21.2314 0.874634 21.638 0.955839 22.0172 1.11358C22.3963 1.27132 22.7406 1.50248 23.0301 1.79375L26.2501 4.97C26.5413 5.2595 26.7725 5.60374 26.9302 5.98291C27.088 6.36209 27.1692 6.76871 27.1692 7.17938C27.1692 7.59005 27.088 7.99667 26.9302 8.37584C26.7725 8.75502 26.5413 9.09925 26.2501 9.38875L9.52006 26.075C9.37922 26.2171 9.19393 26.3067 8.99506 26.3288L1.84631 27.125H1.75006ZM3.37756 19.495L2.73881 25.2613L8.50506 24.6225L24.9726 8.14625C25.228 7.88752 25.3712 7.53858 25.3712 7.175C25.3712 6.81143 25.228 6.46249 24.9726 6.20375L21.7963 3.0275C21.5376 2.77208 21.1886 2.62886 20.8251 2.62886C20.4615 2.62886 20.1126 2.77208 19.8538 3.0275L3.37756 19.495Z" fill="white"/>
<path d="M23.2051 12.0225C22.9755 12.0215 22.7555 11.9304 22.5926 11.7687L16.2313 5.40749C16.0677 5.23924 15.9776 5.0129 15.9809 4.77824C15.9842 4.54359 16.0806 4.31985 16.2488 4.15624C16.4171 3.99264 16.6434 3.90257 16.8781 3.90585C17.1127 3.90913 17.3365 4.00549 17.5001 4.17374L23.8263 10.5C23.9893 10.6639 24.0808 10.8857 24.0808 11.1169C24.0808 11.348 23.9893 11.5698 23.8263 11.7337C23.7475 11.8212 23.6519 11.8918 23.5451 11.9414C23.4384 11.9911 23.3227 12.0186 23.2051 12.0225Z" fill="white"/>
<path d="M16.2251 10.5355L8.28076 18.4798L9.5182 19.7172L17.4625 11.7729L16.2251 10.5355Z" fill="white"/>
</svg>
