<svg xmlns="http://www.w3.org/2000/svg" viewBox="0 0 267.01 89.35"><defs><style>.cls-1{fill:#d50d18;}.cls-2{fill:#79b22a;}.cls-3{fill:#2a98d6;}.cls-4{fill:#f5b415;}</style></defs><g id="레이어_2" data-name="레이어 2"><g id="Layer_1" data-name="Layer 1"><path class="cls-1" d="M61,35a29.93,29.93,0,0,0-22.16-9.32,30.36,30.36,0,0,0-13.43,2.95v-7.5c0-.06,0-.12,0-.18a6.17,6.17,0,0,0,5-1.75,5.27,5.27,0,0,0,0-7.44L19.08,1.42a5.58,5.58,0,0,0-7.68.24L1.54,12.25a5.25,5.25,0,0,0,6,8.46c0,.14,0,.28,0,.43V80.26a8.85,8.85,0,0,0,2.62,6.43,8.55,8.55,0,0,0,6.34,2.66,8.59,8.59,0,0,0,6.35-2.68,7.11,7.11,0,0,0,.94-1.14,30.12,30.12,0,0,0,15.09,3.82A30,30,0,0,0,61,80a30.91,30.91,0,0,0,9.18-22.51A30.91,30.91,0,0,0,61,35ZM55,56.14a8.19,8.19,0,0,1-11.72,0,8.5,8.5,0,0,1,0-11.9,8.19,8.19,0,0,1,11.72,0,8.5,8.5,0,0,1,0,11.9Z"/><path class="cls-2" d="M97.42,89A25,25,0,0,1,79,81.2,25.76,25.76,0,0,1,71.3,62.44,25.78,25.78,0,0,1,79,43.68a25.85,25.85,0,0,1,36.93,0,25.78,25.78,0,0,1,7.65,18.76,25.76,25.76,0,0,1-7.65,18.76A25,25,0,0,1,97.42,89Zm0-15.16a10.72,10.72,0,0,0,7.91-3.33,11.48,11.48,0,0,0,0-16.07,11,11,0,0,0-15.82,0,11.46,11.46,0,0,0,0,16.07A10.7,10.7,0,0,0,97.42,73.81Z"/><path class="cls-3" d="M150.41,89a25,25,0,0,1-18.47-7.77,25.76,25.76,0,0,1-7.65-18.76,25.78,25.78,0,0,1,7.65-18.76,25.86,25.86,0,0,1,36.94,0,25.78,25.78,0,0,1,7.65,18.76,25.76,25.76,0,0,1-7.65,18.76A25,25,0,0,1,150.41,89Zm0-15.16a10.72,10.72,0,0,0,7.91-3.33,11.48,11.48,0,0,0,0-16.07,11,11,0,0,0-15.82,0,11.48,11.48,0,0,0,0,16.07A10.7,10.7,0,0,0,150.41,73.81Z"/><path class="cls-4" d="M267,81.39a7.32,7.32,0,0,1-2.18,5.36,7.39,7.39,0,0,1-10.56,0,7.36,7.36,0,0,1-2.18-5.36v-19a11,11,0,0,0-3.28-8,11,11,0,0,0-15.82,0,11,11,0,0,0-3.28,8v19a7.33,7.33,0,0,1-2.19,5.36,7.39,7.39,0,0,1-10.56,0,7.36,7.36,0,0,1-2.18-5.36v-19a11,11,0,0,0-3.28-8,11,11,0,0,0-15.82,0,11,11,0,0,0-3.28,8v19a7.33,7.33,0,0,1-2.19,5.36,7.38,7.38,0,0,1-10.55,0,7.33,7.33,0,0,1-2.19-5.36v-19a25.78,25.78,0,0,1,7.65-18.76,25.86,25.86,0,0,1,36.94,0l.18.19.19-.19a25.86,25.86,0,0,1,36.94,0A25.81,25.81,0,0,1,267,62.44Z"/></g></g></svg>