<svg xmlns="http://www.w3.org/2000/svg" viewBox="0 0 512 512"><defs><style>.cls-1{fill:#fff;}.cls-2{fill:#d40d18;}</style></defs><g id="레이어_2" data-name="레이어 2"><g id="레이어_1-2" data-name="레이어 1"><rect class="cls-1" width="512" height="512" rx="102"/><path class="cls-2" d="M341,225.56q-28.89-29.34-69.76-29.35A95.54,95.54,0,0,0,229,205.52V181.9c0-.19,0-.37,0-.56a19.51,19.51,0,0,0,15.81-5.51,16.62,16.62,0,0,0,0-23.43l-35.65-32.58c-6.44-6.44-17.75-5.67-24.2.77l-31,33.34a16.52,16.52,0,0,0,18.79,26.62c0,.45-.06.89-.06,1.35V368a27.82,27.82,0,0,0,8.24,20.26,28,28,0,0,0,40-.07,25.65,25.65,0,0,0,3-3.58q21.28,12,47.5,12,40.88,0,69.76-29.34t28.9-70.87Q369.94,254.91,341,225.56ZM322.12,292.1a25.75,25.75,0,0,1-36.89,0,26.74,26.74,0,0,1,0-37.47,25.75,25.75,0,0,1,36.89,0,26.77,26.77,0,0,1,0,37.47Z"/></g></g></svg>