<?xml version="1.0" encoding="UTF-8" standalone="no"?>
<!DOCTYPE svg PUBLIC "-//W3C//DTD SVG 1.1//EN" "http://www.w3.org/Graphics/SVG/1.1/DTD/svg11.dtd">
<svg width="100%" height="100%" viewBox="0 0 591 591" version="1.1" xmlns="http://www.w3.org/2000/svg" xmlns:xlink="http://www.w3.org/1999/xlink" xml:space="preserve" xmlns:serif="http://www.serif.com/" style="fill-rule:evenodd;clip-rule:evenodd;stroke-linejoin:round;stroke-miterlimit:2;">
    <g transform="matrix(7.77784,0,0,7.77784,-2221.58,-2586.51)">
        <path d="M336.465,388.103C340.13,385.561 342.964,381.904 344.474,377.624L323.651,377.624L323.651,364.69L359.904,364.69L359.71,374.321C358.784,383.357 354.921,391.434 349.006,397.353C339.103,399.16 334.833,396.154 336.465,388.103Z" style="fill:rgb(66,133,244);"/>
        <path d="M291.663,353.11C300.53,350.338 304.56,353.665 304.724,361.869C303.553,364.512 302.902,367.437 302.902,370.513C302.902,372.882 303.289,375.162 304.002,377.293C301.746,383.537 297.496,386.815 291.254,387.128C288.734,382.131 287.315,376.487 287.315,370.513C287.315,364.222 288.889,358.297 291.663,353.11Z" style="fill:rgb(251,188,7);"/>
        <path d="M349.006,397.353C342.728,403.637 334.139,407.492 324.294,407.492C309.859,407.492 297.344,399.203 291.254,387.128L304.002,377.293C306.839,385.781 314.857,391.905 324.294,391.905C328.815,391.905 333.009,390.5 336.465,388.103L349.006,397.353Z" style="fill:rgb(52,168,83);"/>
        <path d="M291.663,353.11C297.893,341.463 310.175,333.533 324.294,333.533C333.724,333.533 342.333,337.07 348.867,342.887L337.815,353.939C334.128,350.928 329.421,349.121 324.294,349.121C315.563,349.121 308.047,354.363 304.724,361.869L291.663,353.11Z" style="fill:rgb(234,66,54);"/>
    </g>
</svg>
