<?xml version="1.0" encoding="UTF-8" standalone="no"?>
<!DOCTYPE svg PUBLIC "-//W3C//DTD SVG 1.1//EN" "http://www.w3.org/Graphics/SVG/1.1/DTD/svg11.dtd">
<svg width="100%" height="100%" viewBox="0 0 668 157" version="1.1" xmlns="http://www.w3.org/2000/svg" xmlns:xlink="http://www.w3.org/1999/xlink" xml:space="preserve" xmlns:serif="http://www.serif.com/" style="fill-rule:evenodd;clip-rule:evenodd;stroke-linejoin:round;stroke-miterlimit:2;">
    <g transform="matrix(1,0,0,1,-260.042,-515.907)">
        <path d="M460,660.7L460,573.3C460,566.7 465.3,561.4 471.9,561.4L480.3,561.4C486.9,561.4 492.2,566.7 492.2,573.3L492.2,660.7C492.2,667.3 486.9,672.6 480.3,672.6L471.9,672.6C465.3,672.6 460,667.2 460,660.7" style="fill:rgb(47,48,47);fill-rule:nonzero;"/>
    </g>
    <g transform="matrix(1,0,0,1,-260.042,-515.907)">
        <path d="M559.2,667.3L533.2,622C532.5,620.8 530.8,621.3 530.8,622.7L530.8,662.2C530.8,668 526.1,672.6 520.4,672.6L510.3,672.6C504.5,672.6 499.9,667.9 499.9,662.2L499.9,571.8C499.9,566 504.6,561.4 510.3,561.4L524.8,561.4C528.6,561.4 532,563.4 533.9,566.7L558.9,610.6C559.6,611.8 561.3,611.3 561.3,610L561.3,571.9C561.3,566.1 566,561.5 571.7,561.5L581.8,561.5C587.6,561.5 592.2,566.2 592.2,571.9L592.2,662.3C592.2,668.1 587.5,672.7 581.8,672.7L568.3,672.7C564.6,672.6 561.1,670.6 559.2,667.3" style="fill:rgb(47,48,47);fill-rule:nonzero;"/>
    </g>
    <g transform="matrix(1,0,0,1,-260.042,-515.907)">
        <path d="M681,561.4L668.3,561.4C664.8,561.4 661.6,563 659.4,565.6L635,595.7C634.2,596.7 632.6,596.1 632.6,594.8L632.6,572.7C632.6,566.4 627.5,561.3 621.2,561.3L612,561.3C605.7,561.3 600.6,566.4 600.6,572.7L600.6,661C600.6,667.3 605.7,672.4 612,672.4L621.1,672.4C627.4,672.4 632.5,667.3 632.5,661L632.5,640.2C632.5,638.9 634.1,638.3 634.9,639.3L661.1,668.7C663.3,671.1 666.4,672.5 669.6,672.5L680.6,672.5C690.4,672.5 695.7,661 689.3,653.6L658.4,617.8C657.9,617.3 658,616.5 658.4,616L689.5,580.3C696.1,572.9 690.8,561.4 681,561.4" style="fill:rgb(47,48,47);fill-rule:nonzero;"/>
    </g>
    <g transform="matrix(1,0,0,1,-260.042,-515.907)">
        <path d="M696.2,660.7L696.2,573.3C696.2,566.7 701.5,561.4 708.1,561.4L716.5,561.4C723.1,561.4 728.4,566.7 728.4,573.3L728.4,660.7C728.4,667.3 723.1,672.6 716.5,672.6L708.1,672.6C701.5,672.6 696.2,667.2 696.2,660.7" style="fill:rgb(47,48,47);fill-rule:nonzero;"/>
    </g>
    <g transform="matrix(1,0,0,1,-260.042,-515.907)">
        <path d="M821.3,654.3L851.8,570.6C853.9,564.9 860.2,561.9 866,564L901.3,576.8C911.9,580.7 919.5,586.7 923.9,594.8C928.5,603.1 928.6,613.3 924.4,625C919.8,637.7 913,645.7 904.2,648.9C895.8,651.9 885.7,651.4 874.1,647.2L862.1,642.8C860.7,642.3 860,642.4 859.3,644.2L851.6,665.4C849.5,671.1 843.2,674.1 837.4,672L827.9,668.5C822.2,666.4 819.3,660 821.3,654.3M882.2,619.5C885.3,620.6 887.8,620.8 889.7,620C891.8,619.1 893.2,616.3 894.1,614C894.9,611.8 895.6,608.9 894.6,607.1C893.6,605.3 891.5,603.9 888.3,602.7L877.4,598.7C876.7,598.4 875.9,598.8 875.7,599.5L870.5,613.7C870.2,614.4 870.6,615.2 871.3,615.4L882.2,619.5Z" style="fill:rgb(47,48,47);fill-rule:nonzero;"/>
    </g>
    <g transform="matrix(1,0,0,1,-260.042,-515.907)">
        <path d="M862.4,551.5C855.6,540.5 850.6,529.2 847.6,517.5C847,516.1 845.3,515.5 843.9,516.2C834.1,523.3 823,528.7 810.7,532.8C809.1,533.6 809.3,535.9 811,536.5L820.1,539.8L794.8,609.4C792.2,616.7 790,619.4 788.7,620.6C787.7,621.7 784.9,624.5 776.6,621.5C768.2,618.4 767.9,614.5 767.8,612.7C767.6,611.2 767.7,607.7 770.3,600.5L789.1,549C791.4,542.7 788.1,535.7 781.8,533.4L773.9,530.5C767.6,528.2 760.6,531.5 758.3,537.8L739.5,589.4C735.5,600.4 734.2,609.5 735.4,617.3C737.9,631.7 748.4,642.4 766.6,649C784.8,655.6 799.7,654.2 810.8,644.7C816.7,639.6 821.5,631.7 825.5,620.7L850.9,551L859.8,554.2C861.5,554.7 863.2,553.1 862.4,551.5" style="fill:rgb(239,68,62);fill-rule:nonzero;"/>
    </g>
    <g transform="matrix(1,0,0,1,-260.042,-515.907)">
        <path d="M355,590.6C307.6,573.6 266.2,568 262.6,578.1C259,588.2 294.5,610.2 341.9,627.2C389.3,644.2 430.7,649.8 434.3,639.7C437.9,629.6 402.4,607.6 355,590.6ZM344.9,618.7C311.2,606.6 286,591 288.6,583.8C291.2,576.6 320.6,580.6 354.3,592.7C388,604.8 413.2,620.4 410.6,627.6C408,634.8 378.6,630.8 344.9,618.7Z" style="fill:rgb(239,68,62);fill-rule:nonzero;"/>
        <g>
            <path d="M377.8,520.3C346.8,509.2 313.8,522.4 303.9,549.9L291.8,583.6C291.1,587.1 296.3,592.2 305.3,598C303,589.8 302.9,574.7 313.6,548.3C324.6,521.3 354.7,518.2 378.8,520.7L377.8,520.3Z" style="fill:rgb(239,68,62);fill-rule:nonzero;"/>
        </g>
        <g>
            <path d="M382.5,522C413.5,533.1 430.6,564.4 420.7,591.8L408.6,625.5C406.9,628.6 399.6,629.3 389,628C396,623.1 409.7,610.2 418.2,583.1C426.9,555.3 402.4,529.2 381.4,521.6L382.5,522Z" style="fill:rgb(239,68,62);fill-rule:nonzero;"/>
        </g>
        <path d="M340.9,629.7C296,613.6 261.8,593 261.4,582.3C261,582.8 260.6,583.4 260.4,584.1C256.1,596.1 291,619.6 338.4,636.6C385.8,653.6 427.7,657.7 432,645.7C432.2,645.1 432.3,644.4 432.4,643.7C425.4,651.7 385.9,645.8 340.9,629.7Z" style="fill:rgb(239,68,62);fill-rule:nonzero;"/>
        <g>
            <g>
                <path d="M312.1,652.7L306.7,650.8L327.6,636.4L332.9,638.4L312.1,652.7Z" style="fill:rgb(239,68,62);fill-rule:nonzero;"/>
                <path d="M305.3,650.3C304.4,652.7 305.7,655.4 308.1,656.2C310.5,657.1 313.2,655.8 314,653.4C314.9,651 313.6,648.3 311.2,647.5C308.8,646.6 306.1,647.9 305.3,650.3Z" style="fill:rgb(239,68,62);fill-rule:nonzero;"/>
            </g>
            <g>
                <path d="M351.5,666.9L356.9,668.8L350,644.5L344.6,642.5L351.5,666.9Z" style="fill:rgb(239,68,62);fill-rule:nonzero;"/>
                <path d="M358.4,669.3C357.5,671.7 354.9,673 352.5,672.1C350.1,671.2 348.8,668.6 349.7,666.2C350.6,663.8 353.2,662.5 355.6,663.4C358,664.3 359.2,666.9 358.4,669.3Z" style="fill:rgb(239,68,62);fill-rule:nonzero;"/>
                <path d="M358.4,669.3C357.5,671.7 354.9,673 352.5,672.1C350.1,671.2 348.8,668.6 349.7,666.2C350.6,663.8 353.2,662.5 355.6,663.4C358,664.3 359.2,666.9 358.4,669.3Z" style="fill:rgb(239,68,62);fill-rule:nonzero;"/>
            </g>
            <g transform="matrix(0.3379,-0.9412,0.9412,0.3379,-391.733,746.506)">
                <rect x="322.8" y="649" width="23.9" height="5.3" style="fill:rgb(239,68,62);"/>
            </g>
            <path d="M335,664.5C334.1,666.9 331.5,668.2 329.1,667.3C326.7,666.4 325.4,663.8 326.3,661.4C327.2,659 329.8,657.7 332.2,658.6C334.7,659.4 335.9,662.1 335,664.5Z" style="fill:rgb(239,68,62);fill-rule:nonzero;"/>
        </g>
    </g>
    <g transform="matrix(1,0,0,1,-260.042,-515.907)">
        <path d="M376.4,552.6L367.1,549.3C360.2,546.8 352.5,550.4 350,557.4L331.8,608.2C337.4,610.7 343.4,613.1 349.9,615.4C355.5,617.4 361,619.2 366.2,620.6L384.4,569.6C386.9,562.7 383.3,555.1 376.4,552.6Z" style="fill:rgb(239,68,62);fill-rule:nonzero;"/>
        <g>
            <path d="M348.8,572.4C346.2,579.8 350,587.9 357.4,590.5C364.8,593.1 372.9,589.3 375.5,581.9C378.1,574.5 374.3,566.4 366.9,563.8C359.6,561.2 351.4,565 348.8,572.4Z" style="fill:white;fill-rule:nonzero;"/>
            <path d="M354.2,575.5C352.7,579.8 354.9,584.4 359.2,586C363.5,587.5 368.1,585.3 369.7,581C371.2,576.7 369,572.1 364.7,570.5C360.5,569 355.8,571.2 354.2,575.5Z" style="fill:rgb(47,48,47);fill-rule:nonzero;"/>
            <g>
                <path d="M395.6,581.3L390.5,595.5L375.5,590.1C373.8,589.5 371.9,590.4 371.3,592.1C370.7,593.8 371.6,595.7 373.3,596.3L391.4,602.8C393.1,603.4 395,602.5 395.6,600.8L401.8,583.5L395.6,581.3Z" style="fill:rgb(239,68,62);fill-rule:nonzero;"/>
            </g>
            <path d="M394.2,578.9C393.2,581.7 394.7,584.8 397.5,585.8C400.3,586.8 403.4,585.3 404.4,582.5C405.4,579.7 403.9,576.6 401.1,575.6C398.3,574.7 395.2,576.1 394.2,578.9Z" style="fill:rgb(239,68,62);fill-rule:nonzero;"/>
            <path d="M397,579.8C396.7,580.6 395.9,580.9 395.1,580.7C394.3,580.4 394,579.6 394.2,578.8L397.1,570.6C397.4,569.8 398.2,569.5 399,569.7C399.8,570 400.1,570.8 399.9,571.6L397,579.8Z" style="fill:rgb(239,68,62);fill-rule:nonzero;"/>
            <path d="M404.5,582.5C404.2,583.3 403.4,583.6 402.6,583.4C401.8,583.1 401.5,582.3 401.7,581.5L404.6,573.3C404.9,572.5 405.7,572.2 406.5,572.4C407.3,572.7 407.6,573.5 407.4,574.3L404.5,582.5Z" style="fill:rgb(239,68,62);fill-rule:nonzero;"/>
            <path d="M400.7,581.1C400.4,581.9 399.6,582.2 398.8,582C398,581.7 397.7,580.9 397.9,580.1L400.8,571.9C401.1,571.1 401.9,570.8 402.7,571C403.5,571.3 403.8,572.1 403.6,572.9L400.7,581.1Z" style="fill:rgb(239,68,62);fill-rule:nonzero;"/>
            <path d="M397.4,582.2C397.7,582.9 397.4,583.8 396.7,584.1C396,584.4 395.1,584.1 394.8,583.4L391.1,575.5C390.8,574.8 391.1,573.9 391.8,573.6C392.5,573.3 393.4,573.6 393.7,574.3L397.4,582.2Z" style="fill:rgb(239,68,62);fill-rule:nonzero;"/>
            <g>
                <g>
                    <path d="M334,559.2L328.9,573.4L343.9,578.8C345.6,579.4 346.5,581.3 345.9,583C345.3,584.7 343.4,585.6 341.7,585L323.6,578.5C321.9,577.9 321,576 321.6,574.3L327.8,557L334,559.2Z" style="fill:rgb(239,68,62);fill-rule:nonzero;"/>
                </g>
                <path d="M336.5,558.3C335.5,561.1 332.4,562.6 329.6,561.6C326.8,560.6 325.3,557.5 326.3,554.7C327.3,551.9 330.4,550.4 333.2,551.4C336.1,552.4 337.5,555.5 336.5,558.3Z" style="fill:rgb(239,68,62);fill-rule:nonzero;"/>
                <path d="M333.8,557.2C333.5,558 333.9,558.8 334.7,559.1C335.5,559.4 336.3,559 336.6,558.2L339.5,550C339.8,549.2 339.4,548.4 338.6,548.1C337.8,547.8 337,548.2 336.7,549L333.8,557.2Z" style="fill:rgb(239,68,62);fill-rule:nonzero;"/>
                <path d="M326.4,554.5C326.1,555.3 326.5,556.1 327.3,556.4C328.1,556.7 328.9,556.3 329.2,555.5L332.1,547.3C332.4,546.5 332,545.7 331.2,545.4C330.4,545.1 329.6,545.5 329.3,546.3L326.4,554.5Z" style="fill:rgb(239,68,62);fill-rule:nonzero;"/>
                <path d="M330.1,555.9C329.8,556.7 330.2,557.5 331,557.8C331.8,558.1 332.6,557.7 332.9,556.9L335.8,548.7C336.1,547.9 335.7,547.1 334.9,546.8C334.1,546.5 333.3,546.9 333,547.7L330.1,555.9Z" style="fill:rgb(239,68,62);fill-rule:nonzero;"/>
                <path d="M332,558.8C331.3,559.1 331,560 331.3,560.7C331.6,561.4 332.5,561.7 333.2,561.4L341.1,557.7C341.8,557.4 342.1,556.5 341.8,555.8C341.5,555.1 340.6,554.8 339.9,555.1L332,558.8Z" style="fill:rgb(239,68,62);fill-rule:nonzero;"/>
            </g>
        </g>
    </g>
</svg>
