<?xml version="1.0" encoding="UTF-8" standalone="no"?>
<!DOCTYPE svg PUBLIC "-//W3C//DTD SVG 1.1//EN" "http://www.w3.org/Graphics/SVG/1.1/DTD/svg11.dtd">
<svg width="100%" height="100%" viewBox="0 0 564 585" version="1.1" xmlns="http://www.w3.org/2000/svg" xmlns:xlink="http://www.w3.org/1999/xlink" xml:space="preserve" xmlns:serif="http://www.serif.com/" style="fill-rule:evenodd;clip-rule:evenodd;stroke-linejoin:round;stroke-miterlimit:2;">
    <g id="inkiup-logo2" transform="matrix(-1.27847,0,0,1.26899,484.532,-43.3247)">
        <g transform="matrix(1.06587,0,0,1.06587,-7.37915,-29.0823)">
            <path d="M147.465,406.112C147.464,440.175 110.677,476.962 76.616,476.962L76.6,476.962L76.6,406.112L147.465,406.112Z" style="fill:rgb(228,79,66);"/>
        </g>
        <g transform="matrix(-0.671896,0,0,0.69017,333.996,73.7899)">
            <path d="M563.47,224.536L408,224.536L408,380.006L419.01,380.006C498.739,380.006 563.47,316.518 563.47,238.32L563.47,224.536Z" style="fill:rgb(248,65,58);"/>
        </g>
        <g transform="matrix(-0.782185,0,0,0.788028,378.994,34.1411)">
            <path d="M514.155,247.027L542.548,247.027C542.548,328.271 489.244,385.13 408,385.13L408,355.201C466.589,355.201 514.155,305.616 514.155,247.027Z" style="fill:rgb(255,236,0);"/>
        </g>
        <g transform="matrix(1.07912,0,0,1.06063,-7.51058,-26.9655)">
            <path d="M76.6,406.112L94.929,406.112L94.929,473.657C88.888,475.785 82.709,476.962 76.616,476.962L76.6,476.962L76.6,406.112Z" style="fill:rgb(177,47,40);"/>
        </g>
        <path d="M77.023,326.794L155.956,326.794C200.63,326.793 236.898,290.524 236.898,245.852L240.898,308.323C240.898,352.995 200.63,389.264 155.956,389.264L77.023,389.264L77.023,326.794Z" style="fill:rgb(69,122,239);"/>
        <path d="M236.795,289.604L238.898,308.323C238.898,352.995 200.63,392.264 155.956,392.264L74.227,392.802L74.047,326.794L94.985,326.794L94.985,371.102L155.296,371.102C200.277,371.102 236.795,334.584 236.795,289.604Z" style="fill:rgb(50,64,169);"/>
        <path d="M232.464,227.809C233.932,228.009 235.41,228.176 236.898,228.309L236.898,245.852C236.898,290.524 200.63,326.793 155.956,326.794L77.023,326.794L77.023,282.281L155.956,282.281C191.361,282.281 221.487,259.5 232.464,227.809Z" style="fill:rgb(252,232,62);"/>
        <g transform="matrix(1.18355,0,0,1,-17.4348,1.42109e-14)">
            <rect x="77.023" y="282.281" width="17.962" height="44.513" style="fill:rgb(248,203,55);"/>
        </g>
        <path d="M77.023,282.281L77.023,215.513C77.023,151.116 117.527,94.483 171.934,68.473C157.373,85.454 151.025,107.817 151.025,131.918C151.025,181.026 190.238,213.383 232.464,227.809C221.487,259.5 191.361,282.281 155.956,282.281L77.023,282.281Z" style="fill:rgb(228,79,66);"/>
        <path d="M74.272,282.654L74.868,215.159C74.283,143.031 133.537,73.669 173.978,67.246C168.718,73.38 162.166,81.404 158.553,88.721C121.286,120.013 94.985,168.363 94.985,207.306L94.985,282.281L74.272,282.654Z" style="fill:rgb(177,47,40);"/>
        <path d="M237.2,211.145L237.2,53.336C199.184,53.336 165.684,93.601 165.684,131.617C165.684,172.898 197.031,206.916 237.2,211.145ZM201.216,94.094C208.519,94.094 214.449,100.024 214.449,107.327C214.449,114.63 208.519,120.56 201.216,120.56C193.913,120.56 187.983,114.63 187.983,107.327C187.983,100.024 193.913,94.094 201.216,94.094Z" style="fill:white;"/>
        <path d="M312.247,175.885C299.446,195.092 278.563,208.457 254.475,211.105L254.475,175.885L312.247,175.885Z" style="fill:rgb(248,203,55);"/>
        <path d="M254.538,51.434C329.897,51.434 361.254,104.244 361.254,158.596L254.538,158.596L254.538,51.434Z" style="fill:rgb(252,232,62);"/>
        <path d="M254.538,70.851C301.667,73.581 339.439,111.433 342.044,158.596L254.538,158.596L254.538,70.851Z" style="fill:rgb(248,203,55);"/>
        <g transform="matrix(-0.782185,0,0,0.788028,378.994,34.1411)">
            <path d="M0.453,179.791C-1.657,123.733 2.416,0.545 171.199,0.42C298.202,0.326 401.989,99.871 407.748,224.536L561.5,224.536C561.5,337.025 512.842,395.76 408,402.761L408,584.968C338.798,586.165 283.882,550.51 272.897,471.593C209.256,466.803 159.047,413.963 159.047,349.577L159.047,246.311C115.74,242.431 78.818,216.431 59.852,179.791L0.453,179.791ZM386.455,561.855L386.455,471.947L295.857,471.947C295.858,515.173 342.889,561.855 386.435,561.855L386.455,561.855ZM385.915,450.567L385.915,230.079C385.915,148.36 334.131,76.493 264.574,43.487C283.189,65.035 294.443,93.032 294.443,123.616C294.443,187.995 244.582,240.907 181.133,246.351L181.133,349.908C181.133,405.463 226.572,450.567 282.544,450.567L385.915,450.567ZM408,246.967L408,383.13C486.612,383.13 541.548,325.639 541.548,247.027L408,246.967ZM181.133,224.536L181.133,24.278C229.735,24.278 272.564,75.374 272.564,123.616C272.564,176.001 232.488,219.169 181.133,224.536ZM85.188,179.791L159.047,179.791L159.047,224.485C128.25,221.125 101.552,204.165 85.188,179.791ZM158.967,157.852L158.967,21.864C76.736,21.864 22.534,76.23 22.534,157.852L158.967,157.852ZM227.138,75.999C217.801,75.999 210.22,83.525 210.22,92.792C210.22,102.059 217.801,109.585 227.138,109.585C236.474,109.585 244.056,102.059 244.056,92.792C244.056,83.525 236.474,75.999 227.138,75.999Z"/>
        </g>
    </g>
</svg>
