<?xml version="1.0" encoding="UTF-8" standalone="no"?>
<!DOCTYPE svg PUBLIC "-//W3C//DTD SVG 1.1//EN" "http://www.w3.org/Graphics/SVG/1.1/DTD/svg11.dtd">
<svg width="100%" height="100%" viewBox="0 0 408 585" version="1.1" xmlns="http://www.w3.org/2000/svg" xmlns:xlink="http://www.w3.org/1999/xlink" xml:space="preserve" xmlns:serif="http://www.serif.com/" style="fill-rule:evenodd;clip-rule:evenodd;stroke-linejoin:round;stroke-miterlimit:2;">
    <g id="inkiup-logo2" transform="matrix(1.27847,0,0,1.26899,-76.386,-43.3247)">
        <g transform="matrix(1.06587,0,0,1.06587,-7.37915,-29.0823)">
            <path d="M147.465,406.112C147.464,440.175 110.677,476.962 76.616,476.962L76.6,476.962L76.6,406.112L147.465,406.112Z" style="fill:rgb(228,79,66);"/>
        </g>
        <g transform="matrix(1.07912,0,0,1.06063,-7.51058,-26.9655)">
            <path d="M76.6,406.112L94.929,406.112L94.929,473.657C88.888,475.785 82.709,476.962 76.616,476.962L76.6,476.962L76.6,406.112Z" style="fill:rgb(177,47,40);"/>
        </g>
        <path d="M77.023,326.794L155.956,326.794C200.63,326.793 236.898,290.524 236.898,245.852L240.898,308.323C240.898,352.995 200.63,389.264 155.956,389.264L77.023,389.264L77.023,326.794Z" style="fill:rgb(69,122,239);"/>
        <path d="M236.795,289.604L238.898,308.323C238.898,352.995 200.63,392.264 155.956,392.264L74.227,392.802L74.047,326.794L94.985,326.794L94.985,371.102L155.296,371.102C200.277,371.102 236.795,334.584 236.795,289.604Z" style="fill:rgb(50,64,169);"/>
        <path d="M232.464,227.809C233.932,228.009 235.41,228.176 236.898,228.309L236.898,245.852C236.898,290.524 200.63,326.793 155.956,326.794L77.023,326.794L77.023,282.281L155.956,282.281C191.361,282.281 221.487,259.5 232.464,227.809Z" style="fill:rgb(252,232,62);"/>
        <g transform="matrix(1.18355,0,0,1,-17.4348,1.42109e-14)">
            <rect x="77.023" y="282.281" width="17.962" height="44.513" style="fill:rgb(248,203,55);"/>
        </g>
        <path d="M77.023,282.281L77.023,215.513C77.023,151.116 117.527,94.483 171.934,68.473C157.373,85.454 151.025,107.817 151.025,131.918C151.025,181.026 190.238,213.383 232.464,227.809C221.487,259.5 191.361,282.281 155.956,282.281L77.023,282.281Z" style="fill:rgb(228,79,66);"/>
        <path d="M74.272,282.654L74.868,215.159C74.283,143.031 133.537,73.669 173.978,67.246C168.718,73.38 162.166,81.404 158.553,88.721C121.286,120.013 94.985,168.363 94.985,207.306L94.985,282.281L74.272,282.654Z" style="fill:rgb(177,47,40);"/>
        <path d="M237.2,211.145L237.2,53.336C199.184,53.336 165.684,93.601 165.684,131.617C165.684,172.898 197.031,206.916 237.2,211.145ZM201.216,94.094C208.519,94.094 214.449,100.024 214.449,107.327C214.449,114.63 208.519,120.56 201.216,120.56C193.913,120.56 187.983,114.63 187.983,107.327C187.983,100.024 193.913,94.094 201.216,94.094Z" style="fill:white;"/>
        <path d="M312.247,175.885C299.446,195.092 278.563,208.457 254.475,211.105L254.475,175.885L312.247,175.885Z" style="fill:rgb(248,203,55);"/>
        <path d="M254.538,51.434C329.897,51.434 361.254,104.244 361.254,158.596L254.538,158.596L254.538,51.434Z" style="fill:rgb(252,232,62);"/>
        <path d="M254.538,70.851C301.667,73.581 339.439,111.433 342.044,158.596L254.538,158.596L254.538,70.851Z" style="fill:rgb(248,203,55);"/>
        <g transform="matrix(1,0,0,1,0.114292,-0.0632223)">
            <path d="M59.748,495.176L59.748,219.756C59.748,117.53 142.744,34.459 244.97,34.535C376.99,34.634 380.176,131.71 378.525,175.885L332.064,175.885C317.23,204.758 288.35,225.247 254.475,228.304L254.475,309.681C254.475,360.419 215.203,402.058 165.424,405.833C156.831,468.022 113.877,496.119 59.748,495.176ZM147.465,406.112L76.6,406.112L76.6,476.962L76.616,476.962C110.677,476.962 147.464,440.175 147.465,406.112ZM157.878,389.264C201.658,389.264 237.2,353.721 237.2,309.942L237.2,228.336C187.571,224.046 148.571,182.35 148.571,131.617C148.571,107.516 157.373,85.454 171.934,68.473C117.527,94.483 77.023,151.116 77.023,215.513L77.023,389.264L157.878,389.264ZM237.2,211.145L237.2,53.336C199.184,53.336 165.684,93.601 165.684,131.617C165.684,172.898 197.031,206.916 237.2,211.145ZM312.247,175.885L254.475,175.885L254.475,211.105C278.564,208.457 299.447,195.092 312.247,175.885ZM254.538,51.434L254.538,158.596L361.254,158.596C361.254,94.276 318.858,51.434 254.538,51.434ZM201.216,94.094C208.519,94.094 214.449,100.024 214.449,107.327C214.449,114.63 208.519,120.56 201.216,120.56C193.913,120.56 187.983,114.63 187.983,107.327C187.983,100.024 193.913,94.094 201.216,94.094Z"/>
        </g>
    </g>
</svg>
