<?xml version="1.0" encoding="UTF-8" standalone="no"?>
<!DOCTYPE svg PUBLIC "-//W3C//DTD SVG 1.1//EN" "http://www.w3.org/Graphics/SVG/1.1/DTD/svg11.dtd">
<svg width="100%" height="100%" viewBox="0 0 16 16" version="1.1" xmlns="http://www.w3.org/2000/svg" xmlns:xlink="http://www.w3.org/1999/xlink" xml:space="preserve" xmlns:serif="http://www.serif.com/" style="fill-rule:evenodd;clip-rule:evenodd;stroke-linejoin:round;stroke-miterlimit:2;">
    <g transform="matrix(-1,-1.22465e-16,1.22465e-16,-1,444.383,307.7)">
        <path d="M428.5,298.8L436.2,291.8C436.3,291.7 436.5,291.7 436.6,291.8L444.3,298.8C444.5,299 444.3,299.2 444.1,299.2L442.2,299.2C442.1,299.2 441.9,299.3 441.9,299.4L441.9,303.9C441.9,306 440,307.7 437.7,307.7L431,307.7C430.9,307.7 430.7,307.6 430.7,307.5L430.7,299.5C430.7,299.4 430.6,299.3 430.4,299.3L428.5,299.3C428.4,299.2 428.3,298.9 428.5,298.8Z" style="fill:rgb(221,221,221);fill-rule:nonzero;"/>
    </g>
</svg>
