<svg xmlns="http://www.w3.org/2000/svg" viewBox="0 0 512 512"><defs><style>.cls-1{fill:#d40d18;}.cls-2{fill:none;}</style></defs><g id="레이어_2" data-name="레이어 2"><g id="레이어_1-2" data-name="레이어 1"><path class="cls-1" d="M332.19,152.21a50.61,50.61,0,0,0-37.42-15.74,51.21,51.21,0,0,0-22.68,5V128.79c0-.1,0-.19,0-.29a10.51,10.51,0,0,0,8.48-3,8.93,8.93,0,0,0,0-12.57L261.44,95.5c-3.46-3.46-9.52-3-13,.41l-16.65,17.88a8.86,8.86,0,0,0,10.08,14.28c0,.24,0,.48,0,.72v99.82a14.89,14.89,0,0,0,4.42,10.86,15,15,0,0,0,21.43,0,15.56,15.56,0,0,0,1.59-1.92,52.79,52.79,0,0,0,62.89-9.29,54.38,54.38,0,0,0,0-76ZM322,187.9a13.82,13.82,0,0,1-19.79,0,14.37,14.37,0,0,1,0-20.1,13.82,13.82,0,0,1,19.79,0,14.37,14.37,0,0,1,0,20.1Z"/><rect class="cls-2" x="203.77" y="92.74" width="169.37" height="151.59"/><rect class="cls-2" width="512" height="512"/></g></g></svg>