<?xml version="1.0" encoding="UTF-8" standalone="no"?>
<!DOCTYPE svg PUBLIC "-//W3C//DTD SVG 1.1//EN" "http://www.w3.org/Graphics/SVG/1.1/DTD/svg11.dtd">
<svg width="100%" height="100%" viewBox="0 0 230 525" version="1.1" xmlns="http://www.w3.org/2000/svg" xmlns:xlink="http://www.w3.org/1999/xlink" xml:space="preserve" xmlns:serif="http://www.serif.com/" style="fill-rule:evenodd;clip-rule:evenodd;stroke-linejoin:round;stroke-miterlimit:2;">
    <g id="inkiup-logo2" transform="matrix(-0.364396,0,0,0.361694,204.062,129.859)">
        <g transform="matrix(-1.86455,0,0,1.87848,1293.89,-989.274)">
            <path d="M614.3,585.8C544.8,560.8 484.1,552.6 478.8,567.4C473.5,582.2 525.5,614.4 595,639.4C664.5,664.4 725.2,672.6 730.5,657.8C735.9,642.9 683.8,610.7 614.3,585.8ZM599.5,627C550.1,609.3 513.1,586.4 516.9,575.8C520.7,565.3 563.8,571.1 613.2,588.9C662.6,606.6 699.6,629.5 695.8,640.1C692,650.6 648.9,644.7 599.5,627Z" style="fill:rgb(239,68,62);fill-rule:nonzero;"/>
            <g>
                <path d="M647.7,482.7C602.3,466.4 553.8,485.8 539.3,526.1L521.6,575.5C520.6,580.6 528.2,588.2 541.4,596.6C538.1,584.5 537.9,562.4 553.6,523.8C569.7,484.2 613.9,479.7 649.3,483.3L647.7,482.7Z" style="fill:rgb(239,68,62);fill-rule:nonzero;"/>
            </g>
            <g>
                <path d="M654.7,485.2C700.1,501.5 725.2,547.3 710.7,587.6L693,637C690.5,641.5 679.9,642.6 664.3,640.7C674.6,633.5 694.7,614.6 707.2,574.8C720,534 684.1,495.7 653.2,484.6L654.7,485.2Z" style="fill:rgb(239,68,62);fill-rule:nonzero;"/>
            </g>
            <path d="M593.8,643.1C527.9,619.5 477.8,589.3 477.2,573.6C476.6,574.4 476.1,575.2 475.8,576.2C469.5,593.8 520.7,628.3 590.2,653.2C659.7,678.2 721.2,684.1 727.5,666.5C727.8,665.6 728,664.6 728,663.6C717.5,675.3 659.6,666.7 593.8,643.1Z" style="fill:rgb(239,68,62);fill-rule:nonzero;"/>
            <g>
                <g>
                    <path d="M551.5,676.8L543.6,674L574.2,652.9L582,655.8L551.5,676.8Z" style="fill:rgb(239,68,62);fill-rule:nonzero;"/>
                    <path d="M541.5,673.2C540.2,676.7 542.1,680.6 545.6,681.9C549.1,683.2 553,681.3 554.3,677.8C555.6,674.3 553.7,670.4 550.2,669.1C546.6,667.9 542.7,669.7 541.5,673.2Z" style="fill:rgb(239,68,62);fill-rule:nonzero;"/>
                </g>
                <g>
                    <path d="M609.3,697.6L617.1,700.4L607,664.7L599.1,661.9L609.3,697.6Z" style="fill:rgb(239,68,62);fill-rule:nonzero;"/>
                    <path d="M619.3,701.2C618,704.7 614.1,706.6 610.6,705.3C607.1,704 605.2,700.1 606.5,696.6C607.8,693.1 611.7,691.2 615.2,692.5C618.7,693.8 620.6,697.6 619.3,701.2Z" style="fill:rgb(239,68,62);fill-rule:nonzero;"/>
                    <path d="M619.3,701.2C618,704.7 614.1,706.6 610.6,705.3C607.1,704 605.2,700.1 606.5,696.6C607.8,693.1 611.7,691.2 615.2,692.5C618.7,693.8 620.6,697.6 619.3,701.2Z" style="fill:rgb(239,68,62);fill-rule:nonzero;"/>
                </g>
                <g transform="matrix(0.3379,-0.9412,0.9412,0.3379,-248.507,997.368)">
                    <rect x="567.1" y="671.5" width="35" height="7.7" style="fill:rgb(239,68,62);"/>
                </g>
                <path d="M585.1,694.1C583.8,697.6 579.9,699.5 576.4,698.2C572.9,696.9 571,693 572.3,689.5C573.6,686 577.5,684.1 581,685.4C584.5,686.7 586.4,690.6 585.1,694.1Z" style="fill:rgb(239,68,62);fill-rule:nonzero;"/>
            </g>
        </g>
        <g transform="matrix(-1.86455,0,0,1.87848,1293.89,-989.274)">
            <path d="M645.7,530L632.1,525.1C621.9,521.5 610.7,526.8 607.1,536.9L580.4,611.4C588.5,615 597.5,618.6 606.9,622C615.1,624.9 623.2,627.5 630.8,629.7L657.5,555C661.2,544.9 655.9,533.7 645.7,530Z" style="fill:rgb(239,68,62);fill-rule:nonzero;"/>
            <g>
                <path d="M605.3,559C601.4,569.8 607.1,581.7 617.9,585.6C628.7,589.5 640.6,583.8 644.5,573C648.4,562.2 642.7,550.3 631.9,546.4C621,542.6 609.2,548.2 605.3,559Z" style="fill:white;fill-rule:nonzero;"/>
                <path d="M613.3,563.6C611.1,569.8 614.3,576.7 620.6,579C626.8,581.2 633.7,578 636,571.7C638.2,565.5 635,558.6 628.7,556.3C622.4,554.1 615.5,557.3 613.3,563.6Z" style="fill:rgb(47,48,47);fill-rule:nonzero;"/>
                <g>
                    <path d="M673.9,572.1L666.5,592.9L644.5,585C642,584.1 639.2,585.4 638.3,587.9C637.4,590.4 638.7,593.2 641.2,594.1L667.8,603.6C670.3,604.5 673.1,603.2 674,600.7L683.1,575.3L673.9,572.1Z" style="fill:rgb(239,68,62);fill-rule:nonzero;"/>
                </g>
                <path d="M671.9,568.6C670.4,572.7 672.6,577.3 676.7,578.7C680.8,580.2 685.4,578 686.8,573.9C688.3,569.8 686.1,565.2 682,563.8C677.9,562.4 673.4,564.5 671.9,568.6Z" style="fill:rgb(239,68,62);fill-rule:nonzero;"/>
                <path d="M676,569.9C675.6,571 674.4,571.6 673.3,571.2C672.2,570.8 671.6,569.6 672,568.5L676.3,556.5C676.7,555.4 677.9,554.8 679,555.2C680.1,555.6 680.7,556.8 680.3,557.9L676,569.9Z" style="fill:rgb(239,68,62);fill-rule:nonzero;"/>
                <path d="M686.9,573.8C686.5,574.9 685.3,575.5 684.2,575.1C683.1,574.7 682.5,573.5 682.9,572.4L687.2,560.4C687.6,559.3 688.8,558.7 689.9,559.1C691,559.5 691.6,560.7 691.2,561.8L686.9,573.8Z" style="fill:rgb(239,68,62);fill-rule:nonzero;"/>
                <path d="M681.4,571.9C681,573 679.8,573.6 678.7,573.2C677.6,572.8 677,571.6 677.4,570.5L681.7,558.5C682.1,557.4 683.3,556.8 684.4,557.2C685.5,557.6 686.1,558.8 685.7,559.9L681.4,571.9Z" style="fill:rgb(239,68,62);fill-rule:nonzero;"/>
                <path d="M676.6,573.5C677.1,574.6 676.6,575.8 675.6,576.3C674.5,576.8 673.3,576.3 672.8,575.3L667.4,563.8C666.9,562.7 667.4,561.5 668.4,561C669.5,560.5 670.7,561 671.2,562L676.6,573.5Z" style="fill:rgb(239,68,62);fill-rule:nonzero;"/>
                <g>
                    <g>
                        <path d="M583.6,539.8L576.2,560.6L598.2,568.5C600.7,569.4 602,572.2 601.1,574.7C600.2,577.2 597.4,578.6 594.9,577.6L568.3,568.1C565.8,567.2 564.5,564.4 565.4,561.9L574.5,536.5L583.6,539.8Z" style="fill:rgb(239,68,62);fill-rule:nonzero;"/>
                    </g>
                    <path d="M587.3,538.3C585.8,542.4 581.3,544.6 577.2,543.1C573.1,541.6 570.9,537.1 572.4,533C573.9,528.9 578.4,526.7 582.5,528.2C586.6,529.7 588.8,534.2 587.3,538.3Z" style="fill:rgb(239,68,62);fill-rule:nonzero;"/>
                    <path d="M583.3,536.8C582.9,537.9 583.5,539.1 584.6,539.5C585.7,539.9 586.9,539.3 587.3,538.2L591.6,526.2C592,525.1 591.4,523.9 590.3,523.5C589.2,523.1 588,523.7 587.6,524.8L583.3,536.8Z" style="fill:rgb(239,68,62);fill-rule:nonzero;"/>
                    <path d="M572.4,532.8C572,533.9 572.6,535.1 573.7,535.5C574.8,535.9 576,535.3 576.4,534.2L580.7,522.2C581.1,521.1 580.5,519.9 579.4,519.5C578.3,519.1 577.1,519.7 576.7,520.8L572.4,532.8Z" style="fill:rgb(239,68,62);fill-rule:nonzero;"/>
                    <path d="M577.9,534.8C577.5,535.9 578.1,537.1 579.2,537.5C580.3,537.9 581.5,537.3 581.9,536.2L586.2,524.2C586.6,523.1 586,521.9 584.9,521.5C583.8,521.1 582.6,521.7 582.2,522.8L577.9,534.8Z" style="fill:rgb(239,68,62);fill-rule:nonzero;"/>
                    <path d="M580.6,539.1C579.5,539.6 579.1,540.9 579.6,541.9C580.1,543 581.4,543.4 582.4,542.9L593.9,537.5C595,537 595.4,535.7 594.9,534.7C594.4,533.6 593.1,533.2 592.1,533.7L580.6,539.1Z" style="fill:rgb(239,68,62);fill-rule:nonzero;"/>
                </g>
            </g>
        </g>
    </g>
</svg>
