<?xml version="1.0" encoding="UTF-8" standalone="no"?>
<!DOCTYPE svg PUBLIC "-//W3C//DTD SVG 1.1//EN" "http://www.w3.org/Graphics/SVG/1.1/DTD/svg11.dtd">
<svg width="100%" height="100%" viewBox="0 0 100 100" version="1.1" xmlns="http://www.w3.org/2000/svg" xmlns:xlink="http://www.w3.org/1999/xlink" xml:space="preserve" xmlns:serif="http://www.serif.com/" style="fill-rule:evenodd;clip-rule:evenodd;stroke-linejoin:round;stroke-miterlimit:2;">
    <g transform="matrix(1,0,0,1,-92.0102,-2014.99)">
        <circle cx="142.01" cy="2064.99" r="48.569" style="fill:rgb(0,145,194);"/>
    </g>
    <g transform="matrix(1,0,0,1,-92.0102,-2014.99)">
        <path d="M141.918,2035.08C158.749,2035.08 172.414,2048.74 172.414,2065.57C172.414,2082.4 158.749,2096.07 141.918,2096.07C125.087,2096.07 111.423,2082.4 111.423,2065.57C111.423,2048.74 125.087,2035.08 141.918,2035.08ZM161.274,2081.31L155.879,2081.31C154.521,2084.34 152.776,2086.91 150.759,2088.84C154.9,2087.28 158.517,2084.66 161.274,2081.31ZM127.957,2081.31L122.562,2081.31C125.32,2084.66 128.937,2087.28 133.078,2088.84C131.06,2086.91 129.316,2084.34 127.957,2081.31ZM150.517,2081.31L144.418,2081.31L144.418,2087.72C146.788,2086.77 148.898,2084.49 150.517,2081.31ZM139.068,2087.57L139.068,2081.31L133.32,2081.31C134.858,2084.33 136.84,2086.54 139.068,2087.57ZM124.919,2068.5L117.083,2068.5C117.394,2071.13 118.121,2073.64 119.195,2075.96L126.096,2075.96C125.489,2073.62 125.085,2071.11 124.919,2068.5ZM131.297,2075.96L139.068,2075.96L139.068,2068.5L130.088,2068.5C130.259,2071.16 130.677,2073.67 131.297,2075.96ZM166.754,2068.5L158.918,2068.5C158.752,2071.11 158.348,2073.62 157.741,2075.96L164.642,2075.96C165.716,2073.64 166.443,2071.13 166.754,2068.5ZM153.748,2068.5L144.418,2068.5L144.418,2075.96L152.539,2075.96C153.16,2073.67 153.578,2071.16 153.748,2068.5ZM126.506,2054.16L119.701,2054.16C118.273,2056.9 117.343,2059.93 117.029,2063.15L124.914,2063.15C125.112,2059.95 125.663,2056.93 126.506,2054.16ZM130.084,2063.15L139.068,2063.15L139.068,2054.16L131.73,2054.16C130.864,2056.84 130.288,2059.89 130.084,2063.15ZM164.136,2054.16L157.33,2054.16C158.173,2056.93 158.725,2059.95 158.922,2063.15L166.808,2063.15C166.494,2059.93 165.564,2056.9 164.136,2054.16ZM152.107,2054.16L144.418,2054.16L144.418,2063.15L153.753,2063.15C153.549,2059.89 152.973,2056.84 152.107,2054.16ZM128.659,2048.81C130.088,2046.04 131.859,2043.72 133.871,2042.03C129.84,2043.39 126.27,2045.75 123.457,2048.81L128.659,2048.81ZM139.068,2044.01C137.217,2044.86 135.535,2046.53 134.137,2048.81L139.068,2048.81L139.068,2044.01ZM160.38,2048.81C157.567,2045.75 153.997,2043.39 149.966,2042.03C151.977,2043.72 153.749,2046.04 155.177,2048.81L160.38,2048.81ZM144.418,2043.85L144.418,2048.81L149.7,2048.81C148.214,2046.39 146.408,2044.65 144.418,2043.85Z" style="fill:white;"/>
    </g>
</svg>
